<svg width="40" height="40" viewBox="0 0 40 40" fill="none" xmlns="http://www.w3.org/2000/svg">
<path d="M18.6371 39.677L1.36291 30.8787C0.948748 30.667 0.60488 30.3631 0.365702 29.9973C0.126523 29.6316 0.000420305 29.2169 5.93382e-06 28.7947V11.2053C-0.000994151 10.7819 0.124438 10.3657 0.363687 9.99864C0.602935 9.63156 0.947564 9.32652 1.36291 9.11419L18.6371 0.323035C19.0527 0.111411 19.5241 0 20.004 0C20.4839 0 20.9554 0.111411 21.371 0.323035L38.6371 9.1213C39.0524 9.33363 39.3971 9.63867 39.6363 10.0058C39.8756 10.3728 40.001 10.789 40 11.2124V28.7947C40.001 29.2181 39.8756 29.6343 39.6363 30.0014C39.3971 30.3684 39.0524 30.6735 38.6371 30.8858L21.371 39.677C20.9554 39.8886 20.4839 40 20.004 40C19.5241 40 19.0527 39.8886 18.6371 39.677V39.677Z" fill="#00F0FF"/>
<path d="M15.9731 28.9427C15.4071 28.9427 14.9481 28.5375 14.9481 28.0383V20.2756C14.9481 19.7771 15.1636 19.4477 15.6527 19.2017L22.7542 15.5782V10.1306C22.7542 9.63147 23.2132 9.22661 23.7792 9.22661C24.3451 9.22661 24.8042 9.63147 24.8042 10.1306V15.9036C24.8042 16.4021 24.5887 16.7314 24.0995 16.981L16.9981 20.601V28.0382C16.9981 28.5374 16.5391 28.9422 15.9731 28.9422V28.9427ZM15.9731 32.9218C15.7802 32.9218 15.6016 32.875 15.4473 32.7932L11.752 30.9092C11.2628 30.6597 11.0474 30.3303 11.0474 29.8319L11.0425 10.1271C11.0425 9.63927 11.496 9.22732 12.0664 9.22732C12.2365 9.22732 12.4089 9.26489 12.5677 9.34358L16.2931 11.2395C16.7827 11.4891 16.9982 11.8185 16.9982 12.3169V16.1C16.9982 16.5992 16.5391 17.004 15.9732 17.004C15.4072 17.004 14.9482 16.5992 14.9482 16.1V12.642L13.0951 11.6976V29.5063L16.4696 31.2264C16.7847 31.3806 16.9982 31.677 16.9982 32.0173C16.9982 32.5165 16.5391 32.9214 15.9731 32.9214L15.9731 32.9218ZM23.7752 32.9222C23.099 32.9222 22.7509 32.3968 22.7509 32.0131L22.7558 24.5795L19.3813 22.8593C19.0661 22.7051 18.8527 22.4087 18.8527 22.0684C18.8527 21.5692 19.3118 21.1644 19.8777 21.1644C20.0707 21.1644 20.2512 21.2115 20.4055 21.2934L24.1008 23.1773C24.5904 23.4269 24.8058 23.7563 24.8058 24.2547V30.4505L27.1561 29.2523C27.3105 29.1704 27.491 29.1232 27.6839 29.1232C28.2499 29.1232 28.7089 29.5281 28.7089 30.0272C28.7089 30.3676 28.4923 30.6589 28.1804 30.8182L24.2898 32.8003C24.1334 32.8797 23.9557 32.9219 23.7752 32.9219L23.7752 32.9222ZM27.6856 26.952C27.1197 26.952 26.6606 26.5468 26.6606 26.0476V22.5896L23.2861 20.8695C22.971 20.7153 22.7576 20.4189 22.7576 20.0786C22.7576 19.5794 23.2166 19.1745 23.7826 19.1745C23.9755 19.1745 24.156 19.2217 24.3103 19.3036L28.0056 21.1875C28.4952 21.4371 28.7107 21.7664 28.7107 22.2649V26.0479C28.7107 26.5471 28.2516 26.952 27.6857 26.952L27.6856 26.952ZM19.8801 15.013C19.3141 15.013 18.8551 14.6077 18.8551 14.1086V10.6506L15.4806 8.93047C15.1654 8.77626 14.952 8.47987 14.952 8.13954C14.952 7.64037 15.4111 7.23551 15.977 7.23551C16.17 7.23551 16.3505 7.28267 16.5048 7.36454L20.2001 9.24846C20.6897 9.49804 20.9052 9.82739 20.9052 10.3258V14.1089C20.9052 14.6081 20.4461 15.0129 19.8801 15.0129L19.8801 15.013ZM27.6856 18.9918C27.1197 18.9918 26.6606 18.587 26.6606 18.0878V8.13883C26.6606 7.63966 27.1197 7.2348 27.6856 7.2348C28.2516 7.2348 28.7106 7.63966 28.7106 8.13883V18.0878C28.7106 18.587 28.2516 18.9918 27.6856 18.9918Z" fill="black"/>
</svg>
