<svg width="586" height="595" viewBox="0 0 586 595" fill="none" xmlns="http://www.w3.org/2000/svg">
<g filter="url(#filter0_d_109_468)">
<path d="M275.482 185.197C349.226 173.338 417.933 175.223 469.397 187.839C495.13 194.147 516.528 203.132 532.086 214.403C547.643 225.671 557.333 239.201 559.736 254.605C562.139 270.009 557.04 285.916 545.675 301.515C534.308 317.115 516.692 332.374 494.138 346.448C449.033 374.594 384.262 397.944 310.518 409.804C236.774 421.663 168.067 419.778 116.603 407.162C90.8697 400.854 69.4725 391.868 53.9137 380.598C38.357 369.329 28.6672 355.8 26.2643 340.396C23.8614 324.992 28.9595 309.084 40.3252 293.486C51.6924 277.886 69.3078 262.626 91.8615 248.553C136.967 220.407 201.738 197.056 275.482 185.197Z" stroke="url(#paint0_linear_109_468)"/>
<path d="M277.415 184.904C351.351 174.353 420.016 177.455 471.255 190.981C496.876 197.745 518.116 207.108 533.478 218.652C548.839 230.195 558.295 243.893 560.432 259.338C562.57 274.782 557.199 290.597 545.567 305.991C533.934 321.388 516.059 336.333 493.267 350.005C447.684 377.347 382.522 399.546 308.585 410.097C234.649 420.648 165.984 417.545 114.745 404.019C89.1241 397.256 67.8846 387.893 52.5219 376.349C37.1613 364.806 27.7054 351.107 25.5677 335.663C23.4299 320.218 28.8007 304.404 40.4328 289.009C52.0664 273.612 69.9414 258.668 92.7336 244.996C138.316 217.654 203.479 195.454 277.415 184.904Z" stroke="url(#paint1_linear_109_468)"/>
<path d="M279.353 184.645C353.459 175.406 422.06 179.724 473.059 194.156C498.559 201.372 519.635 211.11 534.797 222.925C549.957 234.738 559.176 248.603 561.048 264.083C562.919 279.563 557.278 295.28 545.383 310.466C533.486 325.654 515.357 340.28 492.333 353.545C446.288 380.076 380.754 401.117 306.647 410.356C232.541 419.595 163.94 415.276 112.941 400.844C87.4404 393.628 66.3651 383.89 51.2031 372.075C36.0433 360.262 26.8243 346.398 24.9524 330.918C23.0804 315.438 28.7222 299.721 40.6171 284.535C52.5136 269.346 70.6427 254.721 93.6665 241.455C139.712 214.925 205.246 193.883 279.353 184.645Z" stroke="url(#paint2_linear_109_468)"/>
<path d="M281.295 184.42C355.549 176.496 424.065 182.029 474.808 197.363C500.181 205.03 521.085 215.14 536.042 227.221C550.996 239.301 559.976 253.327 561.581 268.838C563.187 284.349 557.276 299.963 545.122 314.936C532.966 329.911 514.588 344.213 491.34 357.069C444.845 382.78 378.96 402.656 304.706 410.581C230.452 418.505 161.935 412.971 111.192 397.638C85.8196 389.971 64.9149 379.861 49.9583 367.779C35.0039 355.699 26.0246 341.674 24.419 326.163C22.8134 310.652 28.7245 295.037 40.8785 280.064C53.0343 265.089 71.4121 250.787 94.6603 237.931C141.155 212.221 207.041 192.344 281.295 184.42Z" stroke="url(#paint3_linear_109_468)"/>
<path d="M283.24 184.23C357.619 177.623 426.029 184.369 476.501 200.6C501.738 208.715 522.466 219.194 537.213 231.539C551.957 243.882 560.694 258.065 562.033 273.602C563.372 289.139 557.193 304.646 544.783 319.401C532.372 334.159 513.751 348.133 490.286 360.575C443.356 385.458 377.139 404.164 302.76 410.771C228.381 417.378 159.971 410.631 109.499 394.401C84.2616 386.286 63.5339 375.807 48.7872 363.462C34.0427 351.119 25.3058 336.936 23.9671 321.399C22.6283 305.862 28.807 290.355 41.2165 275.599C53.6279 260.842 72.2486 246.868 95.7143 234.426C142.644 209.543 208.861 190.837 283.24 184.23Z" stroke="url(#paint4_linear_109_468)"/>
<path d="M285.188 184.074C359.67 178.786 427.954 186.744 478.139 203.866C503.233 212.427 523.777 223.272 538.309 235.876C552.839 248.479 561.331 262.814 562.403 278.372C563.474 293.931 557.03 309.326 544.369 323.86C531.706 338.395 512.847 352.037 489.171 364.061C441.822 388.109 375.293 405.638 300.812 410.927C226.33 416.215 158.046 408.257 107.861 391.135C82.7675 382.573 62.223 371.729 47.6908 359.124C33.1607 346.522 24.6689 332.186 23.5974 316.628C22.5259 301.07 28.9702 285.674 41.6315 271.141C54.2946 256.606 73.1527 242.963 96.8286 230.939C144.179 206.892 210.707 189.362 285.188 184.074Z" stroke="url(#paint5_linear_109_468)"/>
<path d="M287.139 183.953C361.7 179.985 429.837 189.152 479.72 207.161C504.663 216.166 525.018 227.373 539.331 240.233C553.642 253.091 561.886 267.574 562.69 283.149C563.494 298.724 556.786 314.003 543.877 328.31C530.966 342.619 511.876 355.924 487.997 367.527C440.241 390.732 373.421 407.08 298.861 411.048C224.3 415.015 156.163 405.848 106.28 387.839C81.3371 378.835 60.9821 367.628 46.6688 354.768C32.3575 341.91 24.1134 327.426 23.3095 311.851C22.5056 296.276 29.2135 280.997 42.1227 266.69C55.0337 252.382 74.1234 239.076 98.0024 227.473C145.759 204.268 212.578 187.92 287.139 183.953Z" stroke="url(#paint6_linear_109_468)"/>
<path d="M289.092 183.866C363.709 181.22 431.678 191.593 481.244 210.483C506.028 219.929 526.188 231.494 540.278 244.606C554.366 257.716 562.36 272.343 562.896 287.93C563.432 303.517 556.462 318.675 543.309 332.751C530.154 346.828 510.839 359.794 486.764 370.972C438.616 393.327 371.525 408.488 296.908 411.134C222.29 413.78 154.321 403.407 104.755 384.517C79.9713 375.071 59.812 363.505 45.7219 350.394C31.6338 337.284 23.6399 322.656 23.1039 307.07C22.5678 291.483 29.5373 276.325 42.6904 262.249C55.8454 248.171 75.1609 235.206 99.2357 224.028C147.383 201.673 214.474 186.512 289.092 183.866Z" stroke="url(#paint7_linear_109_468)"/>
<path d="M291.046 183.814C365.697 182.491 433.478 194.067 482.712 213.832C507.33 223.715 527.287 235.637 541.149 248.996C555.01 262.353 562.751 277.12 563.019 292.714C563.287 308.308 556.059 323.34 542.665 337.181C529.27 351.023 509.735 363.645 485.472 374.394C436.947 395.892 369.606 409.863 294.954 411.186C220.303 412.509 152.523 400.933 103.289 381.168C78.6707 371.285 58.7133 359.363 44.8507 346.004C30.9901 332.646 23.2489 317.879 22.9808 302.286C22.7127 286.692 29.9417 271.659 43.3348 257.819C56.7297 243.976 76.2652 231.355 100.528 220.606C149.053 199.107 216.394 185.137 291.046 183.814Z" stroke="url(#paint8_linear_109_468)"/>
<path d="M293 183.797C367.663 183.797 435.234 196.572 484.121 217.207C508.565 227.525 528.314 239.798 541.945 253.401C555.574 267.002 563.06 281.904 563.06 297.5C563.06 313.096 555.574 327.998 541.945 341.599C528.314 355.202 508.565 367.475 484.121 377.793C435.234 398.428 367.663 411.203 293 411.203C218.337 411.203 150.766 398.428 101.879 377.793C77.4349 367.475 57.6855 355.202 44.0546 341.599C30.4257 327.998 22.9395 313.096 22.9395 297.5C22.9395 281.904 30.4257 267.002 44.0546 253.401C57.6855 239.798 77.4349 227.525 101.879 217.207C150.766 196.572 218.337 183.797 293 183.797Z" stroke="url(#paint9_linear_109_468)"/>
<path d="M294.954 183.814C369.606 185.137 436.947 199.108 485.472 220.606C509.735 231.355 529.27 243.977 542.665 257.819C556.058 271.66 563.287 286.692 563.019 302.286C562.751 317.88 555.01 332.647 541.149 346.004C527.287 359.363 507.329 371.285 482.711 381.168C433.478 400.934 365.697 412.509 291.046 411.186C216.394 409.863 149.053 395.893 100.528 374.395C76.2651 363.645 56.7296 351.024 43.3347 337.181C29.9416 323.341 22.7126 308.309 22.9807 292.715C23.2488 277.121 30.9901 262.354 44.8507 248.996C58.7133 235.637 78.6706 223.716 103.289 213.832C152.522 194.067 220.303 182.491 294.954 183.814Z" stroke="url(#paint10_linear_109_468)"/>
<path d="M296.908 183.866C371.526 186.512 438.616 201.673 486.764 224.028C510.839 235.206 530.154 248.171 543.309 262.249C556.462 276.325 563.432 291.483 562.896 307.07C562.36 322.656 554.366 337.284 540.278 350.394C526.188 363.505 506.028 375.071 481.244 384.517C431.678 403.407 363.709 413.78 289.092 411.134C214.474 408.488 147.383 393.327 99.2358 370.972C75.161 359.794 55.8455 346.828 42.6905 332.751C29.5374 318.675 22.5679 303.517 23.104 287.93C23.6401 272.343 31.634 257.716 45.7221 244.606C59.8122 231.494 79.9714 219.929 104.755 210.483C154.322 191.593 222.291 181.22 296.908 183.866Z" stroke="url(#paint11_linear_109_468)"/>
<path d="M298.861 183.952C373.421 187.92 440.241 204.268 487.997 227.473C511.876 239.075 530.966 252.381 543.877 266.69C556.786 280.997 563.494 296.276 562.69 311.851C561.886 327.426 553.642 341.909 539.331 354.767C525.018 367.627 504.663 378.834 479.72 387.839C429.837 405.848 361.7 415.015 287.139 411.047C212.579 407.08 145.759 390.732 98.0026 367.527C74.1236 355.924 55.0338 342.618 42.1228 328.31C29.2136 314.003 22.5057 298.724 23.3097 283.149C24.1136 267.574 32.3576 253.09 46.6689 240.232C60.9823 227.372 81.3372 216.165 106.28 207.161C156.163 189.152 224.3 179.985 298.861 183.952Z" stroke="url(#paint12_linear_109_468)"/>
<path d="M300.812 184.073C375.293 189.362 441.821 206.891 489.171 230.939C512.847 242.963 531.705 256.605 544.369 271.14C557.03 285.673 563.474 301.069 562.403 316.627C561.331 332.186 552.839 346.521 538.309 359.124C523.777 371.728 503.233 382.572 478.139 391.134C427.954 408.256 359.67 416.214 285.188 410.926C210.707 405.638 144.179 388.108 96.8286 364.061C73.1526 352.036 54.2945 338.394 41.6314 323.859C28.9701 309.326 22.5259 293.93 23.5973 278.372C24.6688 262.814 33.1606 248.478 47.6907 235.876C62.2229 223.271 82.7674 212.427 107.861 203.865C158.046 186.743 226.33 178.785 300.812 184.073Z" stroke="url(#paint13_linear_109_468)"/>
<path d="M302.76 184.229C377.139 190.837 443.356 209.543 490.286 234.425C513.751 246.867 532.372 260.841 544.783 275.599C557.193 290.354 563.372 305.862 562.033 321.399C560.694 336.936 551.957 351.118 537.213 363.461C522.466 375.806 501.738 386.285 476.501 394.401C426.029 410.631 357.619 417.378 283.24 410.771C208.861 404.163 142.644 385.457 95.7144 360.575C72.2488 348.133 53.628 334.158 41.2167 319.401C28.8071 304.646 22.6285 289.138 23.9672 273.601C25.306 258.064 34.0428 243.882 48.7874 231.538C63.534 219.194 84.2617 208.715 109.499 200.599C159.971 184.369 228.381 177.622 302.76 184.229Z" stroke="url(#paint14_linear_109_468)"/>
<path d="M304.705 184.42C378.959 192.344 444.845 212.221 491.34 237.931C514.588 250.787 532.966 265.089 545.122 280.064C557.276 295.037 563.187 310.652 561.581 326.163C559.976 341.673 550.996 355.699 536.042 367.779C521.085 379.861 500.18 389.971 474.808 397.638C424.065 412.971 355.549 418.505 281.295 410.58C207.041 402.656 141.155 382.78 94.6602 357.069C71.412 344.213 53.0343 329.911 40.8785 314.936C28.7244 299.963 22.8133 284.348 24.4189 268.838C26.0245 253.327 35.0038 239.301 49.9582 227.221C64.9148 215.139 85.8195 205.029 111.192 197.362C161.935 182.029 230.451 176.495 304.705 184.42Z" stroke="url(#paint15_linear_109_468)"/>
<path d="M306.647 184.644C380.754 193.883 446.288 214.924 492.334 241.455C515.357 254.721 533.486 269.346 545.383 284.534C557.278 299.721 562.92 315.438 561.048 330.918C559.176 346.398 549.957 360.262 534.797 372.075C519.635 383.89 498.56 393.628 473.059 400.844C422.06 415.276 353.459 419.594 279.353 410.356C205.246 401.117 139.712 380.076 93.6666 353.545C70.6429 340.279 52.5138 325.654 40.6173 310.465C28.7224 295.279 23.0806 279.562 24.9525 264.082C26.8245 248.602 36.0435 234.738 51.2033 222.925C66.3653 211.11 87.4406 201.372 112.941 194.156C163.94 179.724 232.541 175.405 306.647 184.644Z" stroke="url(#paint16_linear_109_468)"/>
<path d="M308.585 184.903C382.521 195.454 447.684 217.653 493.266 244.996C516.059 258.667 533.934 273.612 545.567 289.009C557.199 304.403 562.57 320.218 560.432 335.662C558.295 351.107 548.839 364.806 533.478 376.348C518.115 387.893 496.876 397.256 471.255 404.019C420.016 417.545 351.351 420.647 277.415 410.097C203.478 399.546 138.316 377.347 92.7334 350.004C69.9412 336.333 52.0663 321.388 40.4326 305.991C28.8006 290.597 23.4298 274.782 25.5675 259.338C27.7053 243.893 37.1612 230.194 52.5217 218.652C67.8844 207.107 89.1239 197.744 114.745 190.981C165.984 177.455 234.649 174.353 308.585 184.903Z" stroke="url(#paint17_linear_109_468)"/>
<path d="M310.518 185.197C384.262 197.056 449.033 220.406 494.138 248.552C516.692 262.626 534.308 277.885 545.675 293.486C557.04 309.084 562.139 324.991 559.736 340.395C557.333 355.8 547.643 369.329 532.086 380.598C516.528 391.868 495.13 400.853 469.397 407.161C417.933 419.777 349.226 421.662 275.482 409.803C201.738 397.944 136.967 374.593 91.8615 346.447C69.3078 332.374 51.6924 317.115 40.3252 301.514C28.9595 285.916 23.8614 270.008 26.2643 254.604C28.6672 239.2 38.357 225.671 53.9137 214.402C69.4725 203.132 90.8697 194.147 116.603 187.838C168.067 175.222 236.774 173.337 310.518 185.197Z" stroke="url(#paint18_linear_109_468)"/>
<path d="M312.446 185.524C385.974 198.688 450.334 223.183 494.949 252.124C517.258 266.595 534.608 282.164 545.705 297.964C556.801 313.761 561.625 329.757 558.958 345.116C556.291 360.475 546.37 373.83 530.622 384.822C514.872 395.815 493.323 404.419 467.486 410.271C415.812 421.973 347.083 422.64 273.554 409.476C200.026 396.311 135.666 371.817 91.0508 342.876C68.7424 328.404 51.392 312.836 40.2946 297.036C29.1988 281.239 24.3749 265.243 27.0422 249.884C29.7095 234.525 39.6304 221.17 55.3783 210.178C71.1285 199.185 92.6769 190.581 118.515 184.729C170.188 173.027 238.917 172.36 312.446 185.524Z" stroke="url(#paint19_linear_109_468)"/>
<path d="M314.368 185.886C387.659 200.351 451.588 225.983 495.699 255.71C517.755 270.574 534.835 286.448 545.659 302.442C556.482 318.434 561.03 334.512 558.099 349.822C555.168 365.131 545.019 378.309 529.085 389.019C513.148 399.732 491.455 407.953 465.521 413.346C413.654 424.13 344.924 423.579 271.633 409.114C198.341 394.649 134.412 369.017 90.3017 339.29C68.2454 324.426 51.1652 308.552 40.3411 292.558C29.5185 276.566 24.9703 260.488 27.9012 245.179C30.832 229.869 40.981 216.692 56.9154 205.981C72.8522 195.269 94.5452 187.047 120.479 181.655C172.346 170.87 241.076 171.421 314.368 185.886Z" stroke="url(#paint20_linear_109_468)"/>
<path d="M316.283 186.282C389.314 202.043 452.793 228.804 496.386 259.308C518.183 274.561 534.988 290.735 545.536 306.918C556.082 323.099 560.353 339.256 557.159 354.511C553.966 369.766 543.592 382.762 527.476 393.188C511.357 403.617 489.526 411.453 463.503 416.385C411.46 426.249 342.749 424.48 269.718 408.718C196.686 392.956 133.207 366.196 89.6142 335.692C67.8168 320.439 51.0121 304.264 40.4645 288.081C29.9184 271.9 25.6473 255.744 28.8408 240.489C32.0344 225.233 42.4082 212.238 58.5244 201.811C74.6428 191.383 96.4739 183.547 122.497 178.615C174.541 168.751 243.251 170.52 316.283 186.282Z" stroke="url(#paint21_linear_109_468)"/>
<path d="M318.191 186.711C390.94 203.765 453.949 231.646 497.011 262.918C518.543 278.555 535.068 295.025 545.335 311.392C555.602 327.758 559.594 343.987 556.139 359.183C552.684 374.38 542.088 387.19 525.795 397.329C509.5 407.47 487.538 414.918 461.434 419.388C409.228 428.328 340.559 425.342 267.809 408.289C195.06 391.235 132.051 363.354 88.9886 332.082C67.4567 316.445 50.9325 299.975 40.6647 283.608C30.3984 267.242 26.4056 251.013 29.8609 235.816C33.3161 220.62 43.9118 207.81 60.2047 197.671C76.4999 187.53 98.4623 180.082 124.566 175.612C176.772 166.672 245.441 169.658 318.191 186.711Z" stroke="url(#paint22_linear_109_468)"/>
<path d="M320.091 187.175C392.537 205.515 455.057 234.508 497.575 266.539C518.835 282.555 535.073 299.315 545.058 315.862C555.042 332.407 558.755 348.704 555.039 363.837C551.323 378.97 540.509 391.59 524.044 401.439C507.577 411.29 485.49 418.347 459.313 422.354C406.962 430.368 338.354 426.165 265.909 407.825C193.464 389.485 130.943 360.492 88.4253 328.461C67.1654 312.445 50.9268 295.685 40.9419 279.138C30.9585 262.593 27.2453 246.295 30.9612 231.163C34.6771 216.03 45.4913 203.41 61.956 193.561C78.4231 183.71 100.51 176.653 126.687 172.646C179.038 164.632 247.646 168.834 320.091 187.175Z" stroke="url(#paint23_linear_109_468)"/>
<path d="M321.983 187.671C394.102 207.293 456.115 237.39 498.076 270.169C519.057 286.559 535.005 303.604 544.704 320.326C554.402 337.045 557.834 353.406 553.859 368.47C549.883 383.535 538.854 395.961 522.222 405.517C505.589 415.075 483.384 421.74 457.142 425.282C404.661 432.367 336.136 426.949 264.017 407.328C191.898 387.707 129.885 357.61 87.9242 324.831C66.9428 308.441 50.9948 291.396 41.2958 274.674C31.5982 257.955 28.1658 241.594 32.1412 226.53C36.1166 211.465 47.146 199.039 63.7776 189.483C80.4114 179.925 102.616 173.26 128.858 169.718C181.339 162.633 249.864 168.05 321.983 187.671Z" stroke="url(#paint24_linear_109_468)"/>
<path d="M323.867 188.202C395.637 209.098 457.123 240.289 498.514 273.807C519.211 290.567 534.863 307.892 544.274 324.783C553.682 341.671 556.833 358.091 552.599 373.082C548.365 388.074 537.124 400.303 520.331 409.563C503.535 418.824 481.219 425.094 454.921 428.171C402.326 434.325 333.904 427.694 262.133 406.798C190.362 385.902 128.877 354.711 87.4855 321.193C66.7889 304.433 51.1363 287.108 41.7263 270.217C32.3175 253.329 29.1668 236.909 33.4006 221.918C37.6343 206.926 48.8756 194.697 65.6689 185.437C82.4645 176.176 104.781 169.906 131.079 166.829C183.674 160.675 252.096 167.306 323.867 188.202Z" stroke="url(#paint25_linear_109_468)"/>
<path d="M325.741 188.766C397.141 210.93 458.081 243.207 498.89 277.453C519.296 294.576 534.648 312.176 543.766 329.231C552.883 346.284 555.751 362.757 551.261 377.671C546.77 392.585 535.32 404.613 518.37 413.574C501.418 422.536 478.997 428.41 452.65 431.021C399.957 436.242 331.66 428.399 260.259 406.234C188.859 384.07 127.918 351.794 87.1095 317.548C66.7042 300.424 51.3518 282.824 42.2335 265.769C33.1164 248.716 30.2485 232.243 34.7392 217.329C39.23 202.415 50.6797 190.387 67.6296 181.426C84.5818 172.464 107.002 166.59 133.35 163.979C186.042 158.759 254.34 166.601 325.741 188.766Z" stroke="url(#paint26_linear_109_468)"/>
<path d="M327.605 189.362C398.613 212.789 458.99 246.14 499.204 281.104C519.312 298.587 534.359 316.456 543.183 333.67C552.005 350.882 554.59 367.403 549.843 382.235C545.097 397.067 533.442 408.891 516.341 417.55C499.237 426.21 476.719 431.686 450.331 433.829C397.557 438.116 329.404 429.064 258.395 405.637C187.387 382.211 127.01 348.86 86.7963 313.896C66.6884 296.413 51.6408 278.544 42.8171 261.33C33.9945 244.118 31.4102 227.597 36.1566 212.765C40.903 197.932 52.5576 186.109 69.659 177.45C86.7627 168.79 109.281 163.314 135.669 161.17C188.443 156.884 256.596 165.936 327.605 189.362Z" stroke="url(#paint27_linear_109_468)"/>
<path d="M329.458 189.992C400.053 214.673 459.847 249.089 499.454 284.761C519.258 302.597 533.997 320.73 542.523 338.098C551.049 355.464 553.349 372.028 548.348 386.774C543.347 401.519 531.491 413.134 514.244 421.489C496.994 429.845 474.385 434.921 447.964 436.596C395.124 439.947 327.137 429.689 256.542 405.008C185.947 380.326 126.153 345.91 86.5458 310.239C66.7415 292.403 52.0033 274.269 43.4768 256.902C34.9514 239.536 32.6515 222.972 37.6521 208.226C42.6527 193.48 54.5087 181.865 71.7563 173.511C89.0062 165.155 111.615 160.079 138.036 158.403C190.876 155.053 258.862 165.311 329.458 189.992Z" stroke="url(#paint28_linear_109_468)"/>
<path d="M331.3 190.655C401.461 216.583 460.654 252.054 499.642 288.422C519.136 306.606 533.561 324.998 541.787 342.514C550.013 360.028 552.028 376.63 546.775 391.285C541.521 405.94 529.468 417.343 512.079 425.391C494.688 433.44 471.995 438.115 445.549 439.322C392.66 441.735 324.86 430.274 254.7 404.345C184.539 378.417 125.346 342.947 86.3583 306.579C66.8635 288.394 52.4393 270.003 44.2125 252.486C35.987 234.972 33.9721 218.37 39.2254 203.715C44.4786 189.06 56.5325 177.657 73.921 169.609C91.312 161.56 114.005 156.886 140.451 155.679C193.34 153.265 261.14 164.726 331.3 190.655Z" stroke="url(#paint29_linear_109_468)"/>
<path d="M333.131 191.35C402.835 218.518 461.409 255.031 499.766 292.085C518.946 310.612 533.052 329.256 540.976 346.916C548.899 364.573 550.628 381.208 545.124 395.768C539.62 410.327 527.372 421.515 509.848 429.253C492.321 436.993 469.551 441.265 443.089 442.003C390.165 443.479 322.573 430.818 252.869 403.65C183.165 376.482 124.59 339.968 86.2336 302.915C67.0544 284.388 52.9484 265.743 45.024 248.084C37.1008 230.427 35.3716 213.792 40.8759 199.232C46.3802 184.673 58.6282 173.485 76.1524 165.746C93.6791 158.007 116.449 153.735 142.911 152.997C195.834 151.521 263.427 164.182 333.131 191.35Z" stroke="url(#paint30_linear_109_468)"/>
<path d="M334.949 192.077C404.176 220.476 462.114 258.022 499.828 295.75C518.686 314.614 532.469 333.506 540.089 351.303C547.708 369.097 549.15 385.761 543.397 400.221C537.643 414.68 525.205 425.649 507.55 433.076C489.893 440.504 467.053 444.371 440.582 444.64C387.642 445.178 320.277 431.322 251.051 402.923C181.824 374.524 123.886 336.978 86.1721 299.25C67.3142 280.386 53.5309 261.494 45.9112 243.697C38.2926 225.902 36.8497 209.239 42.6034 194.779C48.3571 180.32 60.7954 169.351 78.45 161.924C96.1071 154.496 118.947 150.628 145.418 150.359C198.358 149.821 265.723 163.678 334.949 192.077Z" stroke="url(#paint31_linear_109_468)"/>
<path d="M336.755 192.837C405.483 222.458 462.767 261.025 499.827 299.415C518.357 318.611 531.814 337.744 539.126 355.673C546.438 373.6 547.594 390.287 541.593 404.642C535.592 418.998 522.967 429.744 505.187 436.857C487.405 443.971 464.503 447.433 438.031 447.233C385.089 446.833 317.973 431.785 249.245 402.163C180.517 372.542 123.233 333.975 86.1734 295.585C67.6426 276.389 54.1861 257.256 46.8735 239.327C39.5619 221.4 38.4057 204.713 44.407 190.358C50.4083 176.003 63.0332 165.256 80.8128 158.143C98.5948 151.029 121.497 147.567 147.969 147.767C200.911 148.167 268.027 163.215 336.755 192.837Z" stroke="url(#paint32_linear_109_468)"/>
<path d="M338.547 193.628C406.756 224.463 463.368 264.039 499.762 303.08C517.96 322.601 531.086 341.97 538.089 360.026C545.092 378.08 545.961 394.784 539.714 409.031C533.467 423.278 520.659 433.799 502.76 440.596C484.858 447.393 461.9 450.45 435.435 449.78C382.508 448.442 315.661 432.207 247.453 401.372C179.244 370.537 122.632 330.961 86.2378 291.92C68.0398 272.399 54.9142 253.03 47.9109 234.974C40.9086 216.92 40.0393 200.216 46.2864 185.969C52.5335 171.722 65.3412 161.201 83.2403 154.404C101.142 147.606 124.101 144.55 150.565 145.219C203.492 146.558 270.339 162.793 338.547 193.628Z" stroke="url(#paint33_linear_109_468)"/>
<path d="M340.326 194.451C407.994 226.49 463.917 267.063 499.635 306.743C517.495 326.584 530.285 346.182 536.977 364.36C543.668 382.535 544.25 399.252 537.759 413.386C531.268 427.519 518.282 437.812 500.268 444.291C482.253 450.77 459.245 453.419 432.796 452.281C379.9 450.005 313.342 432.587 245.674 400.549C178.006 368.51 122.083 327.936 86.3651 288.256C68.5054 268.416 55.7147 248.818 49.0228 230.64C42.3319 212.465 41.7499 195.748 48.2409 181.614C54.7319 167.48 67.7184 157.187 85.7316 150.709C103.747 144.229 126.755 141.581 153.204 142.719C206.1 144.995 272.658 162.412 340.326 194.451Z" stroke="url(#paint34_linear_109_468)"/>
<path d="M342.09 195.305C409.197 228.538 464.414 270.097 499.444 310.404C516.96 330.558 529.412 350.38 535.791 368.673C542.168 386.964 542.463 403.689 535.73 417.706C528.997 431.722 515.836 441.783 497.714 447.942C479.589 454.101 456.54 456.341 430.114 454.735C377.266 451.522 311.017 432.928 243.91 399.695C176.803 366.462 121.586 324.903 86.5553 284.596C69.0393 264.442 56.5874 244.62 50.209 226.327C43.8315 208.036 43.537 191.311 50.2699 177.294C57.0028 163.278 70.1641 153.217 88.286 147.058C106.41 140.899 129.46 138.659 155.885 140.265C208.734 143.478 274.983 162.072 342.09 195.305Z" stroke="url(#paint35_linear_109_468)"/>
<path d="M343.839 196.191C410.364 230.608 464.859 273.139 499.191 314.06C516.358 334.522 528.468 354.561 534.531 372.965C540.593 391.366 540.6 408.094 533.627 421.989C526.654 435.884 513.322 445.71 495.097 451.546C476.87 457.383 453.785 459.215 427.391 457.141C374.606 452.992 308.687 433.226 242.161 398.809C175.636 364.392 121.141 321.861 86.8086 280.94C69.6417 260.478 57.5324 240.439 51.4694 222.035C45.4072 203.634 45.4003 186.907 52.373 173.012C59.3458 159.117 72.678 149.29 90.903 143.454C109.13 137.617 132.215 135.785 158.609 137.86C211.394 142.009 277.313 161.774 343.839 196.191Z" stroke="url(#paint36_linear_109_468)"/>
<path d="M345.572 197.107C411.496 232.698 465.252 276.188 498.875 317.711C515.688 338.474 527.451 358.725 533.197 377.234C538.942 395.739 538.661 412.464 531.451 426.234C524.24 440.003 510.741 449.591 492.419 455.104C474.094 460.617 450.981 462.039 424.627 459.497C371.921 454.414 306.352 433.483 240.428 397.892C174.504 362.302 120.748 318.812 87.1247 277.288C70.3121 256.526 58.549 236.275 52.8033 217.766C47.0583 199.26 47.3389 182.535 54.5494 168.766C61.7598 154.997 75.2588 145.408 93.5814 139.896C111.906 134.383 135.019 132.96 161.373 135.502C214.079 140.586 279.648 161.517 345.572 197.107Z" stroke="url(#paint37_linear_109_468)"/>
<path d="M347.29 198.054C412.592 234.808 465.592 279.244 498.497 321.357C514.95 342.414 526.363 362.871 531.79 381.478C537.216 400.083 536.648 416.8 529.202 430.439C521.756 444.079 508.094 453.427 489.679 458.614C471.262 463.801 448.129 464.814 421.822 461.805C369.212 455.788 304.012 433.699 238.71 396.945C173.408 360.192 120.408 315.756 87.5032 273.643C71.05 252.586 59.6369 232.129 54.2101 213.522C48.7841 194.917 49.3521 178.199 56.7981 164.56C64.2441 150.921 77.9058 141.573 96.3203 136.386C114.737 131.199 137.871 130.186 164.177 133.195C216.788 139.212 281.987 161.301 347.29 198.054Z" stroke="url(#paint38_linear_109_468)"/>
<path d="M348.991 199.032C413.651 236.937 465.879 282.305 498.055 324.995C514.144 346.341 525.204 366.996 530.31 385.697C535.415 404.395 534.56 421.1 526.881 434.605C519.202 448.11 505.381 457.215 486.881 462.074C468.377 466.935 445.23 467.537 418.979 464.063C366.48 457.115 301.67 433.873 237.009 395.968C172.349 358.063 120.121 312.695 87.9447 270.005C71.856 248.659 60.7962 228.004 55.6901 209.303C50.5847 190.605 51.44 173.9 59.1192 160.395C66.7984 146.89 80.6187 137.785 99.1195 132.926C117.623 128.065 140.77 127.463 167.021 130.937C219.52 137.885 284.33 161.127 348.991 199.032Z" stroke="url(#paint39_linear_109_468)"/>
<path d="M350.675 200.039C414.674 239.084 466.114 285.371 497.552 328.625C513.271 350.252 523.974 371.101 528.758 389.889C533.541 408.675 532.399 425.362 524.489 438.729C516.579 452.096 502.604 460.954 484.023 465.485C465.439 470.017 442.284 470.209 416.097 466.27C363.725 458.392 299.325 434.006 235.325 394.961C171.326 355.916 119.886 309.629 88.4486 266.375C72.7292 244.748 62.0261 223.899 57.2422 205.111C52.459 186.325 53.6013 169.638 61.5114 156.271C69.4216 142.904 83.3961 134.046 101.978 129.515C120.562 124.983 143.716 124.791 169.903 128.73C222.275 136.608 286.676 160.994 350.675 200.039Z" stroke="url(#paint40_linear_109_468)"/>
<path d="M352.341 201.076C415.66 241.249 466.296 288.44 496.986 332.245C512.331 354.147 522.674 375.182 527.134 394.053C531.594 412.92 530.165 429.584 522.026 442.809C513.888 456.034 499.763 464.643 481.106 468.844C462.447 473.046 439.293 472.828 413.178 468.425C360.949 459.621 296.977 434.097 233.659 393.924C170.341 353.75 119.704 306.559 89.0147 262.755C73.6694 240.852 63.3262 219.817 58.866 200.947C54.4064 182.079 55.8354 165.415 63.974 152.19C72.1126 138.966 86.2372 130.357 104.894 126.155C123.553 121.954 146.707 122.172 172.823 126.574C225.051 135.379 289.023 160.902 352.341 201.076Z" stroke="url(#paint41_linear_109_468)"/>
<path d="M353.989 202.142C416.607 243.431 466.425 291.513 496.357 335.854C511.324 358.026 521.304 379.241 525.439 398.187C529.573 417.131 527.858 433.767 519.493 446.846C511.129 459.924 496.859 468.281 478.132 472.151C459.404 476.022 436.257 475.394 410.221 470.529C358.152 460.8 294.629 434.147 232.011 392.858C169.392 351.568 119.574 303.487 89.6427 259.145C74.6762 236.974 64.6962 215.759 60.561 196.812C56.4264 177.868 58.1416 161.232 66.5062 148.154C74.8708 135.076 89.1412 126.718 107.867 122.848C126.596 118.978 149.743 119.606 175.779 124.471C227.848 134.199 291.371 160.853 353.989 202.142Z" stroke="url(#paint42_linear_109_468)"/>
<path d="M355.619 203.237C417.518 245.63 466.502 294.587 495.667 339.452C510.25 361.886 519.864 383.274 523.673 402.291C527.481 421.305 525.48 437.908 516.892 450.836C508.304 463.764 493.892 471.868 475.103 475.405C456.31 478.943 433.178 477.905 407.23 472.58C355.335 461.93 292.28 434.155 230.381 391.762C168.482 349.369 119.498 300.412 90.333 255.547C75.7499 233.114 66.1361 211.725 62.3272 192.708C58.5188 173.694 60.5197 157.091 69.1078 144.163C77.6958 131.235 92.1076 123.132 110.897 119.594C129.69 116.056 152.822 117.095 178.77 122.42C230.665 133.07 293.72 160.845 355.619 203.237Z" stroke="url(#paint43_linear_109_468)"/>
<path d="M357.23 204.361C418.391 247.845 466.526 297.662 494.915 343.037C509.11 365.726 518.355 387.281 521.837 406.363C525.318 425.442 523.032 442.007 514.223 454.78C505.414 467.554 490.865 475.401 472.017 478.605C453.167 481.809 430.056 480.361 404.203 474.577C352.5 463.009 289.931 434.121 228.77 390.638C167.609 347.155 119.474 297.337 91.085 251.962C76.8897 229.274 67.6449 207.718 64.1635 188.636C60.6825 169.558 62.9686 152.992 71.7774 140.219C80.5863 127.445 95.135 119.599 113.983 116.394C132.833 113.19 155.944 114.638 181.797 120.422C233.5 131.99 296.069 160.878 357.23 204.361Z" stroke="url(#paint44_linear_109_468)"/>
<path d="M358.821 205.514C419.225 250.075 466.497 300.738 494.102 346.609C507.905 369.545 516.778 391.262 519.931 410.402C523.083 429.54 520.513 446.062 511.486 458.677C502.459 471.293 487.777 478.88 468.877 481.75C449.975 484.62 426.892 482.762 401.143 476.521C349.646 464.039 287.584 434.046 227.179 389.486C166.775 344.926 119.504 294.262 91.8985 248.391C78.0953 225.455 69.2225 203.738 66.0695 184.598C62.917 165.46 65.4875 148.938 74.5145 136.323C83.5415 123.708 98.2228 116.12 117.123 113.25C136.025 110.38 159.108 112.238 184.858 118.479C236.354 130.961 298.416 160.954 358.821 205.514Z" stroke="url(#paint45_linear_109_468)"/>
<path d="M360.392 206.695C420.021 252.319 466.414 303.812 493.227 350.165C506.634 373.343 515.132 395.213 517.955 414.406C520.779 433.597 517.924 450.071 508.682 462.524C499.44 474.978 484.63 482.304 465.684 484.838C446.735 487.373 423.687 485.107 398.049 478.41C346.775 465.017 285.238 433.929 225.608 388.305C165.979 342.681 119.586 291.188 92.7731 244.835C79.3663 221.657 70.868 199.787 68.0446 180.594C65.2215 161.403 68.0756 144.929 77.318 132.476C86.5603 120.022 101.37 112.696 120.316 110.162C139.265 107.627 162.313 109.893 187.951 116.59C239.225 129.983 300.762 161.071 360.392 206.695Z" stroke="url(#paint46_linear_109_468)"/>
<path d="M361.942 207.903C420.778 254.577 466.279 306.884 492.291 353.706C505.298 377.117 513.419 399.135 515.912 418.375C518.405 437.613 515.268 454.034 505.813 466.321C496.358 478.609 481.425 485.672 462.438 487.87C443.448 490.068 420.443 487.394 394.924 480.244C343.888 465.944 282.894 433.771 224.058 387.097C165.222 340.424 119.72 288.116 93.7087 241.295C80.7023 217.883 72.5813 195.865 70.0881 176.625C67.5953 157.387 70.7321 140.967 80.1871 128.679C89.6421 116.391 104.575 109.328 123.562 107.13C142.552 104.932 165.557 107.606 191.076 114.756C242.112 129.056 303.106 161.229 361.942 207.903Z" stroke="url(#paint47_linear_109_468)"/>
<path d="M363.472 209.138C421.496 256.847 466.092 309.953 491.295 357.228C503.897 380.867 511.638 403.025 513.8 422.307C515.962 441.586 512.543 457.948 502.879 470.066C493.214 482.185 478.162 488.982 459.14 490.843C440.116 492.705 417.16 489.623 391.767 482.022C340.985 466.82 280.553 433.571 222.528 385.862C164.504 338.152 119.908 285.047 94.7052 237.771C82.1031 214.133 74.3618 191.974 72.1998 172.693C70.038 153.414 73.4566 137.051 83.1212 124.933C92.7859 112.815 107.838 106.018 126.86 104.156C145.884 102.295 168.84 105.376 194.232 112.978C245.015 128.179 305.447 161.429 363.472 209.138Z" stroke="url(#paint48_linear_109_468)"/>
<path d="M364.98 210.401C422.176 259.131 465.851 313.019 490.238 360.734C502.432 384.592 509.791 406.884 511.621 426.201C513.451 445.516 509.752 461.815 499.881 473.76C490.009 485.705 474.843 492.234 455.792 493.758C436.738 495.283 413.839 491.795 388.581 483.745C338.067 467.645 278.216 433.33 221.02 384.6C163.825 335.87 120.149 281.982 95.7621 234.267C83.5683 210.408 76.209 188.116 74.3787 168.799C72.5486 149.485 76.248 133.186 86.1193 121.241C95.9907 109.296 111.157 102.766 130.208 101.242C149.262 99.7182 172.161 103.206 197.419 111.256C247.933 127.355 307.784 161.671 364.98 210.401Z" stroke="url(#paint49_linear_109_468)"/>
<path d="M366.466 211.69C422.815 261.426 465.558 316.08 489.121 364.219C500.903 388.29 507.878 410.709 509.376 430.056C510.874 449.4 506.895 465.631 496.82 477.399C486.745 489.167 471.468 495.427 452.394 496.613C433.317 497.799 410.481 493.906 385.365 485.41C335.136 468.418 275.884 433.047 219.534 383.311C163.185 333.574 120.442 278.921 96.879 230.781C85.0971 206.71 78.1221 184.291 76.6241 164.944C75.1263 145.6 79.1052 129.369 89.1803 117.601C99.2554 105.833 114.532 99.5735 133.606 98.3873C152.683 97.201 175.519 101.094 200.635 109.591C250.864 126.583 310.116 161.953 366.466 211.69Z" stroke="url(#paint50_linear_109_468)"/>
<path d="M367.929 213.005C423.415 263.732 465.213 319.135 487.944 367.685C499.311 391.961 505.899 414.5 507.064 433.87C508.23 453.238 503.972 469.396 493.697 480.984C483.421 492.571 468.039 498.559 448.947 499.407C429.853 500.255 407.088 495.958 382.122 487.018C332.192 469.138 273.557 432.723 218.071 381.996C162.584 331.268 120.787 275.865 98.0556 227.315C86.6892 203.039 80.1006 180.5 78.9354 161.13C77.7703 141.762 82.0277 125.604 92.3034 114.017C102.579 102.429 117.961 96.4411 137.053 95.5931C156.147 94.745 178.912 99.0422 203.878 107.982C253.808 125.862 312.443 162.277 367.929 213.005Z" stroke="url(#paint51_linear_109_468)"/>
<path d="M369.37 214.345C423.976 266.048 464.814 322.183 486.708 371.129C497.656 395.603 503.856 418.255 504.688 437.643C505.52 457.028 500.985 473.108 490.512 484.512C480.039 495.916 464.557 501.63 445.453 502.14C426.347 502.649 403.659 497.949 378.851 488.568C329.236 469.807 271.236 432.358 216.63 380.655C162.024 328.952 121.186 272.817 99.2917 223.871C88.3443 199.398 82.1441 176.745 81.312 157.357C80.48 137.972 85.0144 121.892 95.4877 110.488C105.961 99.0845 121.443 93.37 140.547 92.8604C159.653 92.3509 182.341 97.0508 207.149 106.432C256.764 125.194 314.764 162.643 369.37 214.345Z" stroke="url(#paint52_linear_109_468)"/>
<path d="M370.788 215.711C424.496 268.374 464.364 325.224 485.413 374.55C495.938 399.214 501.748 421.973 502.247 441.373C502.745 460.77 497.935 476.767 487.268 487.984C476.6 499.2 461.022 504.639 441.913 504.81C422.801 504.981 400.197 499.88 375.554 490.06C326.269 470.422 268.921 431.951 215.212 379.289C161.503 326.626 121.636 269.776 100.587 220.45C90.0616 195.786 84.2517 173.027 83.7529 153.627C83.2543 134.23 88.0644 118.233 98.732 107.016C109.4 95.8002 124.977 90.3609 144.087 90.19C163.199 90.019 185.803 95.1203 210.446 104.94C259.731 124.578 317.079 163.049 370.788 215.711Z" stroke="url(#paint53_linear_109_468)"/>
<path d="M372.181 217.102C424.977 270.709 463.861 328.257 484.059 377.949C494.159 402.795 499.577 425.654 499.742 445.059C499.907 464.463 494.823 480.372 483.964 491.397C473.106 502.423 457.437 507.585 438.327 507.417C419.215 507.25 396.703 501.749 372.231 491.494C323.292 470.986 266.614 431.504 213.818 377.898C161.023 324.291 122.139 266.743 101.94 217.052C91.8409 192.205 86.423 169.346 86.2578 149.941C86.0926 130.538 91.177 114.628 102.036 103.603C112.894 92.5776 128.563 87.4151 147.673 87.5829C166.785 87.7506 189.297 93.2516 213.768 103.506C262.708 124.015 319.386 163.496 372.181 217.102Z" stroke="url(#paint54_linear_109_468)"/>
<path d="M373.551 218.518C425.417 273.052 463.307 331.28 482.648 381.322C492.318 406.344 497.343 429.295 497.174 448.701C497.006 468.104 491.649 483.921 480.602 494.752C469.556 505.583 453.801 510.467 434.697 509.961C415.591 509.454 393.176 503.555 368.885 492.868C320.305 471.496 264.315 431.016 212.449 376.482C160.582 321.949 122.693 263.72 103.352 213.678C93.6814 188.656 88.6573 165.705 88.8257 146.3C88.994 126.897 94.3511 111.08 105.397 100.248C116.444 89.4173 132.199 84.5332 151.303 85.0396C170.409 85.546 192.824 91.4451 217.115 102.132C265.695 123.504 321.685 163.984 373.551 218.518Z" stroke="url(#paint55_linear_109_468)"/>
<path d="M374.897 219.958C425.818 275.402 462.7 334.293 481.178 384.67C490.417 409.86 495.046 432.897 494.544 452.296C494.043 471.693 488.414 487.413 477.184 498.046C465.953 508.68 450.116 513.284 431.024 512.439C411.93 511.594 389.62 505.299 365.516 494.183C317.311 471.953 262.024 430.488 211.104 375.043C160.183 319.598 123.3 260.707 104.822 210.33C95.5828 185.14 90.954 162.104 91.4559 142.704C91.9577 123.307 97.5858 107.588 108.817 96.954C120.047 86.3203 135.884 81.7162 154.976 82.561C174.071 83.4059 196.381 89.7014 220.484 100.817C268.69 123.047 323.976 164.513 374.897 219.958Z" stroke="url(#paint56_linear_109_468)"/>
<path d="M376.217 221.42C426.177 277.759 462.042 337.295 479.651 387.992C488.456 413.341 492.688 436.456 491.853 455.844C491.018 475.229 485.12 490.846 473.709 501.279C462.297 511.712 446.384 516.035 427.309 514.852C408.232 513.669 386.033 506.979 362.124 495.438C314.309 472.357 259.743 429.918 209.783 373.579C159.823 317.241 123.958 257.705 106.349 207.008C97.5442 181.659 93.312 158.543 94.1473 139.156C94.9824 119.771 100.88 104.153 112.292 93.7204C123.703 83.2874 139.616 78.9646 158.691 80.1476C177.768 81.3307 199.967 88.0205 223.876 99.5616C271.692 122.643 326.257 165.082 376.217 221.42Z" stroke="url(#paint57_linear_109_468)"/>
<path d="M377.512 222.907C426.496 280.122 461.332 340.285 478.067 391.286C486.435 416.788 490.269 439.974 489.101 459.344C487.933 478.712 481.768 494.222 470.178 504.451C458.589 514.68 442.604 518.72 423.553 517.199C404.499 515.678 382.419 508.596 358.712 496.633C311.3 472.708 257.473 429.309 208.488 372.093C159.504 314.878 124.668 254.716 107.933 203.715C99.5651 178.213 95.7308 155.026 96.8992 135.656C98.0674 116.289 104.232 100.778 115.822 90.5493C127.411 80.3203 143.396 76.2801 162.447 77.8009C181.501 79.3219 203.581 86.4041 227.288 98.3671C274.7 122.292 328.528 165.692 377.512 222.907Z" stroke="url(#paint58_linear_109_468)"/>
<path d="M378.781 224.416C426.774 282.49 460.571 343.261 476.427 394.551C484.355 420.197 487.79 443.448 486.289 462.795C484.788 482.138 478.357 497.537 466.594 507.559C454.831 517.581 438.779 521.337 419.757 519.479C400.732 517.621 378.777 510.148 355.279 497.767C308.286 473.006 255.212 428.659 207.219 370.584C159.226 312.509 125.429 251.739 109.573 200.449C101.645 174.803 98.2096 151.552 99.7108 132.205C101.212 112.861 107.642 97.4629 119.406 87.4409C131.169 77.4188 147.221 73.6625 166.243 75.5207C185.268 77.3791 207.223 84.8515 230.721 97.2328C277.714 121.994 330.787 166.341 378.781 224.416Z" stroke="url(#paint59_linear_109_468)"/>
<path d="M380.024 225.947C427.012 284.864 459.759 346.224 474.731 397.787C482.217 423.57 485.252 446.878 483.418 466.195C481.585 485.509 474.891 500.792 462.957 510.604C451.024 520.416 434.91 523.887 415.922 521.692C396.932 519.497 375.109 511.636 351.828 498.841C305.267 473.25 252.964 427.969 205.976 369.053C158.988 310.137 126.241 248.777 111.269 197.213C103.783 171.431 100.748 148.122 102.581 128.805C104.415 109.491 111.109 94.2088 123.042 84.3969C134.976 74.5849 151.09 71.1136 170.078 73.3086C189.068 75.5038 210.891 83.3641 234.172 96.1599C280.733 121.75 333.036 167.031 380.024 225.947Z" stroke="url(#paint60_linear_109_468)"/>
<path d="M381.24 227.5C427.208 287.24 458.896 349.172 472.979 400.992C480.021 426.904 482.655 450.263 480.49 469.544C478.325 488.823 471.369 503.984 459.269 513.583C447.168 523.182 430.997 526.367 412.05 523.836C393.101 521.305 371.416 513.059 348.358 499.852C302.244 473.441 250.728 427.24 204.76 367.5C158.791 307.76 127.104 245.829 113.021 194.008C105.979 168.096 103.345 144.738 105.51 125.456C107.675 106.177 114.631 91.0164 126.731 81.4175C138.832 71.8185 155.003 68.6333 173.95 71.1644C192.899 73.6959 214.584 81.9417 237.642 95.1481C283.756 121.56 335.272 167.76 381.24 227.5Z" stroke="url(#paint61_linear_109_468)"/>
<path d="M382.43 229.075C427.364 289.62 457.982 352.104 471.173 404.166C477.768 430.198 480 453.6 477.504 472.84C475.008 492.078 467.793 507.113 455.529 516.496C443.266 525.879 427.043 528.778 408.142 525.911C389.239 523.044 367.699 514.415 344.872 500.802C299.219 473.578 248.504 426.471 203.57 365.926C158.636 305.38 128.018 242.897 114.827 190.834C108.232 164.802 106 141.4 108.496 122.16C110.992 102.922 118.207 87.8868 130.471 78.5039C142.734 69.1209 158.957 66.2227 177.858 69.0892C196.761 71.956 218.301 80.5849 241.128 94.1979C286.781 121.423 337.496 168.529 382.43 229.075Z" stroke="url(#paint62_linear_109_468)"/>
<path d="M383.592 230.67C427.479 292.003 457.018 355.019 469.312 407.307C475.459 433.453 477.289 456.891 474.462 476.083C471.636 495.274 464.163 510.179 451.74 519.343C439.318 528.507 423.047 531.118 404.199 527.917C385.348 524.715 363.96 515.706 341.37 501.691C296.192 473.661 246.294 425.663 202.407 364.33C158.521 302.998 128.981 239.981 116.688 187.693C110.541 161.548 108.711 138.11 111.538 118.917C114.364 99.7264 121.837 84.8212 134.259 75.6571C146.682 66.4929 162.953 63.8826 181.801 67.0836C200.652 70.285 222.04 79.2942 244.63 93.3097C289.808 121.339 339.706 169.337 383.592 230.67Z" stroke="url(#paint63_linear_109_468)"/>
<path d="M384.727 232.286C427.553 294.386 456.005 357.917 467.398 410.415C473.095 436.665 474.521 460.132 471.365 479.272C468.209 498.41 460.481 513.18 447.903 522.122C435.325 531.065 419.012 533.387 400.222 529.852C381.429 526.317 360.199 516.93 337.853 502.517C293.164 473.691 244.099 424.816 201.273 362.715C158.447 300.614 129.995 237.083 118.602 184.585C112.905 158.335 111.479 134.868 114.635 115.728C117.791 96.5907 125.519 81.8203 138.097 72.8777C150.675 63.9352 166.988 61.6136 185.779 65.1481C204.571 68.683 225.802 78.0699 248.147 92.4835C292.837 121.309 341.902 170.185 384.727 232.286Z" stroke="url(#paint64_linear_109_468)"/>
<path d="M385.834 233.921C427.586 296.771 454.941 360.796 465.43 413.488C470.675 439.836 471.698 463.324 468.213 482.405C464.729 501.484 456.749 516.115 444.019 524.833C431.289 533.552 414.939 535.584 396.212 531.717C377.482 527.849 356.417 518.088 334.322 503.28C290.135 473.667 241.918 423.93 200.166 361.079C158.414 298.229 131.058 234.204 120.569 181.512C115.325 155.164 114.302 131.676 117.787 112.595C121.271 93.5162 129.251 78.8851 141.981 70.1669C154.711 61.4487 171.061 59.4164 189.788 63.2834C208.518 67.1508 229.583 76.9125 251.678 91.7199C295.865 121.333 344.082 171.07 385.834 233.921Z" stroke="url(#paint65_linear_109_468)"/>
<path d="M386.913 235.576C427.578 299.156 453.829 363.656 463.41 416.526C468.202 442.963 468.82 466.466 465.008 485.482C461.197 504.496 452.966 518.984 440.088 527.475C427.211 535.966 410.828 537.708 392.17 533.51C373.51 529.311 352.616 519.178 330.779 503.981C287.108 473.589 239.752 423.005 199.087 359.424C158.422 295.844 132.171 231.344 122.589 178.474C117.798 152.037 117.18 128.534 120.992 109.518C124.803 90.5038 133.034 76.0164 145.912 67.5252C158.789 59.0339 175.172 57.2917 193.829 61.49C212.49 65.6887 233.384 75.8222 255.221 91.0189C298.892 121.411 346.247 171.995 386.913 235.576Z" stroke="url(#paint66_linear_109_468)"/>
<path d="M387.963 237.249C427.529 301.541 452.667 366.496 461.338 419.528C465.674 446.045 465.889 469.556 461.751 488.502C457.613 507.445 449.134 521.785 436.113 530.046C423.092 538.308 406.682 539.76 388.099 535.232C369.514 530.703 348.797 520.201 327.224 504.619C284.082 473.458 237.603 422.042 198.037 357.751C158.471 293.459 133.333 228.504 124.661 175.472C120.325 148.955 120.111 125.444 124.249 106.498C128.387 87.5546 136.865 73.2153 149.887 64.9537C162.908 56.692 179.318 55.2403 197.901 59.7685C216.486 64.2973 237.203 74.7995 258.775 90.3809C301.918 121.542 348.396 172.958 387.963 237.249Z" stroke="url(#paint67_linear_109_468)"/>
<path d="M388.984 238.941C427.439 303.925 451.457 369.315 459.215 422.493C463.095 449.083 462.906 472.594 458.442 491.463C453.979 510.331 445.256 524.518 432.094 532.547C418.933 540.577 402.501 541.737 383.998 536.881C365.494 532.023 344.961 521.155 323.659 505.194C281.059 473.273 235.471 421.042 197.016 356.059C158.561 291.076 134.543 225.685 126.785 172.507C122.905 145.917 123.094 122.407 127.558 103.537C132.021 84.6693 140.744 70.4826 153.906 62.453C167.067 54.4234 183.499 53.2627 202.002 58.1195C220.506 62.9769 241.04 73.8447 262.341 89.8059C304.941 121.727 350.529 173.958 388.984 238.941Z" stroke="url(#paint68_linear_109_468)"/>
<path d="M389.975 240.651C427.308 306.306 450.198 372.113 457.042 425.42C460.463 452.074 459.87 475.578 455.083 494.366C450.296 513.151 441.33 527.181 428.033 534.976C414.736 542.772 398.286 543.641 379.87 538.457C361.452 533.272 341.108 522.042 320.085 505.706C278.04 473.035 233.357 420.004 196.024 354.349C158.692 288.694 135.802 222.888 128.958 169.581C125.536 142.926 126.13 119.422 130.917 100.635C135.703 81.8491 144.67 67.8192 157.967 60.0241C171.264 52.229 187.714 51.3596 206.13 56.5436C224.548 61.7282 244.891 72.9581 265.915 89.2944C307.96 121.966 352.643 174.997 389.975 240.651Z" stroke="url(#paint69_linear_109_468)"/>
<path d="M390.938 242.378C427.136 308.684 448.892 374.887 454.818 428.307C457.781 455.018 456.784 478.508 451.674 497.208C446.566 515.906 437.36 529.775 423.931 537.333C410.502 544.891 394.04 545.469 375.716 539.959C357.389 534.449 337.242 522.86 316.502 506.154C275.025 472.743 231.26 418.928 195.062 352.621C158.864 286.315 137.108 220.113 131.182 166.693C128.219 139.982 129.216 116.492 134.325 97.7918C139.434 79.0939 148.64 65.2251 162.069 57.6669C175.498 50.1087 191.96 49.5309 210.284 55.0404C228.611 60.5506 248.758 72.1393 269.498 88.8457C310.975 122.257 354.74 176.072 390.938 242.378Z" stroke="url(#paint70_linear_109_468)"/>
<path d="M391.87 244.122C426.923 311.06 447.538 377.637 452.545 431.155C455.048 457.914 453.647 481.383 448.218 499.989C442.788 518.594 433.345 532.298 419.788 539.617C406.232 546.936 389.762 547.222 371.536 541.388C353.307 535.554 333.362 523.61 312.912 506.539C272.016 472.398 229.183 417.815 194.13 350.878C159.077 283.94 138.462 217.362 133.455 163.845C130.951 137.085 132.352 113.617 137.782 95.0102C143.212 76.4056 152.655 62.7022 166.211 55.3831C179.768 48.0641 196.238 47.7781 214.464 53.6115C232.693 59.4456 252.638 71.3896 273.087 88.461C313.984 122.602 356.817 177.185 391.87 244.122Z" stroke="url(#paint71_linear_109_468)"/>
<path d="M392.773 245.883C426.67 313.431 446.137 380.364 450.223 433.962C452.266 460.762 450.462 484.202 444.713 502.71C438.965 521.215 429.288 534.749 415.608 541.827C401.927 548.904 385.455 548.899 367.332 542.743C349.206 536.587 329.469 524.291 309.316 506.86C269.013 471.999 227.125 416.666 193.227 349.118C159.33 281.569 139.863 214.636 135.777 161.038C133.734 134.238 135.538 110.798 141.287 92.2906C147.035 73.7851 156.712 60.2511 170.392 53.1734C184.073 46.0958 200.545 46.1017 218.668 52.2572C236.794 58.4134 256.531 70.7091 276.684 88.1402C316.987 123.001 358.875 178.334 392.773 245.883Z" stroke="url(#paint72_linear_109_468)"/>
<path d="M393.645 247.658C426.375 315.797 444.689 383.065 447.854 436.727C449.436 463.559 447.229 486.964 441.163 505.367C435.098 523.768 425.189 537.128 411.389 543.962C397.589 550.796 381.12 550.498 363.105 544.023C345.088 537.546 325.566 524.903 305.716 507.117C266.017 471.547 225.086 415.48 192.355 347.341C159.625 279.202 141.311 211.935 138.146 158.273C136.564 131.44 138.771 108.036 144.837 89.633C150.902 71.2321 160.811 57.8718 174.611 51.0377C188.411 44.2036 204.88 44.5014 222.895 50.9771C240.912 57.4535 260.434 70.0971 280.284 87.8827C319.983 123.452 360.914 179.519 393.645 247.658Z" stroke="url(#paint73_linear_109_468)"/>
<path d="M394.486 249.449C426.041 318.158 443.195 385.74 445.437 439.45C446.558 466.306 443.949 489.668 437.567 507.961C431.187 526.251 421.05 539.434 407.135 546.023C393.22 552.611 376.759 552.022 358.858 545.228C340.955 538.433 321.652 525.445 302.111 507.311C263.03 471.043 223.069 414.259 191.514 345.55C159.959 276.842 142.805 209.26 140.563 155.55C139.442 128.693 142.051 105.332 148.433 87.0389C154.813 68.7483 164.95 55.5656 178.865 48.9772C192.78 42.3887 209.241 42.9782 227.142 49.7722C245.045 56.567 264.348 69.5545 283.889 87.6893C322.97 123.957 362.931 180.741 394.486 249.449Z" stroke="url(#paint74_linear_109_468)"/>
<path d="M395.296 251.255C425.665 320.513 441.656 388.389 442.974 442.13C443.633 469.002 440.623 492.314 433.928 510.491C427.234 528.666 416.872 541.667 402.846 548.008C388.82 554.348 372.371 553.467 354.59 546.357C336.806 539.246 317.73 525.918 298.503 507.44C260.052 470.486 221.073 413.002 190.704 343.745C160.335 274.487 144.345 206.612 143.026 152.87C142.367 125.998 145.377 102.686 152.072 84.5092C158.766 66.3344 169.128 53.3334 183.154 46.9926C197.18 40.6518 213.629 41.5329 231.41 48.643C249.194 55.754 268.27 69.0816 287.497 87.5599C325.948 124.515 364.927 181.998 395.296 251.255Z" stroke="url(#paint75_linear_109_468)"/>
<path d="M396.075 253.075C425.249 322.86 440.07 391.009 440.465 444.766C440.662 471.645 437.252 494.9 430.245 512.956C423.24 531.009 412.657 543.825 398.523 549.916C384.39 556.007 367.96 554.835 350.303 547.411C332.644 539.986 313.8 526.322 294.894 507.506C257.083 469.875 219.099 411.71 189.925 341.925C160.751 272.14 145.929 203.991 145.535 150.234C145.338 123.355 148.748 100.099 155.755 82.0441C162.76 63.9907 173.343 51.1753 187.476 45.0841C201.609 38.9928 218.04 40.1652 235.697 47.5894C253.355 55.0144 272.2 68.6781 291.106 87.4942C328.916 125.125 366.901 183.29 396.075 253.075Z" stroke="url(#paint76_linear_109_468)"/>
<path d="M396.823 254.909C424.793 325.2 438.441 393.601 437.911 447.357C437.646 474.236 433.837 497.427 426.521 515.356C419.206 533.282 408.404 545.908 394.169 551.748C379.933 557.588 363.525 556.124 345.999 548.388C328.471 540.652 309.864 526.656 291.284 507.508C254.126 469.213 217.147 410.383 189.177 340.092C161.207 269.801 147.559 201.4 148.089 147.644C148.354 120.765 152.163 97.5737 159.479 79.6452C166.794 61.7186 177.596 49.0929 191.831 43.253C206.067 37.4132 222.475 38.8765 240.001 46.6125C257.529 54.3493 276.136 68.3448 294.716 87.4931C331.874 125.788 368.853 184.618 396.823 254.909Z" stroke="url(#paint77_linear_109_468)"/>
<path d="M397.539 256.755C424.297 327.531 436.767 396.164 435.313 449.902C434.586 476.772 430.379 499.892 422.756 517.688C415.134 535.483 404.117 547.915 389.783 553.502C375.45 559.088 359.069 557.335 341.679 549.289C324.286 541.243 305.923 526.92 287.675 507.445C251.181 468.498 215.218 409.022 188.461 338.245C161.703 267.469 149.233 198.836 150.687 145.098C151.414 118.228 155.621 95.1079 163.244 77.3118C170.866 59.5176 181.883 47.0852 196.217 41.4985C210.55 35.9119 226.931 37.6657 244.321 45.7111C261.714 53.7573 280.077 68.0804 298.325 87.5551C334.819 126.503 370.782 185.978 397.539 256.755Z" stroke="url(#paint78_linear_109_468)"/>
<path d="M398.224 258.614C423.761 329.854 435.049 398.697 432.672 452.401C431.483 479.254 426.879 502.296 418.952 519.955C411.025 537.611 399.796 549.846 385.369 555.178C370.941 560.51 354.593 558.466 337.344 550.114C320.092 541.761 301.978 527.114 284.067 507.319C248.248 467.731 213.313 407.627 187.776 336.387C162.239 265.147 150.951 196.304 153.328 142.6C154.517 115.747 159.121 92.7044 167.049 75.046C174.975 57.3896 186.204 45.1544 200.632 39.8226C215.059 34.4909 231.407 36.5347 248.657 44.887C265.908 53.2402 284.022 67.8865 301.933 87.6816C337.752 127.27 372.687 187.374 398.224 258.614Z" stroke="url(#paint79_linear_109_468)"/>
<path d="M398.876 260.484C423.185 332.166 433.288 401.198 429.988 454.852C428.338 481.68 423.338 504.637 415.109 522.153C406.88 539.666 395.442 551.7 380.925 556.775C366.409 561.851 350.098 559.518 332.995 550.861C315.889 542.203 298.03 527.238 280.462 507.129C245.329 466.912 211.433 406.198 187.124 334.516C162.815 262.835 152.712 193.802 156.012 140.148C157.662 113.32 162.662 90.3628 170.891 72.8476C179.12 55.3343 190.558 43.3 205.075 38.2247C219.591 33.1495 235.902 35.4827 253.005 44.1393C270.111 52.797 287.97 67.7621 305.538 87.8716C340.671 128.089 374.567 188.803 398.876 260.484Z" stroke="url(#paint80_linear_109_468)"/>
<path d="M399.496 262.366C422.569 334.468 431.484 403.669 427.262 457.256C425.151 484.051 419.758 506.916 411.229 524.283C402.7 541.647 391.057 553.477 376.455 558.294C361.854 563.112 345.586 560.49 328.634 551.531C311.68 542.572 294.08 527.293 276.861 506.875C242.424 466.041 209.577 404.736 186.504 332.634C163.431 260.533 154.516 191.332 158.738 137.745C160.849 110.95 166.242 88.0848 174.772 70.7181C183.3 53.3533 194.943 41.5236 209.545 36.7063C224.146 31.8891 240.414 34.5109 257.366 43.4694C274.32 52.4288 291.92 67.7081 309.139 88.1258C343.576 128.959 376.423 190.265 399.496 262.366Z" stroke="url(#paint81_linear_109_468)"/>
<path d="M400.084 264.259C421.914 336.758 429.638 406.107 424.496 459.611C421.925 486.364 416.139 509.13 407.313 526.343C398.487 543.554 386.642 555.176 371.96 559.734C357.278 564.291 341.058 561.382 324.263 552.124C307.465 542.866 290.131 527.277 273.265 506.557C239.535 465.12 207.746 403.241 185.916 330.742C164.086 258.243 156.362 188.894 161.504 135.39C164.075 108.636 169.861 85.8704 178.688 68.6574C187.513 51.4464 199.358 39.8248 214.04 35.2671C228.722 30.7094 244.942 33.619 261.738 42.8765C278.535 52.1351 295.87 67.7239 312.735 88.4437C346.465 129.881 378.254 191.759 400.084 264.259Z" stroke="url(#paint82_linear_109_468)"/>
<path d="M400.639 266.161C421.219 339.036 427.75 408.511 421.689 461.916C418.659 488.62 412.483 511.28 403.361 528.334C394.241 545.386 382.199 556.796 367.441 561.093C352.682 565.39 336.515 562.193 319.881 552.639C303.245 543.085 286.182 527.191 269.675 506.175C236.662 464.146 205.942 401.714 185.361 328.839C164.781 255.964 158.25 186.489 164.311 133.084C167.341 106.38 173.517 83.7203 182.638 66.6664C191.759 49.6143 203.801 38.2045 218.559 33.9076C233.317 29.6108 249.485 32.8074 266.119 42.3611C282.755 51.9159 299.818 67.8096 316.325 88.8251C349.338 130.854 380.058 193.286 400.639 266.161Z" stroke="url(#paint83_linear_109_468)"/>
<path d="M401.161 268.073C420.486 341.302 425.822 410.882 418.844 464.172C415.355 490.818 408.79 513.365 399.377 530.255C389.965 547.143 377.728 558.337 362.899 562.372C348.069 566.406 331.959 562.924 315.492 553.077C299.023 543.229 282.235 527.035 266.092 505.73C233.807 463.123 204.164 400.156 184.839 326.927C165.514 253.698 160.178 184.118 167.156 130.829C170.646 104.182 177.21 81.6354 186.623 64.7457C196.035 47.8579 208.272 36.6632 223.101 32.6286C237.931 28.5939 254.041 32.0765 270.508 41.9235C286.977 51.7717 303.765 67.9653 319.909 89.2701C352.193 131.878 381.836 194.845 401.161 268.073Z" stroke="url(#paint84_linear_109_468)"/>
<path d="M401.65 269.995C419.713 343.555 423.852 413.219 415.96 466.377C412.013 492.957 405.062 515.384 395.36 532.105C385.659 548.823 373.232 559.799 358.335 563.57C343.439 567.342 327.391 563.574 311.095 553.437C294.798 543.298 278.291 526.81 262.517 505.222C230.969 462.049 202.413 398.566 184.35 325.006C166.287 251.446 162.148 181.782 170.04 128.624C173.987 102.044 180.938 79.6165 190.64 62.8962C200.341 46.1777 212.768 35.2016 227.665 31.4304C242.561 27.6591 258.609 31.4266 274.904 41.564C291.202 51.7025 307.709 68.1911 323.483 89.7788C355.031 132.952 383.587 196.435 401.65 269.995Z" stroke="url(#paint85_linear_109_468)"/>
<path d="M402.106 271.924C418.902 345.793 421.843 415.52 413.038 468.53C408.635 495.036 401.3 517.337 391.312 533.883C381.325 550.427 368.711 561.181 353.752 564.687C338.793 568.194 322.812 564.143 306.694 553.718C290.573 543.292 274.352 526.514 258.951 504.65C228.15 460.924 200.69 396.945 183.894 323.076C167.098 249.207 164.156 179.48 172.962 126.471C177.365 99.9643 184.7 77.6636 194.688 61.1177C204.675 44.5737 217.289 33.8195 232.248 30.3128C247.207 26.8062 263.187 30.8575 279.306 41.282C295.427 51.7078 311.648 68.4864 327.049 90.3503C357.85 134.076 385.31 198.055 402.106 271.924Z" stroke="url(#paint86_linear_109_468)"/>
<path d="M402.529 273.861C418.053 348.016 419.795 417.785 410.08 470.631C405.222 497.055 397.505 519.222 387.234 535.589C376.964 551.953 364.168 562.482 349.15 565.723C334.133 568.964 318.225 564.63 302.288 553.922C286.349 543.212 270.419 526.148 255.396 504.015C225.351 459.75 198.995 395.294 183.471 321.139C167.947 246.983 166.205 177.215 175.92 124.369C180.778 97.9449 188.496 75.7775 198.766 59.4112C209.036 43.0466 221.833 32.5176 236.85 29.2766C251.867 26.0356 267.775 30.3694 283.712 41.078C299.651 51.7878 315.582 68.8514 330.605 90.9849C360.649 135.25 387.006 199.706 402.529 273.861Z" stroke="url(#paint87_linear_109_468)"/>
<path d="M402.919 275.806C417.166 350.225 417.708 420.014 407.086 472.679C401.775 499.013 393.677 521.04 383.127 537.222C372.578 553.402 359.602 563.703 344.531 566.677C329.461 569.652 313.63 565.037 297.879 554.047C282.127 543.057 266.492 525.713 251.852 503.317C222.573 458.527 197.328 393.613 183.081 319.194C168.834 244.775 168.292 174.986 178.914 122.321C184.225 95.9868 192.323 73.9596 202.873 57.7777C213.422 41.5976 226.398 31.297 241.469 28.3226C256.539 25.3482 272.371 29.9632 288.121 40.9527C303.873 51.9433 319.508 69.2865 334.148 91.6829C363.427 136.473 388.672 201.387 402.919 275.806Z" stroke="url(#paint88_linear_109_468)"/>
<path d="M403.275 277.757C416.24 352.417 415.583 422.205 404.058 474.674C398.295 500.91 389.82 522.791 378.993 538.783C368.167 554.774 355.016 564.843 339.897 567.55C324.777 570.257 309.028 565.362 293.469 554.095C277.908 542.827 262.573 525.209 248.32 502.557C219.816 457.254 195.69 391.904 182.725 317.243C169.759 242.583 170.416 172.795 181.942 120.326C187.705 94.0901 196.18 72.2097 207.007 56.2172C217.833 40.2265 230.984 30.1575 246.103 27.4506C261.222 24.7437 276.972 29.6386 292.531 40.9054C308.092 52.1735 323.427 69.7912 337.68 92.4435C366.184 137.746 390.309 203.097 403.275 277.757Z" stroke="url(#paint89_linear_109_468)"/>
<path d="M403.597 279.714C415.278 354.593 413.421 424.358 400.996 476.615C394.782 502.745 385.933 524.472 374.832 540.27C363.733 556.067 350.411 565.901 335.248 568.34C320.084 570.778 304.421 565.605 289.058 554.064C273.693 542.522 258.664 524.635 244.803 501.734C217.081 455.933 194.083 390.165 182.403 315.286C170.722 240.407 172.579 170.642 185.005 118.385C191.218 92.2548 200.068 70.5279 211.168 54.7298C222.267 38.9333 235.589 29.0989 250.752 26.6603C265.916 24.2218 281.579 29.395 296.942 40.9358C312.307 52.4779 327.336 70.3647 341.197 93.2662C368.919 139.067 391.917 204.835 403.597 279.714Z" stroke="url(#paint90_linear_109_468)"/>
<path d="M403.886 281.677C414.278 356.751 411.223 426.473 397.9 478.502C391.239 504.518 382.017 526.085 370.647 541.684C359.278 557.281 345.789 566.878 330.586 569.047C315.383 571.217 299.812 565.767 284.649 553.955C269.485 542.143 254.765 523.992 241.3 500.849C214.369 454.564 192.505 388.398 182.114 313.324C171.722 238.249 174.778 168.527 188.1 116.498C194.761 90.4827 203.983 68.9159 215.353 53.3169C226.722 37.7195 240.211 28.1227 255.414 25.9532C270.617 23.7837 286.189 29.2337 301.351 41.045C316.515 52.8576 331.235 71.008 344.701 94.1516C371.631 140.437 393.495 206.603 403.886 281.677Z" stroke="url(#paint91_linear_109_468)"/>
<path d="M404.141 283.644C413.241 358.891 408.987 428.548 394.773 480.333C387.666 506.227 378.074 527.627 366.438 543.022C354.803 558.416 341.151 567.772 325.913 569.672C310.675 571.571 295.199 565.846 280.242 553.768C265.283 541.689 250.878 523.28 237.812 499.901C211.682 453.146 190.958 386.603 181.859 311.356C172.759 236.109 177.012 166.452 191.227 114.667C198.334 88.773 207.925 67.3729 219.562 51.9778C231.197 36.5842 244.849 27.2279 260.087 25.3282C275.325 23.4284 290.8 29.1534 305.758 41.2317C320.717 53.3112 335.122 71.7197 348.188 95.0984C374.318 141.854 395.042 208.397 404.141 283.644Z" stroke="url(#paint92_linear_109_468)"/>
<path d="M404.363 285.616C412.167 361.012 406.717 430.584 391.615 482.109C384.064 507.873 374.106 529.1 362.207 544.286C350.309 559.471 336.498 568.584 321.23 570.214C305.962 571.843 290.587 565.845 275.839 553.503C261.09 541.16 247.004 522.5 234.342 498.893C209.019 451.682 189.442 384.781 181.638 309.385C173.833 233.988 179.283 164.417 194.385 112.891C201.937 87.1274 211.894 65.9006 223.793 50.7139C235.691 35.5289 249.502 26.416 264.77 24.7866C280.039 23.1572 295.413 29.1555 310.161 41.497C324.91 53.8397 338.996 72.5006 351.658 96.1073C376.981 143.318 396.558 210.219 404.363 285.616Z" stroke="url(#paint93_linear_109_468)"/>
<path d="M404.55 287.591C411.057 363.115 404.413 432.579 388.427 483.829C380.434 509.455 370.113 530.502 357.954 545.475C345.797 560.447 331.832 569.314 316.538 570.673C301.244 572.031 285.975 565.761 271.442 553.161C256.907 540.558 243.144 521.651 230.889 497.823C206.382 450.17 187.958 382.933 181.45 307.41C174.943 231.886 181.588 162.422 197.573 111.172C205.566 85.5461 215.887 64.4989 228.046 49.5255C240.203 34.5536 254.168 25.6868 269.462 24.3282C284.756 22.9696 300.025 29.2394 314.558 41.8403C329.093 54.4426 342.857 73.3503 355.111 97.1778C379.619 144.83 398.042 212.068 404.55 287.591Z" stroke="url(#paint94_linear_109_468)"/>
<path d="M404.703 289.569C409.912 365.197 402.074 434.533 385.21 485.491C376.777 510.972 366.096 531.833 353.682 546.589C341.269 561.343 327.154 569.961 311.839 571.048C296.524 572.136 281.365 565.596 267.051 552.74C252.735 539.882 239.298 520.733 227.455 496.692C203.771 448.612 186.505 381.059 181.297 305.432C176.088 229.804 183.926 160.468 200.79 109.51C209.223 84.0291 219.904 63.168 232.318 48.4123C244.731 33.6581 258.846 25.0401 274.161 23.9527C289.476 22.8654 304.635 29.4048 318.949 42.2614C333.265 55.1193 346.702 74.268 358.545 98.309C382.23 146.389 399.495 213.942 404.703 289.569Z" stroke="url(#paint95_linear_109_468)"/>
<path d="M404.822 291.55C408.73 367.258 399.702 436.444 381.964 487.096C373.095 512.424 362.057 533.092 349.391 547.626C336.727 562.158 322.466 570.524 307.134 571.34C291.803 572.156 276.759 565.349 262.667 552.24C248.575 539.131 235.47 519.747 224.042 495.5C201.187 447.008 185.085 379.159 181.178 303.45C177.27 227.742 186.298 158.556 204.036 107.904C212.905 82.5765 223.943 61.9079 236.609 47.3744C249.273 32.8425 263.535 24.4759 278.866 23.6601C294.197 22.8443 309.242 29.6514 323.333 42.7596C337.425 55.8692 350.531 75.2531 361.959 99.5003C384.813 147.992 400.915 215.841 404.822 291.55Z" stroke="url(#paint96_linear_109_468)"/>
<path d="M404.908 293.532C407.513 369.298 397.297 438.314 378.692 488.644C369.389 513.81 357.997 534.28 345.083 548.587C332.171 562.892 317.768 571.005 302.425 571.549C287.082 572.093 272.157 565.02 258.293 551.664C244.428 538.307 231.658 518.694 220.649 494.247C198.631 445.358 183.698 377.234 181.092 301.468C178.486 225.702 188.703 156.686 207.308 106.356C216.611 81.1897 228.003 60.7199 240.916 46.413C253.829 32.1077 268.232 23.9951 283.575 23.4511C298.918 22.9071 313.843 29.9798 327.706 43.3357C341.572 56.693 354.342 76.3062 365.351 100.752C387.369 149.642 402.302 217.766 404.908 293.532Z" stroke="url(#paint97_linear_109_468)"/>
<path d="M404.959 295.516C406.262 371.316 394.861 440.14 375.393 490.133C365.659 515.131 353.917 535.395 340.76 549.471C327.603 563.546 313.063 571.402 297.713 571.674C282.363 571.946 267.562 564.61 253.93 551.01C240.297 537.409 227.866 517.573 217.278 492.935C196.104 443.663 182.344 375.285 181.041 299.484C179.738 223.683 191.139 154.859 210.607 104.867C220.341 79.869 232.083 59.6041 245.24 45.5282C258.396 31.4539 272.937 23.5978 288.287 23.3258C303.637 23.0537 318.438 30.3898 332.07 43.9893C345.703 57.5904 358.134 77.4268 368.722 102.064C389.896 151.337 403.656 219.715 404.959 295.516Z" stroke="url(#paint98_linear_109_468)"/>
<path d="M404.976 297.5C404.976 373.312 392.394 441.924 372.07 491.564C361.907 516.385 349.819 536.439 336.421 550.279C323.025 564.118 308.352 571.716 293 571.716C277.648 571.716 262.975 564.118 249.579 550.279C236.181 536.439 224.093 516.385 213.93 491.564C193.606 441.924 181.024 373.312 181.024 297.5C181.024 221.688 193.606 153.076 213.93 103.436C224.093 78.6147 236.181 58.5609 249.579 44.7204C262.975 30.8814 277.648 23.2841 293 23.2841C308.352 23.2841 323.025 30.8814 336.421 44.7204C349.819 58.5609 361.907 78.6147 372.07 103.436C392.394 153.076 404.976 221.688 404.976 297.5Z" stroke="url(#paint99_linear_109_468)"/>
</g>
<defs>
<filter id="filter0_d_109_468" x="18.4395" y="22.7841" width="549.121" height="557.432" filterUnits="userSpaceOnUse" color-interpolation-filters="sRGB">
<feFlood flood-opacity="0" result="BackgroundImageFix"/>
<feColorMatrix in="SourceAlpha" type="matrix" values="0 0 0 0 0 0 0 0 0 0 0 0 0 0 0 0 0 0 127 0" result="hardAlpha"/>
<feOffset dy="4"/>
<feGaussianBlur stdDeviation="2"/>
<feComposite in2="hardAlpha" operator="out"/>
<feColorMatrix type="matrix" values="0 0 0 0 0 0 0 0 0 0 0 0 0 0 0 0 0 0 0.25 0"/>
<feBlend mode="normal" in2="BackgroundImageFix" result="effect1_dropShadow_109_468"/>
<feBlend mode="normal" in="SourceGraphic" in2="effect1_dropShadow_109_468" result="shape"/>
</filter>
<linearGradient id="paint0_linear_109_468" x1="303.82" y1="363.227" x2="282.259" y2="229.157" gradientUnits="userSpaceOnUse">
<stop stop-color="#FF5B79"/>
<stop offset="1" stop-color="#00F0FF"/>
</linearGradient>
<linearGradient id="paint1_linear_109_468" x1="302.688" y1="363.409" x2="283.504" y2="228.968" gradientUnits="userSpaceOnUse">
<stop stop-color="#FF5B79"/>
<stop offset="1" stop-color="#00F0FF"/>
</linearGradient>
<linearGradient id="paint2_linear_109_468" x1="301.554" y1="363.571" x2="284.752" y2="228.801" gradientUnits="userSpaceOnUse">
<stop stop-color="#FF5B79"/>
<stop offset="1" stop-color="#00F0FF"/>
</linearGradient>
<linearGradient id="paint3_linear_109_468" x1="300.417" y1="363.712" x2="286.004" y2="228.658" gradientUnits="userSpaceOnUse">
<stop stop-color="#FF5B79"/>
<stop offset="1" stop-color="#00F0FF"/>
</linearGradient>
<linearGradient id="paint4_linear_109_468" x1="299.278" y1="363.834" x2="287.259" y2="228.538" gradientUnits="userSpaceOnUse">
<stop stop-color="#FF5B79"/>
<stop offset="1" stop-color="#00F0FF"/>
</linearGradient>
<linearGradient id="paint5_linear_109_468" x1="298.137" y1="363.935" x2="288.517" y2="228.442" gradientUnits="userSpaceOnUse">
<stop stop-color="#FF5B79"/>
<stop offset="1" stop-color="#00F0FF"/>
</linearGradient>
<linearGradient id="paint6_linear_109_468" x1="296.994" y1="364.015" x2="289.776" y2="228.369" gradientUnits="userSpaceOnUse">
<stop stop-color="#FF5B79"/>
<stop offset="1" stop-color="#00F0FF"/>
</linearGradient>
<linearGradient id="paint7_linear_109_468" x1="295.85" y1="364.076" x2="291.036" y2="228.32" gradientUnits="userSpaceOnUse">
<stop stop-color="#FF5B79"/>
<stop offset="1" stop-color="#00F0FF"/>
</linearGradient>
<linearGradient id="paint8_linear_109_468" x1="294.706" y1="364.116" x2="292.298" y2="228.294" gradientUnits="userSpaceOnUse">
<stop stop-color="#FF5B79"/>
<stop offset="1" stop-color="#00F0FF"/>
</linearGradient>
<linearGradient id="paint9_linear_109_468" x1="293.56" y1="364.137" x2="293.56" y2="228.292" gradientUnits="userSpaceOnUse">
<stop stop-color="#FF5B79"/>
<stop offset="1" stop-color="#00F0FF"/>
</linearGradient>
<linearGradient id="paint10_linear_109_468" x1="292.415" y1="364.136" x2="294.822" y2="228.314" gradientUnits="userSpaceOnUse">
<stop stop-color="#FF5B79"/>
<stop offset="1" stop-color="#00F0FF"/>
</linearGradient>
<linearGradient id="paint11_linear_109_468" x1="291.269" y1="364.116" x2="296.083" y2="228.359" gradientUnits="userSpaceOnUse">
<stop stop-color="#FF5B79"/>
<stop offset="1" stop-color="#00F0FF"/>
</linearGradient>
<linearGradient id="paint12_linear_109_468" x1="290.125" y1="364.075" x2="297.343" y2="228.428" gradientUnits="userSpaceOnUse">
<stop stop-color="#FF5B79"/>
<stop offset="1" stop-color="#00F0FF"/>
</linearGradient>
<linearGradient id="paint13_linear_109_468" x1="288.981" y1="364.013" x2="298.601" y2="228.521" gradientUnits="userSpaceOnUse">
<stop stop-color="#FF5B79"/>
<stop offset="1" stop-color="#00F0FF"/>
</linearGradient>
<linearGradient id="paint14_linear_109_468" x1="287.838" y1="363.932" x2="299.857" y2="228.637" gradientUnits="userSpaceOnUse">
<stop stop-color="#FF5B79"/>
<stop offset="1" stop-color="#00F0FF"/>
</linearGradient>
<linearGradient id="paint15_linear_109_468" x1="286.697" y1="363.831" x2="301.11" y2="228.777" gradientUnits="userSpaceOnUse">
<stop stop-color="#FF5B79"/>
<stop offset="1" stop-color="#00F0FF"/>
</linearGradient>
<linearGradient id="paint16_linear_109_468" x1="285.558" y1="363.709" x2="302.36" y2="228.939" gradientUnits="userSpaceOnUse">
<stop stop-color="#FF5B79"/>
<stop offset="1" stop-color="#00F0FF"/>
</linearGradient>
<linearGradient id="paint17_linear_109_468" x1="284.421" y1="363.567" x2="303.606" y2="229.126" gradientUnits="userSpaceOnUse">
<stop stop-color="#FF5B79"/>
<stop offset="1" stop-color="#00F0FF"/>
</linearGradient>
<linearGradient id="paint18_linear_109_468" x1="283.287" y1="363.405" x2="304.847" y2="229.335" gradientUnits="userSpaceOnUse">
<stop stop-color="#FF5B79"/>
<stop offset="1" stop-color="#00F0FF"/>
</linearGradient>
<linearGradient id="paint19_linear_109_468" x1="282.155" y1="363.223" x2="306.084" y2="229.567" gradientUnits="userSpaceOnUse">
<stop stop-color="#FF5B79"/>
<stop offset="1" stop-color="#00F0FF"/>
</linearGradient>
<linearGradient id="paint20_linear_109_468" x1="281.027" y1="363.021" x2="307.316" y2="229.823" gradientUnits="userSpaceOnUse">
<stop stop-color="#FF5B79"/>
<stop offset="1" stop-color="#00F0FF"/>
</linearGradient>
<linearGradient id="paint21_linear_109_468" x1="279.903" y1="362.798" x2="308.542" y2="230.1" gradientUnits="userSpaceOnUse">
<stop stop-color="#FF5B79"/>
<stop offset="1" stop-color="#00F0FF"/>
</linearGradient>
<linearGradient id="paint22_linear_109_468" x1="278.783" y1="362.556" x2="309.762" y2="230.401" gradientUnits="userSpaceOnUse">
<stop stop-color="#FF5B79"/>
<stop offset="1" stop-color="#00F0FF"/>
</linearGradient>
<linearGradient id="paint23_linear_109_468" x1="277.667" y1="362.295" x2="310.975" y2="230.724" gradientUnits="userSpaceOnUse">
<stop stop-color="#FF5B79"/>
<stop offset="1" stop-color="#00F0FF"/>
</linearGradient>
<linearGradient id="paint24_linear_109_468" x1="276.555" y1="362.013" x2="312.18" y2="231.069" gradientUnits="userSpaceOnUse">
<stop stop-color="#FF5B79"/>
<stop offset="1" stop-color="#00F0FF"/>
</linearGradient>
<linearGradient id="paint25_linear_109_468" x1="275.449" y1="361.712" x2="313.378" y2="231.436" gradientUnits="userSpaceOnUse">
<stop stop-color="#FF5B79"/>
<stop offset="1" stop-color="#00F0FF"/>
</linearGradient>
<linearGradient id="paint26_linear_109_468" x1="274.348" y1="361.391" x2="314.568" y2="231.826" gradientUnits="userSpaceOnUse">
<stop stop-color="#FF5B79"/>
<stop offset="1" stop-color="#00F0FF"/>
</linearGradient>
<linearGradient id="paint27_linear_109_468" x1="273.252" y1="361.051" x2="315.75" y2="232.236" gradientUnits="userSpaceOnUse">
<stop stop-color="#FF5B79"/>
<stop offset="1" stop-color="#00F0FF"/>
</linearGradient>
<linearGradient id="paint28_linear_109_468" x1="272.163" y1="360.691" x2="316.922" y2="232.668" gradientUnits="userSpaceOnUse">
<stop stop-color="#FF5B79"/>
<stop offset="1" stop-color="#00F0FF"/>
</linearGradient>
<linearGradient id="paint29_linear_109_468" x1="271.08" y1="360.312" x2="318.085" y2="233.121" gradientUnits="userSpaceOnUse">
<stop stop-color="#FF5B79"/>
<stop offset="1" stop-color="#00F0FF"/>
</linearGradient>
<linearGradient id="paint30_linear_109_468" x1="270.004" y1="359.914" x2="319.238" y2="233.595" gradientUnits="userSpaceOnUse">
<stop stop-color="#FF5B79"/>
<stop offset="1" stop-color="#00F0FF"/>
</linearGradient>
<linearGradient id="paint31_linear_109_468" x1="268.935" y1="359.497" x2="320.381" y2="234.09" gradientUnits="userSpaceOnUse">
<stop stop-color="#FF5B79"/>
<stop offset="1" stop-color="#00F0FF"/>
</linearGradient>
<linearGradient id="paint32_linear_109_468" x1="267.873" y1="359.061" x2="321.513" y2="234.604" gradientUnits="userSpaceOnUse">
<stop stop-color="#FF5B79"/>
<stop offset="1" stop-color="#00F0FF"/>
</linearGradient>
<linearGradient id="paint33_linear_109_468" x1="266.818" y1="358.607" x2="322.634" y2="235.139" gradientUnits="userSpaceOnUse">
<stop stop-color="#FF5B79"/>
<stop offset="1" stop-color="#00F0FF"/>
</linearGradient>
<linearGradient id="paint34_linear_109_468" x1="265.772" y1="358.133" x2="323.743" y2="235.694" gradientUnits="userSpaceOnUse">
<stop stop-color="#FF5B79"/>
<stop offset="1" stop-color="#00F0FF"/>
</linearGradient>
<linearGradient id="paint35_linear_109_468" x1="264.734" y1="357.642" x2="324.841" y2="236.268" gradientUnits="userSpaceOnUse">
<stop stop-color="#FF5B79"/>
<stop offset="1" stop-color="#00F0FF"/>
</linearGradient>
<linearGradient id="paint36_linear_109_468" x1="263.704" y1="357.132" x2="325.927" y2="236.861" gradientUnits="userSpaceOnUse">
<stop stop-color="#FF5B79"/>
<stop offset="1" stop-color="#00F0FF"/>
</linearGradient>
<linearGradient id="paint37_linear_109_468" x1="262.684" y1="356.603" x2="327" y2="237.473" gradientUnits="userSpaceOnUse">
<stop stop-color="#FF5B79"/>
<stop offset="1" stop-color="#00F0FF"/>
</linearGradient>
<linearGradient id="paint38_linear_109_468" x1="261.672" y1="356.057" x2="328.059" y2="238.103" gradientUnits="userSpaceOnUse">
<stop stop-color="#FF5B79"/>
<stop offset="1" stop-color="#00F0FF"/>
</linearGradient>
<linearGradient id="paint39_linear_109_468" x1="260.671" y1="355.493" x2="329.107" y2="238.752" gradientUnits="userSpaceOnUse">
<stop stop-color="#FF5B79"/>
<stop offset="1" stop-color="#00F0FF"/>
</linearGradient>
<linearGradient id="paint40_linear_109_468" x1="259.679" y1="354.911" x2="330.14" y2="239.419" gradientUnits="userSpaceOnUse">
<stop stop-color="#FF5B79"/>
<stop offset="1" stop-color="#00F0FF"/>
</linearGradient>
<linearGradient id="paint41_linear_109_468" x1="258.697" y1="354.312" x2="331.159" y2="240.102" gradientUnits="userSpaceOnUse">
<stop stop-color="#FF5B79"/>
<stop offset="1" stop-color="#00F0FF"/>
</linearGradient>
<linearGradient id="paint42_linear_109_468" x1="257.726" y1="353.696" x2="332.165" y2="240.804" gradientUnits="userSpaceOnUse">
<stop stop-color="#FF5B79"/>
<stop offset="1" stop-color="#00F0FF"/>
</linearGradient>
<linearGradient id="paint43_linear_109_468" x1="256.765" y1="353.062" x2="333.156" y2="241.522" gradientUnits="userSpaceOnUse">
<stop stop-color="#FF5B79"/>
<stop offset="1" stop-color="#00F0FF"/>
</linearGradient>
<linearGradient id="paint44_linear_109_468" x1="255.816" y1="352.411" x2="334.132" y2="242.256" gradientUnits="userSpaceOnUse">
<stop stop-color="#FF5B79"/>
<stop offset="1" stop-color="#00F0FF"/>
</linearGradient>
<linearGradient id="paint45_linear_109_468" x1="254.878" y1="351.744" x2="335.093" y2="243.007" gradientUnits="userSpaceOnUse">
<stop stop-color="#FF5B79"/>
<stop offset="1" stop-color="#00F0FF"/>
</linearGradient>
<linearGradient id="paint46_linear_109_468" x1="253.951" y1="351.061" x2="336.039" y2="243.773" gradientUnits="userSpaceOnUse">
<stop stop-color="#FF5B79"/>
<stop offset="1" stop-color="#00F0FF"/>
</linearGradient>
<linearGradient id="paint47_linear_109_468" x1="253.036" y1="350.361" x2="336.97" y2="244.555" gradientUnits="userSpaceOnUse">
<stop stop-color="#FF5B79"/>
<stop offset="1" stop-color="#00F0FF"/>
</linearGradient>
<linearGradient id="paint48_linear_109_468" x1="252.134" y1="349.644" x2="337.885" y2="245.352" gradientUnits="userSpaceOnUse">
<stop stop-color="#FF5B79"/>
<stop offset="1" stop-color="#00F0FF"/>
</linearGradient>
<linearGradient id="paint49_linear_109_468" x1="251.244" y1="348.912" x2="338.784" y2="246.164" gradientUnits="userSpaceOnUse">
<stop stop-color="#FF5B79"/>
<stop offset="1" stop-color="#00F0FF"/>
</linearGradient>
<linearGradient id="paint50_linear_109_468" x1="250.367" y1="348.164" x2="339.667" y2="246.99" gradientUnits="userSpaceOnUse">
<stop stop-color="#FF5B79"/>
<stop offset="1" stop-color="#00F0FF"/>
</linearGradient>
<linearGradient id="paint51_linear_109_468" x1="249.502" y1="347.401" x2="340.534" y2="247.829" gradientUnits="userSpaceOnUse">
<stop stop-color="#FF5B79"/>
<stop offset="1" stop-color="#00F0FF"/>
</linearGradient>
<linearGradient id="paint52_linear_109_468" x1="248.651" y1="346.623" x2="341.384" y2="248.683" gradientUnits="userSpaceOnUse">
<stop stop-color="#FF5B79"/>
<stop offset="1" stop-color="#00F0FF"/>
</linearGradient>
<linearGradient id="paint53_linear_109_468" x1="247.813" y1="345.829" x2="342.218" y2="249.549" gradientUnits="userSpaceOnUse">
<stop stop-color="#FF5B79"/>
<stop offset="1" stop-color="#00F0FF"/>
</linearGradient>
<linearGradient id="paint54_linear_109_468" x1="246.99" y1="345.021" x2="343.035" y2="250.429" gradientUnits="userSpaceOnUse">
<stop stop-color="#FF5B79"/>
<stop offset="1" stop-color="#00F0FF"/>
</linearGradient>
<linearGradient id="paint55_linear_109_468" x1="246.18" y1="344.199" x2="343.835" y2="251.321" gradientUnits="userSpaceOnUse">
<stop stop-color="#FF5B79"/>
<stop offset="1" stop-color="#00F0FF"/>
</linearGradient>
<linearGradient id="paint56_linear_109_468" x1="245.385" y1="343.362" x2="344.618" y2="252.226" gradientUnits="userSpaceOnUse">
<stop stop-color="#FF5B79"/>
<stop offset="1" stop-color="#00F0FF"/>
</linearGradient>
<linearGradient id="paint57_linear_109_468" x1="244.603" y1="342.511" x2="345.383" y2="253.141" gradientUnits="userSpaceOnUse">
<stop stop-color="#FF5B79"/>
<stop offset="1" stop-color="#00F0FF"/>
</linearGradient>
<linearGradient id="paint58_linear_109_468" x1="243.837" y1="341.647" x2="346.131" y2="254.069" gradientUnits="userSpaceOnUse">
<stop stop-color="#FF5B79"/>
<stop offset="1" stop-color="#00F0FF"/>
</linearGradient>
<linearGradient id="paint59_linear_109_468" x1="243.086" y1="340.769" x2="346.862" y2="255.008" gradientUnits="userSpaceOnUse">
<stop stop-color="#FF5B79"/>
<stop offset="1" stop-color="#00F0FF"/>
</linearGradient>
<linearGradient id="paint60_linear_109_468" x1="242.349" y1="339.878" x2="347.574" y2="255.957" gradientUnits="userSpaceOnUse">
<stop stop-color="#FF5B79"/>
<stop offset="1" stop-color="#00F0FF"/>
</linearGradient>
<linearGradient id="paint61_linear_109_468" x1="241.629" y1="338.974" x2="348.27" y2="256.917" gradientUnits="userSpaceOnUse">
<stop stop-color="#FF5B79"/>
<stop offset="1" stop-color="#00F0FF"/>
</linearGradient>
<linearGradient id="paint62_linear_109_468" x1="240.924" y1="338.057" x2="348.947" y2="257.887" gradientUnits="userSpaceOnUse">
<stop stop-color="#FF5B79"/>
<stop offset="1" stop-color="#00F0FF"/>
</linearGradient>
<linearGradient id="paint63_linear_109_468" x1="240.235" y1="337.128" x2="349.607" y2="258.867" gradientUnits="userSpaceOnUse">
<stop stop-color="#FF5B79"/>
<stop offset="1" stop-color="#00F0FF"/>
</linearGradient>
<linearGradient id="paint64_linear_109_468" x1="239.562" y1="336.187" x2="350.249" y2="259.856" gradientUnits="userSpaceOnUse">
<stop stop-color="#FF5B79"/>
<stop offset="1" stop-color="#00F0FF"/>
</linearGradient>
<linearGradient id="paint65_linear_109_468" x1="238.905" y1="335.234" x2="350.872" y2="260.854" gradientUnits="userSpaceOnUse">
<stop stop-color="#FF5B79"/>
<stop offset="1" stop-color="#00F0FF"/>
</linearGradient>
<linearGradient id="paint66_linear_109_468" x1="238.264" y1="334.27" x2="351.478" y2="261.86" gradientUnits="userSpaceOnUse">
<stop stop-color="#FF5B79"/>
<stop offset="1" stop-color="#00F0FF"/>
</linearGradient>
<linearGradient id="paint67_linear_109_468" x1="237.641" y1="333.294" x2="352.065" y2="262.875" gradientUnits="userSpaceOnUse">
<stop stop-color="#FF5B79"/>
<stop offset="1" stop-color="#00F0FF"/>
</linearGradient>
<linearGradient id="paint68_linear_109_468" x1="237.034" y1="332.308" x2="352.634" y2="263.899" gradientUnits="userSpaceOnUse">
<stop stop-color="#FF5B79"/>
<stop offset="1" stop-color="#00F0FF"/>
</linearGradient>
<linearGradient id="paint69_linear_109_468" x1="236.444" y1="331.311" x2="353.185" y2="264.93" gradientUnits="userSpaceOnUse">
<stop stop-color="#FF5B79"/>
<stop offset="1" stop-color="#00F0FF"/>
</linearGradient>
<linearGradient id="paint70_linear_109_468" x1="235.872" y1="330.303" x2="353.718" y2="265.968" gradientUnits="userSpaceOnUse">
<stop stop-color="#FF5B79"/>
<stop offset="1" stop-color="#00F0FF"/>
</linearGradient>
<linearGradient id="paint71_linear_109_468" x1="235.316" y1="329.286" x2="354.232" y2="267.014" gradientUnits="userSpaceOnUse">
<stop stop-color="#FF5B79"/>
<stop offset="1" stop-color="#00F0FF"/>
</linearGradient>
<linearGradient id="paint72_linear_109_468" x1="234.779" y1="328.259" x2="354.728" y2="268.066" gradientUnits="userSpaceOnUse">
<stop stop-color="#FF5B79"/>
<stop offset="1" stop-color="#00F0FF"/>
</linearGradient>
<linearGradient id="paint73_linear_109_468" x1="234.259" y1="327.223" x2="355.206" y2="269.125" gradientUnits="userSpaceOnUse">
<stop stop-color="#FF5B79"/>
<stop offset="1" stop-color="#00F0FF"/>
</linearGradient>
<linearGradient id="paint74_linear_109_468" x1="233.757" y1="326.177" x2="355.665" y2="270.19" gradientUnits="userSpaceOnUse">
<stop stop-color="#FF5B79"/>
<stop offset="1" stop-color="#00F0FF"/>
</linearGradient>
<linearGradient id="paint75_linear_109_468" x1="233.273" y1="325.123" x2="356.106" y2="271.262" gradientUnits="userSpaceOnUse">
<stop stop-color="#FF5B79"/>
<stop offset="1" stop-color="#00F0FF"/>
</linearGradient>
<linearGradient id="paint76_linear_109_468" x1="232.807" y1="324.06" x2="356.528" y2="272.338" gradientUnits="userSpaceOnUse">
<stop stop-color="#FF5B79"/>
<stop offset="1" stop-color="#00F0FF"/>
</linearGradient>
<linearGradient id="paint77_linear_109_468" x1="232.36" y1="322.99" x2="356.932" y2="273.421" gradientUnits="userSpaceOnUse">
<stop stop-color="#FF5B79"/>
<stop offset="1" stop-color="#00F0FF"/>
</linearGradient>
<linearGradient id="paint78_linear_109_468" x1="231.931" y1="321.911" x2="357.318" y2="274.508" gradientUnits="userSpaceOnUse">
<stop stop-color="#FF5B79"/>
<stop offset="1" stop-color="#00F0FF"/>
</linearGradient>
<linearGradient id="paint79_linear_109_468" x1="231.521" y1="320.826" x2="357.685" y2="275.601" gradientUnits="userSpaceOnUse">
<stop stop-color="#FF5B79"/>
<stop offset="1" stop-color="#00F0FF"/>
</linearGradient>
<linearGradient id="paint80_linear_109_468" x1="231.129" y1="319.733" x2="358.034" y2="276.697" gradientUnits="userSpaceOnUse">
<stop stop-color="#FF5B79"/>
<stop offset="1" stop-color="#00F0FF"/>
</linearGradient>
<linearGradient id="paint81_linear_109_468" x1="230.757" y1="318.633" x2="358.364" y2="277.798" gradientUnits="userSpaceOnUse">
<stop stop-color="#FF5B79"/>
<stop offset="1" stop-color="#00F0FF"/>
</linearGradient>
<linearGradient id="paint82_linear_109_468" x1="230.403" y1="317.527" x2="358.676" y2="278.903" gradientUnits="userSpaceOnUse">
<stop stop-color="#FF5B79"/>
<stop offset="1" stop-color="#00F0FF"/>
</linearGradient>
<linearGradient id="paint83_linear_109_468" x1="230.068" y1="316.414" x2="358.969" y2="280.012" gradientUnits="userSpaceOnUse">
<stop stop-color="#FF5B79"/>
<stop offset="1" stop-color="#00F0FF"/>
</linearGradient>
<linearGradient id="paint84_linear_109_468" x1="229.753" y1="315.296" x2="359.244" y2="281.124" gradientUnits="userSpaceOnUse">
<stop stop-color="#FF5B79"/>
<stop offset="1" stop-color="#00F0FF"/>
</linearGradient>
<linearGradient id="paint85_linear_109_468" x1="229.456" y1="314.173" x2="359.5" y2="282.24" gradientUnits="userSpaceOnUse">
<stop stop-color="#FF5B79"/>
<stop offset="1" stop-color="#00F0FF"/>
</linearGradient>
<linearGradient id="paint86_linear_109_468" x1="229.179" y1="313.044" x2="359.738" y2="283.358" gradientUnits="userSpaceOnUse">
<stop stop-color="#FF5B79"/>
<stop offset="1" stop-color="#00F0FF"/>
</linearGradient>
<linearGradient id="paint87_linear_109_468" x1="228.922" y1="311.911" x2="359.958" y2="284.479" gradientUnits="userSpaceOnUse">
<stop stop-color="#FF5B79"/>
<stop offset="1" stop-color="#00F0FF"/>
</linearGradient>
<linearGradient id="paint88_linear_109_468" x1="228.684" y1="310.773" x2="360.159" y2="285.604" gradientUnits="userSpaceOnUse">
<stop stop-color="#FF5B79"/>
<stop offset="1" stop-color="#00F0FF"/>
</linearGradient>
<linearGradient id="paint89_linear_109_468" x1="228.466" y1="309.632" x2="360.342" y2="286.73" gradientUnits="userSpaceOnUse">
<stop stop-color="#FF5B79"/>
<stop offset="1" stop-color="#00F0FF"/>
</linearGradient>
<linearGradient id="paint90_linear_109_468" x1="228.267" y1="308.486" x2="360.506" y2="287.858" gradientUnits="userSpaceOnUse">
<stop stop-color="#FF5B79"/>
<stop offset="1" stop-color="#00F0FF"/>
</linearGradient>
<linearGradient id="paint91_linear_109_468" x1="228.088" y1="307.337" x2="360.653" y2="288.989" gradientUnits="userSpaceOnUse">
<stop stop-color="#FF5B79"/>
<stop offset="1" stop-color="#00F0FF"/>
</linearGradient>
<linearGradient id="paint92_linear_109_468" x1="227.929" y1="306.185" x2="360.78" y2="290.12" gradientUnits="userSpaceOnUse">
<stop stop-color="#FF5B79"/>
<stop offset="1" stop-color="#00F0FF"/>
</linearGradient>
<linearGradient id="paint93_linear_109_468" x1="227.79" y1="305.031" x2="360.89" y2="291.253" gradientUnits="userSpaceOnUse">
<stop stop-color="#FF5B79"/>
<stop offset="1" stop-color="#00F0FF"/>
</linearGradient>
<linearGradient id="paint94_linear_109_468" x1="227.67" y1="303.875" x2="360.981" y2="292.388" gradientUnits="userSpaceOnUse">
<stop stop-color="#FF5B79"/>
<stop offset="1" stop-color="#00F0FF"/>
</linearGradient>
<linearGradient id="paint95_linear_109_468" x1="227.57" y1="302.716" x2="361.053" y2="293.523" gradientUnits="userSpaceOnUse">
<stop stop-color="#FF5B79"/>
<stop offset="1" stop-color="#00F0FF"/>
</linearGradient>
<linearGradient id="paint96_linear_109_468" x1="227.491" y1="301.556" x2="361.108" y2="294.659" gradientUnits="userSpaceOnUse">
<stop stop-color="#FF5B79"/>
<stop offset="1" stop-color="#00F0FF"/>
</linearGradient>
<linearGradient id="paint97_linear_109_468" x1="227.431" y1="300.394" x2="361.144" y2="295.795" gradientUnits="userSpaceOnUse">
<stop stop-color="#FF5B79"/>
<stop offset="1" stop-color="#00F0FF"/>
</linearGradient>
<linearGradient id="paint98_linear_109_468" x1="227.391" y1="299.231" x2="361.161" y2="296.932" gradientUnits="userSpaceOnUse">
<stop stop-color="#FF5B79"/>
<stop offset="1" stop-color="#00F0FF"/>
</linearGradient>
<linearGradient id="paint99_linear_109_468" x1="227.372" y1="298.069" x2="361.161" y2="298.069" gradientUnits="userSpaceOnUse">
<stop stop-color="#FF5B79"/>
<stop offset="1" stop-color="#00F0FF"/>
</linearGradient>
</defs>
</svg>
