<svg width="442" height="609" viewBox="0 0 442 609" fill="none" xmlns="http://www.w3.org/2000/svg">
<g opacity="0.25" filter="url(#filter0_f_44_229)">
<path d="M51.1613 93.2879C32.0871 101.595 -9.46844 128.771 -23.0972 171.016L-72.7394 352.429" stroke="white" stroke-linecap="round"/>
<path d="M51.1613 93.2879C32.0871 101.595 -9.46844 128.771 -23.0972 171.016L-72.7394 352.429" stroke="url(#paint0_linear_44_229)" stroke-linecap="round"/>
<path d="M58.7374 91.6017C39.6776 98.7797 -2.40178 123.342 -18.2413 164.168L-77.6205 339.949" stroke="white" stroke-linecap="round"/>
<path d="M58.7374 91.6017C39.6776 98.7797 -2.40178 123.342 -18.2413 164.168L-77.6205 339.949" stroke="url(#paint1_linear_44_229)" stroke-linecap="round"/>
<path d="M65.8472 90.1255C46.8801 96.2046 4.46603 118.193 -13.4532 157.512L-82.0354 327.259" stroke="white" stroke-linecap="round"/>
<path d="M65.8472 90.1255C46.8801 96.2046 4.46603 118.193 -13.4532 157.512L-82.0354 327.259" stroke="url(#paint2_linear_44_229)" stroke-linecap="round"/>
<path d="M72.4849 88.8288C53.6849 93.844 11.1187 113.308 -8.7455 151.042L-85.978 314.39" stroke="white" stroke-linecap="round"/>
<path d="M72.4849 88.8288C53.6849 93.844 11.1187 113.308 -8.7455 151.042L-85.978 314.39" stroke="url(#paint3_linear_44_229)" stroke-linecap="round"/>
<path d="M158.752 77.7644C132.761 76.5975 17.8909 91.8086 -4.13026 144.75L-89.4448 301.372" stroke="white" stroke-linecap="round"/>
<path d="M158.752 77.7644C132.761 76.5975 17.8909 91.8086 -4.13026 144.75L-89.4448 301.372" stroke="url(#paint4_linear_44_229)" stroke-linecap="round"/>
<path d="M160.783 77.1286C140.628 79.8609 21.8731 92.3515 0.381055 138.629L-92.4341 288.236" stroke="white" stroke-linecap="round"/>
<path d="M160.783 77.1286C140.628 79.8609 21.8731 92.3515 0.381055 138.629L-92.4341 288.236" stroke="url(#paint5_linear_44_229)" stroke-linecap="round"/>
<path d="M158.703 78.8536C139.91 78.0099 28.2382 93.3646 4.77785 132.67L-94.9469 275.011" stroke="white" stroke-linecap="round"/>
<path d="M158.703 78.8536C139.91 78.0099 28.2382 93.3646 4.77785 132.67L-94.9469 275.011" stroke="url(#paint6_linear_44_229)" stroke-linecap="round"/>
<path d="M159.584 77.0745C142.112 78.2579 35.2955 96.0735 9.04993 126.864L-96.9862 261.728" stroke="white" stroke-linecap="round"/>
<path d="M159.584 77.0745C142.112 78.2579 35.2955 96.0735 9.04993 126.864L-96.9862 261.728" stroke="url(#paint7_linear_44_229)" stroke-linecap="round"/>
<path d="M161.518 78.6162C144.52 78.9638 40.6726 92.2529 13.1882 121.202L-98.5571 248.415" stroke="white" stroke-linecap="round"/>
<path d="M161.518 78.6162C144.52 78.9638 40.6726 92.2529 13.1882 121.202L-98.5571 248.415" stroke="url(#paint8_linear_44_229)" stroke-linecap="round"/>
<path d="M161.648 75.7125C145.17 75.2783 45.7646 88.5907 17.1841 115.674L-99.6666 235.099" stroke="white" stroke-linecap="round"/>
<path d="M161.648 75.7125C145.17 75.2783 45.7646 88.5907 17.1841 115.674L-99.6666 235.099" stroke="url(#paint9_linear_44_229)" stroke-linecap="round"/>
<path d="M160.8 76.7654C144.884 75.6053 50.5643 85.0672 21.0298 110.269L-100.324 221.809" stroke="white" stroke-linecap="round"/>
<path d="M160.8 76.7654C144.884 75.6053 50.5643 85.0672 21.0298 110.269L-100.324 221.809" stroke="url(#paint10_linear_44_229)" stroke-linecap="round"/>
<path d="M-103.84 270.031C-101.673 289.224 -87.5673 334.241 -48.4872 360.766L122.327 467.101" stroke="white" stroke-linecap="round"/>
<path d="M-103.84 270.031C-101.673 289.224 -87.5673 334.241 -48.4872 360.766L122.327 467.101" stroke="url(#paint11_linear_44_229)" stroke-linecap="round"/>
<path d="M-103.033 262.978C-102.028 281.76 -90.8006 326.301 -53.9312 354.21L107.784 466.859" stroke="white" stroke-linecap="round"/>
<path d="M-103.033 262.978C-102.028 281.76 -90.8006 326.301 -53.9312 354.21L107.784 466.859" stroke="url(#paint12_linear_44_229)" stroke-linecap="round"/>
<path d="M-102.166 256.395C-102.266 274.711 -93.8122 318.629 -59.1999 347.78L93.1811 466.145" stroke="white" stroke-linecap="round"/>
<path d="M-102.166 256.395C-102.266 274.711 -93.8122 318.629 -59.1999 347.78L93.1811 466.145" stroke="url(#paint13_linear_44_229)" stroke-linecap="round"/>
<path d="M-101.273 250.279C-102.416 268.076 -96.6228 311.233 -64.3034 341.483L78.5518 464.965" stroke="white" stroke-linecap="round"/>
<path d="M-101.273 250.279C-102.416 268.076 -96.6228 311.233 -64.3034 341.483L78.5518 464.965" stroke="url(#paint14_linear_44_229)" stroke-linecap="round"/>
<path d="M-100.386 244.621C-102.509 261.854 -99.2545 304.122 -69.2536 335.329L63.929 463.327" stroke="white" stroke-linecap="round"/>
<path d="M-100.386 244.621C-102.509 261.854 -99.2545 304.122 -69.2536 335.329L63.929 463.327" stroke="url(#paint15_linear_44_229)" stroke-linecap="round"/>
<path d="M-99.5376 239.411C-102.574 256.039 -101.73 297.3 -74.063 329.322L49.3442 461.24" stroke="white" stroke-linecap="round"/>
<path d="M-99.5376 239.411C-102.574 256.039 -101.73 297.3 -74.063 329.322L49.3442 461.24" stroke="url(#paint16_linear_44_229)" stroke-linecap="round"/>
<path d="M-98.7581 234.639C-102.64 250.625 -104.071 290.771 -78.7428 323.471L34.829 458.716" stroke="white" stroke-linecap="round"/>
<path d="M-98.7581 234.639C-102.64 250.625 -104.071 290.771 -78.7428 323.471L34.829 458.716" stroke="url(#paint17_linear_44_229)" stroke-linecap="round"/>
<path d="M-98.0774 230.291C-102.734 245.604 -106.3 284.54 -83.3064 317.78L20.412 455.768" stroke="white" stroke-linecap="round"/>
<path d="M-98.0774 230.291C-102.734 245.604 -106.3 284.54 -83.3064 317.78L20.412 455.768" stroke="url(#paint18_linear_44_229)" stroke-linecap="round"/>
<path d="M-97.5231 226.354C-102.885 240.968 -108.44 278.608 -87.7665 312.254L6.12148 452.409" stroke="white" stroke-linecap="round"/>
<path d="M-97.5231 226.354C-102.885 240.968 -108.44 278.608 -87.7665 312.254L6.12148 452.409" stroke="url(#paint19_linear_44_229)" stroke-linecap="round"/>
<path d="M-97.1217 222.81C-103.116 236.705 -110.512 272.975 -92.1359 306.897L-8.01579 448.656" stroke="white" stroke-linecap="round"/>
<path d="M-97.1217 222.81C-103.116 236.705 -110.512 272.975 -92.1359 306.897L-8.01579 448.656" stroke="url(#paint20_linear_44_229)" stroke-linecap="round"/>
<path d="M-96.8984 219.643C-103.454 232.802 -112.538 267.639 -96.4281 301.711L-21.9751 444.527" stroke="white" stroke-linecap="round"/>
<path d="M-96.8984 219.643C-103.454 232.802 -112.538 267.639 -96.4281 301.711L-21.9751 444.527" stroke="url(#paint21_linear_44_229)" stroke-linecap="round"/>
<path d="M18.3121 464.745C38.7369 470.154 89.9003 475.225 131.155 452.242L288.443 357.105" stroke="white" stroke-linecap="round"/>
<path d="M18.3121 464.745C38.7369 470.154 89.9003 475.225 131.155 452.242L288.443 357.105" stroke="url(#paint22_linear_44_229)" stroke-linecap="round"/>
<path d="M11.3845 461.404C30.9693 467.639 80.6069 474.96 122.48 454.364L288.052 365.817" stroke="white" stroke-linecap="round"/>
<path d="M11.3845 461.404C30.9693 467.639 80.6069 474.96 122.48 454.364L288.052 365.817" stroke="url(#paint23_linear_44_229)" stroke-linecap="round"/>
<path d="M4.96084 458.19C23.6691 465.181 71.6678 474.608 113.996 456.386L290.143 372.403" stroke="white" stroke-linecap="round"/>
<path d="M4.96084 458.19C23.6691 465.181 71.6678 474.608 113.996 456.386L290.143 372.403" stroke="url(#paint24_linear_44_229)" stroke-linecap="round"/>
<path d="M-0.976319 455.129C16.8252 462.806 63.0846 474.191 105.71 458.319L283.655 384.306" stroke="white" stroke-linecap="round"/>
<path d="M-0.976319 455.129C16.8252 462.806 63.0846 474.191 105.71 458.319L283.655 384.306" stroke="url(#paint25_linear_44_229)" stroke-linecap="round"/>
<path d="M-6.44693 452.246C10.4235 460.537 54.8564 473.731 97.6242 460.177L276.7 396.032" stroke="white" stroke-linecap="round"/>
<path d="M-6.44693 452.246C10.4235 460.537 54.8564 473.731 97.6242 460.177L276.7 396.032" stroke="url(#paint26_linear_44_229)" stroke-linecap="round"/>
<path d="M-11.4725 449.566C4.44859 458.4 46.9808 473.248 89.7413 461.971L269.299 407.556" stroke="white" stroke-linecap="round"/>
<path d="M-11.4725 449.566C4.44859 458.4 46.9808 473.248 89.7413 461.971L269.299 407.556" stroke="url(#paint27_linear_44_229)" stroke-linecap="round"/>
<path d="M-16.0749 447.108C-1.1157 456.414 39.4549 472.762 82.0638 463.715L261.476 418.856" stroke="white" stroke-linecap="round"/>
<path d="M-16.0749 447.108C-1.1157 456.414 39.4549 472.762 82.0638 463.715L261.476 418.856" stroke="url(#paint28_linear_44_229)" stroke-linecap="round"/>
<path d="M-20.2787 444.894C-6.28799 454.6 32.2731 472.293 74.5923 465.42L253.254 429.913" stroke="white" stroke-linecap="round"/>
<path d="M-20.2787 444.894C-6.28799 454.6 32.2731 472.293 74.5923 465.42L253.254 429.913" stroke="url(#paint29_linear_44_229)" stroke-linecap="round"/>
<path d="M-24.1085 442.941C-11.0873 452.978 25.4294 471.862 67.3268 467.101L244.658 440.709" stroke="white" stroke-linecap="round"/>
<path d="M-24.1085 442.941C-11.0873 452.978 25.4294 471.862 67.3268 467.101L244.658 440.709" stroke="url(#paint30_linear_44_229)" stroke-linecap="round"/>
<path d="M-22.7893 444.61C-10.7331 454.91 18.9162 471.487 60.2667 468.769L235.714 451.227" stroke="white" stroke-linecap="round"/>
<path d="M-22.7893 444.61C-10.7331 454.91 18.9162 471.487 60.2667 468.769L235.714 451.227" stroke="url(#paint31_linear_44_229)" stroke-linecap="round"/>
<path d="M-21.6223 445.389C-10.5211 455.886 12.7243 471.185 53.41 470.436L226.449 461.452" stroke="white" stroke-linecap="round"/>
<path d="M-21.6223 445.389C-10.5211 455.886 12.7243 471.185 53.41 470.436L226.449 461.452" stroke="url(#paint32_linear_44_229)" stroke-linecap="round"/>
<path d="M261.145 429.399C274.101 414.232 297.89 373.021 289.397 329.51L244.995 146.241" stroke="white" stroke-linecap="round"/>
<path d="M261.145 429.399C274.101 414.232 297.89 373.021 289.397 329.51L244.995 146.241" stroke="url(#paint33_linear_44_229)" stroke-linecap="round"/>
<path d="M255.21 433.971C268.705 419.826 294.24 380.756 288.412 337.63L255.451 155.503" stroke="white" stroke-linecap="round"/>
<path d="M255.21 433.971C268.705 419.826 294.24 380.756 288.412 337.63L255.451 155.503" stroke="url(#paint34_linear_44_229)" stroke-linecap="round"/>
<path d="M249.588 438.166C263.539 425.048 290.63 388.159 287.394 345.55L265.594 165.143" stroke="white" stroke-linecap="round"/>
<path d="M249.588 438.166C263.539 425.048 290.63 388.159 287.394 345.55L265.594 165.143" stroke="url(#paint35_linear_44_229)" stroke-linecap="round"/>
<path d="M244.3 442.009C258.622 429.916 287.083 395.237 286.357 353.271L275.403 175.133" stroke="white" stroke-linecap="round"/>
<path d="M244.3 442.009C258.622 429.916 287.083 395.237 286.357 353.271L275.403 175.133" stroke="url(#paint36_linear_44_229)" stroke-linecap="round"/>
<path d="M239.364 445.528C253.975 434.452 283.62 402 285.316 360.794L284.86 185.451" stroke="white" stroke-linecap="round"/>
<path d="M239.364 445.528C253.975 434.452 283.62 402 285.316 360.794L284.86 185.451" stroke="url(#paint37_linear_44_229)" stroke-linecap="round"/>
<path d="M234.797 448.747C249.617 438.678 280.262 408.456 284.283 368.121L293.95 196.066" stroke="white" stroke-linecap="round"/>
<path d="M234.797 448.747C249.617 438.678 280.262 408.456 284.283 368.121L293.95 196.066" stroke="url(#paint38_linear_44_229)" stroke-linecap="round"/>
<path d="M230.611 451.694C245.563 442.615 277.029 414.617 283.274 375.257L302.657 206.953" stroke="white" stroke-linecap="round"/>
<path d="M230.611 451.694C245.563 442.615 277.029 414.617 283.274 375.257L302.657 206.953" stroke="url(#paint39_linear_44_229)" stroke-linecap="round"/>
<path d="M226.818 454.397C241.828 446.287 273.938 420.495 282.301 382.204L310.97 218.085" stroke="white" stroke-linecap="round"/>
<path d="M226.818 454.397C241.828 446.287 273.938 420.495 282.301 382.204L310.97 218.085" stroke="url(#paint40_linear_44_229)" stroke-linecap="round"/>
<path d="M223.429 456.884C238.425 449.718 271.009 426.101 281.377 388.968L318.881 229.432" stroke="white" stroke-linecap="round"/>
<path d="M223.429 456.884C238.425 449.718 271.009 426.101 281.377 388.968L318.881 229.432" stroke="url(#paint41_linear_44_229)" stroke-linecap="round"/>
<path d="M220.451 459.184C235.364 452.931 268.256 431.45 280.515 395.554L326.38 240.967" stroke="white" stroke-linecap="round"/>
<path d="M220.451 459.184C235.364 452.931 268.256 431.45 280.515 395.554L326.38 240.967" stroke="url(#paint42_linear_44_229)" stroke-linecap="round"/>
<path d="M217.888 461.324C232.655 455.95 265.697 436.556 279.726 401.968L330.788 252.799" stroke="white" stroke-linecap="round"/>
<path d="M217.888 461.324C232.655 455.95 265.697 436.556 279.726 401.968L330.788 252.799" stroke="url(#paint43_linear_44_229)" stroke-linecap="round"/>
<path d="M314.019 208.65C303.457 191.846 270.471 155.763 223.031 145.86L19.9735 111.381" stroke="white" stroke-linecap="round"/>
<path d="M314.019 208.65C303.457 191.846 270.471 155.763 223.031 145.86L19.9735 111.381" stroke="url(#paint44_linear_44_229)" stroke-linecap="round"/>
<path d="M316.442 215.418C307.121 198.562 276.968 161.852 230.92 149.863L33.3181 106.235" stroke="white" stroke-linecap="round"/>
<path d="M316.442 215.418C307.121 198.562 276.968 161.852 230.92 149.863L33.3181 106.235" stroke="url(#paint45_linear_44_229)" stroke-linecap="round"/>
<path d="M318.599 221.775C310.492 204.939 283.143 167.778 238.593 153.817L46.929 101.499" stroke="white" stroke-linecap="round"/>
<path d="M318.599 221.775C310.492 204.939 283.143 167.778 238.593 153.817L46.929 101.499" stroke="url(#paint46_linear_44_229)" stroke-linecap="round"/>
<path d="M320.523 227.714C313.598 210.968 289.01 173.523 246.056 157.708L60.7718 97.1809" stroke="white" stroke-linecap="round"/>
<path d="M320.523 227.714C313.598 210.968 289.01 173.523 246.056 157.708L60.7718 97.1809" stroke="url(#paint47_linear_44_229)" stroke-linecap="round"/>
<path d="M322.248 233.232C316.467 216.642 294.588 179.075 253.316 161.526L74.8137 93.286" stroke="white" stroke-linecap="round"/>
<path d="M322.248 233.232C316.467 216.642 294.588 179.075 253.316 161.526L74.8137 93.286" stroke="url(#paint48_linear_44_229)" stroke-linecap="round"/>
<path d="M323.808 238.323C319.13 221.951 299.895 184.418 260.382 165.259L89.022 89.816" stroke="white" stroke-linecap="round"/>
<path d="M323.808 238.323C319.13 221.951 299.895 184.418 260.382 165.259L89.022 89.816" stroke="url(#paint49_linear_44_229)" stroke-linecap="round"/>
<path d="M325.234 242.988C321.612 226.892 304.947 189.541 267.26 168.898L103.363 86.773" stroke="white" stroke-linecap="round"/>
<path d="M325.234 242.988C321.612 226.892 304.947 189.541 267.26 168.898L103.363 86.773" stroke="url(#paint50_linear_44_229)" stroke-linecap="round"/>
<path d="M326.56 247.227C323.945 231.463 309.765 194.434 273.96 172.434L117.804 84.1562" stroke="white" stroke-linecap="round"/>
<path d="M326.56 247.227C323.945 231.463 309.765 194.434 273.96 172.434L117.804 84.1562" stroke="url(#paint51_linear_44_229)" stroke-linecap="round"/>
<path d="M327.818 251.043C326.157 235.66 314.367 199.085 280.493 175.856L132.314 81.9616" stroke="white" stroke-linecap="round"/>
<path d="M327.818 251.043C326.157 235.66 314.367 199.085 280.493 175.856L132.314 81.9616" stroke="url(#paint52_linear_44_229)" stroke-linecap="round"/>
<path d="M329.039 254.441C328.276 239.484 318.774 203.487 286.867 179.156L146.86 80.1847" stroke="white" stroke-linecap="round"/>
<path d="M329.039 254.441C328.276 239.484 318.774 203.487 286.867 179.156L146.86 80.1847" stroke="url(#paint53_linear_44_229)" stroke-linecap="round"/>
<path d="M330.253 257.428C330.33 242.939 323.006 207.633 293.095 182.328L161.413 78.8192" stroke="white" stroke-linecap="round"/>
<path d="M330.253 257.428C330.33 242.939 323.006 207.633 293.095 182.328L161.413 78.8192" stroke="url(#paint54_linear_44_229)" stroke-linecap="round"/>
</g>
<defs>
<filter id="filter0_f_44_229" x="-109.975" y="71.2148" width="445.277" height="403.722" filterUnits="userSpaceOnUse" color-interpolation-filters="sRGB">
<feFlood flood-opacity="0" result="BackgroundImageFix"/>
<feBlend mode="normal" in="SourceGraphic" in2="BackgroundImageFix" result="shape"/>
<feGaussianBlur stdDeviation="2" result="effect1_foregroundBlur_44_229"/>
</filter>
<linearGradient id="paint0_linear_44_229" x1="-54.9014" y1="226.816" x2="34.8136" y2="216.842" gradientUnits="userSpaceOnUse">
<stop stop-color="#FF5B79"/>
<stop offset="0.177083" stop-color="#00F0FF"/>
</linearGradient>
<linearGradient id="paint1_linear_44_229" x1="-52.5874" y1="217.378" x2="35.3261" y2="213.204" gradientUnits="userSpaceOnUse">
<stop stop-color="#FF5B79"/>
<stop offset="0.177083" stop-color="#00F0FF"/>
</linearGradient>
<linearGradient id="paint2_linear_44_229" x1="-50.1242" y1="208.057" x2="35.5566" y2="209.424" gradientUnits="userSpaceOnUse">
<stop stop-color="#FF5B79"/>
<stop offset="0.177083" stop-color="#00F0FF"/>
</linearGradient>
<linearGradient id="paint3_linear_44_229" x1="-47.5229" y1="198.86" x2="35.5234" y2="205.467" gradientUnits="userSpaceOnUse">
<stop stop-color="#FF5B79"/>
<stop offset="0.177083" stop-color="#00F0FF"/>
</linearGradient>
<linearGradient id="paint4_linear_44_229" x1="-27.291" y1="182.008" x2="98.6016" y2="200.107" gradientUnits="userSpaceOnUse">
<stop stop-color="#FF5B79"/>
<stop offset="0.177083" stop-color="#00F0FF"/>
</linearGradient>
<linearGradient id="paint5_linear_44_229" x1="-24.6697" y1="172.358" x2="94.4834" y2="197.262" gradientUnits="userSpaceOnUse">
<stop stop-color="#FF5B79"/>
<stop offset="0.177083" stop-color="#00F0FF"/>
</linearGradient>
<linearGradient id="paint6_linear_44_229" x1="-22.8698" y1="164.342" x2="87.4284" y2="194.758" gradientUnits="userSpaceOnUse">
<stop stop-color="#FF5B79"/>
<stop offset="0.177083" stop-color="#00F0FF"/>
</linearGradient>
<linearGradient id="paint7_linear_44_229" x1="-19.9436" y1="154.745" x2="82.6355" y2="190.088" gradientUnits="userSpaceOnUse">
<stop stop-color="#FF5B79"/>
<stop offset="0.177083" stop-color="#00F0FF"/>
</linearGradient>
<linearGradient id="paint8_linear_44_229" x1="-16.8699" y1="146.874" x2="79.1894" y2="186.827" gradientUnits="userSpaceOnUse">
<stop stop-color="#FF5B79"/>
<stop offset="0.177083" stop-color="#00F0FF"/>
</linearGradient>
<linearGradient id="paint9_linear_44_229" x1="-13.5864" y1="137.366" x2="74.2029" y2="180.431" gradientUnits="userSpaceOnUse">
<stop stop-color="#FF5B79"/>
<stop offset="0.177083" stop-color="#00F0FF"/>
</linearGradient>
<linearGradient id="paint10_linear_44_229" x1="-10.8918" y1="130.021" x2="69.3221" y2="175.678" gradientUnits="userSpaceOnUse">
<stop stop-color="#FF5B79"/>
<stop offset="0.177083" stop-color="#00F0FF"/>
</linearGradient>
<linearGradient id="paint11_linear_44_229" x1="-1.51195" y1="407.57" x2="17.7985" y2="327.427" gradientUnits="userSpaceOnUse">
<stop stop-color="#FF5B79"/>
<stop offset="0.177083" stop-color="#00F0FF"/>
</linearGradient>
<linearGradient id="paint12_linear_44_229" x1="-10.4887" y1="402.267" x2="12.4604" y2="325.153" gradientUnits="userSpaceOnUse">
<stop stop-color="#FF5B79"/>
<stop offset="0.177083" stop-color="#00F0FF"/>
</linearGradient>
<linearGradient id="paint13_linear_44_229" x1="-19.2952" y1="396.878" x2="7.05915" y2="322.926" gradientUnits="userSpaceOnUse">
<stop stop-color="#FF5B79"/>
<stop offset="0.177083" stop-color="#00F0FF"/>
</linearGradient>
<linearGradient id="paint14_linear_44_229" x1="-27.9265" y1="391.415" x2="1.59745" y2="320.751" gradientUnits="userSpaceOnUse">
<stop stop-color="#FF5B79"/>
<stop offset="0.177083" stop-color="#00F0FF"/>
</linearGradient>
<linearGradient id="paint15_linear_44_229" x1="-36.3801" y1="385.891" x2="-3.9256" y2="318.631" gradientUnits="userSpaceOnUse">
<stop stop-color="#FF5B79"/>
<stop offset="0.177083" stop-color="#00F0FF"/>
</linearGradient>
<linearGradient id="paint16_linear_44_229" x1="-44.6547" y1="380.318" x2="-9.5131" y2="316.57" gradientUnits="userSpaceOnUse">
<stop stop-color="#FF5B79"/>
<stop offset="0.177083" stop-color="#00F0FF"/>
</linearGradient>
<linearGradient id="paint17_linear_44_229" x1="-52.7483" y1="374.708" x2="-15.1687" y2="314.572" gradientUnits="userSpaceOnUse">
<stop stop-color="#FF5B79"/>
<stop offset="0.177083" stop-color="#00F0FF"/>
</linearGradient>
<linearGradient id="paint18_linear_44_229" x1="-60.6617" y1="369.075" x2="-20.8997" y2="312.64" gradientUnits="userSpaceOnUse">
<stop stop-color="#FF5B79"/>
<stop offset="0.177083" stop-color="#00F0FF"/>
</linearGradient>
<linearGradient id="paint19_linear_44_229" x1="-68.3959" y1="363.43" x2="-26.7144" y2="310.775" gradientUnits="userSpaceOnUse">
<stop stop-color="#FF5B79"/>
<stop offset="0.177083" stop-color="#00F0FF"/>
</linearGradient>
<linearGradient id="paint20_linear_44_229" x1="-75.9525" y1="357.786" x2="-32.6224" y2="308.977" gradientUnits="userSpaceOnUse">
<stop stop-color="#FF5B79"/>
<stop offset="0.177083" stop-color="#00F0FF"/>
</linearGradient>
<linearGradient id="paint21_linear_44_229" x1="-83.3348" y1="352.154" x2="-38.6353" y2="307.242" gradientUnits="userSpaceOnUse">
<stop stop-color="#FF5B79"/>
<stop offset="0.177083" stop-color="#00F0FF"/>
</linearGradient>
<linearGradient id="paint22_linear_44_229" x1="188.269" y1="433.967" x2="122.225" y2="380.692" gradientUnits="userSpaceOnUse">
<stop stop-color="#FF5B79"/>
<stop offset="0.177083" stop-color="#00F0FF"/>
</linearGradient>
<linearGradient id="paint23_linear_44_229" x1="182.752" y1="438.155" x2="120.988" y2="381.985" gradientUnits="userSpaceOnUse">
<stop stop-color="#FF5B79"/>
<stop offset="0.177083" stop-color="#00F0FF"/>
</linearGradient>
<linearGradient id="paint24_linear_44_229" x1="178.65" y1="441.22" x2="121.243" y2="382.516" gradientUnits="userSpaceOnUse">
<stop stop-color="#FF5B79"/>
<stop offset="0.177083" stop-color="#00F0FF"/>
</linearGradient>
<linearGradient id="paint25_linear_44_229" x1="169.944" y1="446.445" x2="117.82" y2="386.571" gradientUnits="userSpaceOnUse">
<stop stop-color="#FF5B79"/>
<stop offset="0.177083" stop-color="#00F0FF"/>
</linearGradient>
<linearGradient id="paint26_linear_44_229" x1="161.238" y1="451.497" x2="114.277" y2="390.868" gradientUnits="userSpaceOnUse">
<stop stop-color="#FF5B79"/>
<stop offset="0.177083" stop-color="#00F0FF"/>
</linearGradient>
<linearGradient id="paint27_linear_44_229" x1="152.548" y1="456.38" x2="110.602" y2="395.381" gradientUnits="userSpaceOnUse">
<stop stop-color="#FF5B79"/>
<stop offset="0.177083" stop-color="#00F0FF"/>
</linearGradient>
<linearGradient id="paint28_linear_44_229" x1="143.885" y1="461.097" x2="106.784" y2="400.083" gradientUnits="userSpaceOnUse">
<stop stop-color="#FF5B79"/>
<stop offset="0.177083" stop-color="#00F0FF"/>
</linearGradient>
<linearGradient id="paint29_linear_44_229" x1="135.263" y1="465.651" x2="102.818" y2="404.949" gradientUnits="userSpaceOnUse">
<stop stop-color="#FF5B79"/>
<stop offset="0.177083" stop-color="#00F0FF"/>
</linearGradient>
<linearGradient id="paint30_linear_44_229" x1="126.695" y1="470.051" x2="98.701" y2="409.957" gradientUnits="userSpaceOnUse">
<stop stop-color="#FF5B79"/>
<stop offset="0.177083" stop-color="#00F0FF"/>
</linearGradient>
<linearGradient id="paint31_linear_44_229" x1="119.954" y1="474.691" x2="97.2816" y2="418.174" gradientUnits="userSpaceOnUse">
<stop stop-color="#FF5B79"/>
<stop offset="0.177083" stop-color="#00F0FF"/>
</linearGradient>
<linearGradient id="paint32_linear_44_229" x1="113.396" y1="478.966" x2="95.2162" y2="425.46" gradientUnits="userSpaceOnUse">
<stop stop-color="#FF5B79"/>
<stop offset="0.177083" stop-color="#00F0FF"/>
</linearGradient>
<linearGradient id="paint33_linear_44_229" x1="290.491" y1="266.472" x2="218.382" y2="316.066" gradientUnits="userSpaceOnUse">
<stop stop-color="#FF5B79"/>
<stop offset="0.177083" stop-color="#00F0FF"/>
</linearGradient>
<linearGradient id="paint34_linear_44_229" x1="293.041" y1="275.898" x2="219.688" y2="320.144" gradientUnits="userSpaceOnUse">
<stop stop-color="#FF5B79"/>
<stop offset="0.177083" stop-color="#00F0FF"/>
</linearGradient>
<linearGradient id="paint35_linear_44_229" x1="295.401" y1="285.279" x2="221.194" y2="324.143" gradientUnits="userSpaceOnUse">
<stop stop-color="#FF5B79"/>
<stop offset="0.177083" stop-color="#00F0FF"/>
</linearGradient>
<linearGradient id="paint36_linear_44_229" x1="297.576" y1="294.604" x2="222.916" y2="328.083" gradientUnits="userSpaceOnUse">
<stop stop-color="#FF5B79"/>
<stop offset="0.177083" stop-color="#00F0FF"/>
</linearGradient>
<linearGradient id="paint37_linear_44_229" x1="299.575" y1="303.863" x2="224.87" y2="331.989" gradientUnits="userSpaceOnUse">
<stop stop-color="#FF5B79"/>
<stop offset="0.177083" stop-color="#00F0FF"/>
</linearGradient>
<linearGradient id="paint38_linear_44_229" x1="301.406" y1="313.044" x2="227.066" y2="335.888" gradientUnits="userSpaceOnUse">
<stop stop-color="#FF5B79"/>
<stop offset="0.177083" stop-color="#00F0FF"/>
</linearGradient>
<linearGradient id="paint39_linear_44_229" x1="303.078" y1="322.139" x2="229.51" y2="339.81" gradientUnits="userSpaceOnUse">
<stop stop-color="#FF5B79"/>
<stop offset="0.177083" stop-color="#00F0FF"/>
</linearGradient>
<linearGradient id="paint40_linear_44_229" x1="304.599" y1="331.138" x2="232.204" y2="343.787" gradientUnits="userSpaceOnUse">
<stop stop-color="#FF5B79"/>
<stop offset="0.177083" stop-color="#00F0FF"/>
</linearGradient>
<linearGradient id="paint41_linear_44_229" x1="305.981" y1="340.033" x2="235.145" y2="347.85" gradientUnits="userSpaceOnUse">
<stop stop-color="#FF5B79"/>
<stop offset="0.177083" stop-color="#00F0FF"/>
</linearGradient>
<linearGradient id="paint42_linear_44_229" x1="307.233" y1="348.818" x2="238.324" y2="352.034" gradientUnits="userSpaceOnUse">
<stop stop-color="#FF5B79"/>
<stop offset="0.177083" stop-color="#00F0FF"/>
</linearGradient>
<linearGradient id="paint43_linear_44_229" x1="306.248" y1="357.536" x2="241.199" y2="356.445" gradientUnits="userSpaceOnUse">
<stop stop-color="#FF5B79"/>
<stop offset="0.177083" stop-color="#00F0FF"/>
</linearGradient>
<linearGradient id="paint44_linear_44_229" x1="159.329" y1="120.271" x2="171.198" y2="201.841" gradientUnits="userSpaceOnUse">
<stop stop-color="#FF5B79"/>
<stop offset="0.177083" stop-color="#00F0FF"/>
</linearGradient>
<linearGradient id="paint45_linear_44_229" x1="169.873" y1="121.821" x2="177.226" y2="201.6" gradientUnits="userSpaceOnUse">
<stop stop-color="#FF5B79"/>
<stop offset="0.177083" stop-color="#00F0FF"/>
</linearGradient>
<linearGradient id="paint46_linear_44_229" x1="180.3" y1="123.513" x2="183.374" y2="201.309" gradientUnits="userSpaceOnUse">
<stop stop-color="#FF5B79"/>
<stop offset="0.177083" stop-color="#00F0FF"/>
</linearGradient>
<linearGradient id="paint47_linear_44_229" x1="190.601" y1="125.338" x2="189.629" y2="200.976" gradientUnits="userSpaceOnUse">
<stop stop-color="#FF5B79"/>
<stop offset="0.177083" stop-color="#00F0FF"/>
</linearGradient>
<linearGradient id="paint48_linear_44_229" x1="200.767" y1="127.284" x2="195.985" y2="200.607" gradientUnits="userSpaceOnUse">
<stop stop-color="#FF5B79"/>
<stop offset="0.177083" stop-color="#00F0FF"/>
</linearGradient>
<linearGradient id="paint49_linear_44_229" x1="210.792" y1="129.341" x2="202.432" y2="200.204" gradientUnits="userSpaceOnUse">
<stop stop-color="#FF5B79"/>
<stop offset="0.177083" stop-color="#00F0FF"/>
</linearGradient>
<linearGradient id="paint50_linear_44_229" x1="220.669" y1="131.499" x2="208.962" y2="199.77" gradientUnits="userSpaceOnUse">
<stop stop-color="#FF5B79"/>
<stop offset="0.177083" stop-color="#00F0FF"/>
</linearGradient>
<linearGradient id="paint51_linear_44_229" x1="230.393" y1="133.745" x2="215.569" y2="199.304" gradientUnits="userSpaceOnUse">
<stop stop-color="#FF5B79"/>
<stop offset="0.177083" stop-color="#00F0FF"/>
</linearGradient>
<linearGradient id="paint52_linear_44_229" x1="239.958" y1="136.067" x2="222.248" y2="198.806" gradientUnits="userSpaceOnUse">
<stop stop-color="#FF5B79"/>
<stop offset="0.177083" stop-color="#00F0FF"/>
</linearGradient>
<linearGradient id="paint53_linear_44_229" x1="249.362" y1="138.454" x2="228.997" y2="198.273" gradientUnits="userSpaceOnUse">
<stop stop-color="#FF5B79"/>
<stop offset="0.177083" stop-color="#00F0FF"/>
</linearGradient>
<linearGradient id="paint54_linear_44_229" x1="258.602" y1="140.895" x2="235.815" y2="197.704" gradientUnits="userSpaceOnUse">
<stop stop-color="#FF5B79"/>
<stop offset="0.177083" stop-color="#00F0FF"/>
</linearGradient>
</defs>
</svg>
