<svg width="640" height="492" viewBox="0 0 640 492" fill="none" xmlns="http://www.w3.org/2000/svg">
<g opacity="0.25">
<path opacity="0.010101" d="M207.381 229.088L306.309 59.4141C310.067 52.9686 317.451 49.5364 324.962 50.7442L534.884 84.4999C543.023 85.8085 549.458 92.2533 550.705 100.344L579.822 289.281C581.069 297.371 576.831 305.184 569.403 308.488L377.816 393.703C370.961 396.752 362.825 395.309 357.265 390.058L210.885 251.824C204.555 245.847 203.103 236.425 207.381 229.088Z" stroke="url(#paint0_linear_193_11)" stroke-width="3"/>
<path opacity="0.020202" d="M205.283 226.62L307.225 58.9054C311.104 52.5235 318.546 49.2114 326.026 50.5373L534.851 87.5547C542.962 88.9925 549.273 95.543 550.366 103.658L575.806 292.609C576.899 300.723 572.513 308.472 565.024 311.656L372.222 393.645C365.315 396.582 357.216 395.01 351.76 389.673L208.354 249.431C202.135 243.349 200.862 233.894 205.283 226.62Z" stroke="url(#paint1_linear_193_11)" stroke-width="3"/>
<path opacity="0.030303" d="M203.245 224.163L308.156 58.4509C312.156 52.1342 319.653 48.9427 327.1 50.3864L534.766 90.6404C542.848 92.207 549.033 98.8606 549.971 106.996L571.743 295.905C572.681 304.04 568.147 311.721 560.6 314.786L366.649 393.535C359.693 396.359 351.632 394.659 346.281 389.238L205.881 247.039C199.775 240.854 198.682 231.371 203.245 224.163Z" stroke="url(#paint2_linear_193_11)" stroke-width="3"/>
<path opacity="0.040404" d="M201.267 221.719L309.103 58.0511C313.221 51.801 320.772 48.7306 328.187 50.2916L534.631 93.7564C542.681 95.4511 548.738 102.205 549.52 110.358L567.634 299.169C568.416 307.322 563.737 314.933 556.132 317.876L361.101 393.373C354.096 396.084 346.075 394.256 340.829 388.753L203.466 244.649C197.476 238.365 196.564 228.856 201.267 221.719Z" stroke="url(#paint3_linear_193_11)" stroke-width="3"/>
<path opacity="0.050505" d="M199.347 219.286L310.063 57.7051C314.299 51.5231 321.903 48.5744 329.283 50.2523L534.444 96.9007C542.459 98.7232 548.387 105.575 549.013 113.743L563.479 302.399C564.105 310.566 559.281 318.104 551.622 320.926L355.576 393.159C348.525 395.757 340.545 393.802 335.406 388.218L201.109 242.261C195.237 235.88 194.506 226.351 199.347 219.286Z" stroke="url(#paint4_linear_193_11)" stroke-width="3"/>
<path opacity="0.0606061" d="M197.488 216.867L311.036 57.4128C315.389 51.3004 323.045 48.4739 330.388 50.2682L534.206 100.072C542.185 102.022 547.98 108.969 548.45 117.148L559.28 305.594C559.75 313.772 554.782 321.234 547.071 323.934L350.078 392.894C342.981 395.378 335.043 393.297 330.014 387.633L198.81 239.877C193.059 233.4 192.511 223.856 197.488 216.867Z" stroke="url(#paint5_linear_193_11)" stroke-width="3"/>
<path opacity="0.0707071" d="M195.687 214.461L312.021 57.1747C316.49 51.1334 324.196 48.4296 331.501 50.34L533.915 103.271C541.855 105.347 547.517 112.387 547.83 120.574L555.036 308.754C555.35 316.941 550.24 324.324 542.479 326.9L344.606 392.578C337.465 394.949 329.571 392.742 324.651 386.999L196.569 237.496C190.941 230.927 190.575 221.372 195.687 214.461Z" stroke="url(#paint6_linear_193_11)" stroke-width="3"/>
<path opacity="0.0808081" d="M193.943 212.072L313.016 56.9917C317.599 51.023 325.354 48.4425 332.621 50.4685L533.572 106.496C541.471 108.698 546.997 115.828 547.153 124.019L550.749 311.879C550.906 320.071 545.656 327.372 537.846 329.824L339.162 392.213C331.977 394.469 324.128 392.137 319.32 386.318L194.385 235.122C188.883 228.463 188.699 218.901 193.943 212.072Z" stroke="url(#paint7_linear_193_11)" stroke-width="3"/>
<path opacity="0.0909091" d="M192.258 209.698L314.021 56.8628C318.717 50.9681 326.52 48.5116 333.746 50.6528L533.175 109.746C541.031 112.073 546.42 119.29 546.42 127.483V314.968C546.42 323.161 541.031 330.378 533.176 332.706L333.746 391.799C326.52 393.94 318.717 391.483 314.021 385.589L192.258 232.753C186.884 226.008 186.884 216.444 192.258 209.698Z" stroke="url(#paint8_linear_193_11)" stroke-width="3"/>
<path opacity="0.10101" d="M190.63 207.341L315.034 56.7878C319.843 50.9685 327.692 48.6365 334.876 50.8925L532.726 113.019C540.536 115.471 545.786 122.773 545.629 130.964L542.049 318.019C541.892 326.211 536.366 333.341 528.467 335.543L328.36 391.335C321.093 393.361 313.338 390.78 308.756 384.812L190.189 230.391C184.945 223.561 185.128 213.999 190.63 207.341Z" stroke="url(#paint9_linear_193_11)" stroke-width="3"/>
<path opacity="0.111111" d="M189.059 205.002L316.054 56.7681C320.974 51.0258 328.868 48.8188 336.009 51.1893L532.223 116.317C539.984 118.893 545.094 126.276 544.78 134.463L537.636 321.034C537.323 329.221 531.661 336.261 523.721 338.337L323.004 390.824C315.698 392.734 307.992 390.031 303.524 383.989L188.177 228.037C183.065 221.126 183.431 211.571 189.059 205.002Z" stroke="url(#paint10_linear_193_11)" stroke-width="3"/>
<path opacity="0.121212" d="M187.543 202.681L317.08 56.8018C322.11 51.1378 330.047 49.0565 337.145 51.541L531.665 119.636C539.377 122.335 544.344 129.797 543.874 137.976L533.183 324.01C532.713 332.188 526.917 339.136 518.939 341.086L317.679 390.265C310.336 392.059 302.68 389.232 298.327 383.12L186.221 225.692C181.244 218.702 181.792 209.158 187.543 202.681Z" stroke="url(#paint11_linear_193_11)" stroke-width="3"/>
<path opacity="0.131313" d="M186.084 200.381L318.111 56.8909C323.25 51.3066 331.23 49.3517 338.281 51.9499L531.053 122.977C538.712 125.799 543.536 133.337 542.91 141.504L528.691 326.948C528.064 335.115 522.137 341.967 514.122 343.79L312.386 389.659C305.007 391.337 297.403 388.389 293.167 382.207L184.322 223.356C179.481 216.291 180.212 206.763 186.084 200.381Z" stroke="url(#paint12_linear_193_11)" stroke-width="3"/>
<path opacity="0.141414" d="M184.68 198.101L319.147 57.0339C324.393 51.5309 332.414 49.703 339.418 52.4144L530.387 126.338C537.992 129.282 542.671 136.893 541.889 145.046L524.16 329.847C523.378 338 517.32 344.754 509.271 346.449L307.127 389.008C299.713 390.569 292.161 387.499 288.043 381.248L182.48 221.031C177.777 213.893 178.689 204.385 184.68 198.101Z" stroke="url(#paint13_linear_193_11)" stroke-width="3"/>
<path opacity="0.151515" d="M183.329 195.841L320.185 57.231C325.536 51.8105 333.597 50.1102 340.553 52.9346L529.665 129.719C537.213 132.783 541.746 140.464 540.809 148.6L519.59 332.705C518.652 340.841 512.467 347.494 504.385 349.061L301.9 388.311C294.452 389.754 286.955 386.563 282.956 380.246L180.693 218.716C176.13 211.509 177.223 202.026 183.329 195.841Z" stroke="url(#paint14_linear_193_11)" stroke-width="3"/>
<path opacity="0.161616" d="M182.034 193.604L321.225 57.4825C326.682 52.146 334.781 50.574 341.687 53.5109L528.889 133.118C536.378 136.303 540.764 144.051 539.672 152.166L514.984 335.524C513.892 343.639 507.58 350.189 499.469 351.627L296.71 387.569C289.23 388.895 281.788 385.583 277.909 379.201L178.963 216.415C174.541 209.141 175.814 199.686 182.034 193.604Z" stroke="url(#paint15_linear_193_11)" stroke-width="3"/>
<path opacity="0.171717" d="M180.791 191.39L322.265 57.7884C327.826 52.5373 335.962 51.0943 342.817 54.1433L528.057 136.536C535.484 139.839 539.722 147.652 538.475 155.743L510.341 338.302C509.094 346.393 502.659 352.838 494.521 354.146L291.553 386.784C284.042 387.991 276.658 384.559 272.9 378.114L177.287 214.126C173.009 206.789 174.461 197.367 180.791 191.39Z" stroke="url(#paint16_linear_193_11)" stroke-width="3"/>
<path opacity="0.181818" d="M179.601 189.199L323.305 58.1479C328.968 52.9836 337.139 51.6702 343.942 54.831L527.168 139.969C534.533 143.391 538.621 151.265 537.221 159.329L505.662 341.038C504.262 349.102 497.705 355.439 489.542 356.618L286.433 385.955C278.893 387.044 271.566 383.492 267.93 376.984L175.667 211.851C171.534 204.453 173.163 195.069 179.601 189.199Z" stroke="url(#paint17_linear_193_11)" stroke-width="3"/>
<path opacity="0.191919" d="M178.464 187.032L324.344 58.5615C330.108 53.4853 338.313 52.3023 345.062 55.5745L526.225 143.419C533.524 146.958 537.462 154.891 535.909 162.925L500.949 343.733C499.396 351.767 492.72 357.993 484.534 359.042L281.35 385.083C273.782 386.053 266.515 382.382 263.003 375.815L174.102 209.591C170.115 202.136 171.921 192.794 178.464 187.032Z" stroke="url(#paint18_linear_193_11)" stroke-width="3"/>
<path opacity="0.20202" d="M177.378 184.889L325.38 59.0275C331.244 54.0408 339.481 52.9888 346.174 56.3721L525.225 146.883C532.456 150.538 536.243 158.526 534.538 166.527L496.202 346.384C494.496 354.385 487.704 360.498 479.497 361.417L276.305 384.169C268.71 385.019 261.504 381.23 258.115 374.603L172.591 207.345C168.752 199.836 170.733 190.54 177.378 184.889Z" stroke="url(#paint19_linear_193_11)" stroke-width="3"/>
<path opacity="0.212121" d="M176.343 182.774L326.413 59.5487C332.375 54.6528 340.644 53.7327 347.28 57.2265L524.169 150.361C531.331 154.132 534.966 162.173 533.11 170.138L491.422 348.994C489.565 356.959 482.658 362.956 474.434 363.745L271.298 383.215C263.678 383.946 256.534 380.038 253.271 373.354L171.135 205.118C167.444 197.558 169.599 188.311 176.343 182.774Z" stroke="url(#paint20_linear_193_11)" stroke-width="3"/>
<path opacity="0.222222" d="M175.358 180.684L327.44 60.1219C333.5 55.3182 341.798 54.5306 348.375 58.1348L523.057 153.852C530.146 157.737 533.629 165.828 531.622 173.753L486.609 351.56C484.603 359.485 477.583 365.365 469.344 366.023L266.33 382.22C258.686 382.83 251.606 378.805 248.469 372.065L169.733 202.906C166.192 195.298 168.519 186.106 175.358 180.684Z" stroke="url(#paint21_linear_193_11)" stroke-width="3"/>
<path opacity="0.232323" d="M174.423 178.622L328.462 60.7487C334.618 56.0387 342.943 55.3843 349.461 59.0983L521.887 157.355C528.903 161.353 532.232 169.491 530.077 177.375L481.765 354.082C479.61 361.965 472.481 367.725 464.228 368.252L261.402 381.186C253.735 381.675 246.721 377.532 243.711 370.739L168.383 200.713C164.993 193.061 167.49 183.927 174.423 178.622Z" stroke="url(#paint22_linear_193_11)" stroke-width="3"/>
<path opacity="0.242424" d="M173.538 176.588L329.478 61.4287C335.728 56.8136 344.08 56.2932 350.536 60.1167L520.662 160.87C527.602 164.98 530.777 173.162 528.474 181.001L476.891 356.56C474.588 364.398 467.352 370.037 459.089 370.432L256.514 380.113C248.827 380.481 241.879 376.222 238.997 369.375L167.088 198.54C163.849 190.846 166.515 181.774 173.538 176.588Z" stroke="url(#paint23_linear_193_11)" stroke-width="3"/>
<path opacity="0.252525" d="M172.701 174.581L330.487 62.1606C336.829 57.6417 345.205 57.2561 351.599 61.1887L519.38 164.394C526.242 168.615 529.263 176.838 526.813 184.629L471.988 358.993C469.538 366.783 462.198 372.297 453.926 372.561L251.668 379.002C243.961 379.247 237.081 374.872 234.329 367.975L165.845 196.386C162.759 188.654 165.591 179.647 172.701 174.581Z" stroke="url(#paint24_linear_193_11)" stroke-width="3"/>
<path opacity="0.262626" d="M171.911 172.604L331.485 62.9446C337.919 58.5233 346.318 58.2732 352.647 62.3144L518.041 167.927C524.822 172.257 527.688 180.519 525.093 188.259L467.055 361.38C464.46 369.12 457.018 374.508 448.74 374.64L246.862 377.853C239.138 377.976 232.328 373.485 229.705 366.539L164.654 194.252C161.721 186.485 164.717 177.548 171.911 172.604Z" stroke="url(#paint25_linear_193_11)" stroke-width="3"/>
<path opacity="0.272727" d="M171.169 170.657L332.474 63.7813C338.998 59.459 347.419 59.3451 353.681 63.4944L516.645 171.469C523.344 175.908 526.055 184.205 523.316 191.892L462.094 363.723C459.356 371.409 451.815 376.669 443.534 376.669L242.1 376.669C234.359 376.669 227.62 372.063 225.128 365.069L163.515 192.14C160.736 184.341 163.894 175.477 171.169 170.657Z" stroke="url(#paint26_linear_193_11)" stroke-width="3"/>
<path opacity="0.282828" d="M170.473 168.741L333.454 64.6695C340.065 60.4475 348.506 60.4706 354.701 64.7277L515.192 175.018C521.808 179.564 524.363 187.894 521.482 195.525L457.108 366.019C454.227 373.649 446.59 378.779 438.307 378.647L237.38 375.449C229.625 375.325 222.958 370.605 220.598 363.565L162.427 190.051C159.803 182.223 163.121 173.436 170.473 168.741Z" stroke="url(#paint27_linear_193_11)" stroke-width="3"/>
<path opacity="0.292929" d="M169.824 166.856L334.421 65.6096C341.12 61.4891 349.578 61.65 355.703 66.0144L513.683 178.574C520.213 183.226 522.612 191.586 519.59 199.158L452.095 368.269C449.073 375.841 441.343 380.839 433.062 380.575L232.705 374.194C224.936 373.947 218.343 369.112 216.116 362.029L161.391 187.985C158.922 180.132 162.397 171.424 169.824 166.856Z" stroke="url(#paint28_linear_193_11)" stroke-width="3"/>
<path opacity="0.30303" d="M169.219 165.002L335.375 66.5998C342.159 62.5822 350.633 62.8816 356.687 67.3527L512.116 182.134C518.558 186.891 520.801 195.278 517.639 202.788L447.057 370.472C443.896 377.982 436.075 382.846 427.798 382.451L228.072 372.905C220.292 372.533 213.775 367.585 211.681 360.459L160.404 185.942C158.09 178.067 161.721 169.442 169.219 165.002Z" stroke="url(#paint29_linear_193_11)" stroke-width="3"/>
<path opacity="0.313131" d="M168.658 163.181L336.316 67.6419C343.183 63.7284 351.671 64.167 357.653 68.7445L510.493 185.7C516.845 190.56 518.931 198.972 515.632 206.418L441.995 372.628C438.696 380.074 430.788 384.803 422.517 384.276L223.484 371.584C215.695 371.087 209.255 366.025 207.296 358.86L159.468 183.925C157.31 176.03 161.092 167.493 168.658 163.181Z" stroke="url(#paint30_linear_193_11)" stroke-width="3"/>
<path opacity="0.323232" d="M168.143 161.392L337.243 68.7332C344.192 64.9251 352.692 65.5037 358.6 70.1869L508.814 189.268C515.074 194.231 517.004 202.664 513.569 210.043L436.911 374.736C433.476 382.116 425.483 386.708 417.221 386.049L218.942 370.229C211.145 369.607 204.784 364.433 202.96 357.228L158.582 181.932C156.579 174.022 160.512 165.574 168.143 161.392Z" stroke="url(#paint31_linear_193_11)" stroke-width="3"/>
<path opacity="0.333333" d="M167.668 159.638L338.153 69.8754C345.183 66.1741 353.693 66.8933 359.524 71.6817L507.077 192.84C513.242 197.903 515.016 206.355 511.447 213.665L431.803 376.798C428.234 384.108 420.16 388.561 411.908 387.77L214.445 368.844C206.641 368.096 200.36 362.809 198.672 355.569L157.743 179.967C155.896 172.043 159.976 163.688 167.668 159.638Z" stroke="url(#paint32_linear_193_11)" stroke-width="3"/>
<path opacity="0.343434" d="M167.238 157.917L339.047 71.0666C346.156 67.4733 354.674 68.3339 360.428 73.227L505.284 196.413C511.354 201.575 512.971 210.043 509.27 217.282L426.676 378.81C422.974 386.049 414.821 390.362 406.583 389.44L209.994 367.427C202.186 366.553 195.987 361.155 194.436 353.879L156.954 178.028C155.263 170.095 159.487 161.835 167.238 157.917Z" stroke="url(#paint33_linear_193_11)" stroke-width="3"/>
<path opacity="0.353535" d="M166.848 156.231L339.924 72.308C347.11 68.8238 355.634 69.8266 361.308 74.8236L503.434 199.988C509.407 205.248 510.868 213.729 507.036 220.895L421.528 380.775C417.695 387.94 409.467 392.112 401.245 391.058L205.59 365.982C197.778 364.981 191.664 359.472 190.251 352.164L156.212 176.118C154.677 168.178 159.042 160.016 166.848 156.231Z" stroke="url(#paint34_linear_193_11)" stroke-width="3"/>
<path opacity="0.363636" d="M166.499 154.58L340.782 73.5973C348.043 70.2236 356.571 71.3692 362.164 76.4696L501.527 203.562C507.4 208.918 508.705 217.41 504.744 224.499L416.36 382.69C412.399 389.78 404.098 393.808 395.894 392.623L201.231 364.507C193.419 363.378 187.39 357.76 186.115 350.42L155.516 174.236C154.137 166.292 158.64 158.231 166.499 154.58Z" stroke="url(#paint35_linear_193_11)" stroke-width="3"/>
<path opacity="0.373737" d="M166.191 152.965L341.622 74.9357C348.956 71.6737 357.486 72.9628 362.996 78.1658L499.565 207.135C505.337 212.586 506.486 221.086 502.399 228.097L411.175 384.557C407.087 391.568 398.717 395.453 390.534 394.137L196.921 363.004C189.11 361.748 183.169 356.02 182.033 348.651L154.869 172.385C153.644 164.44 158.284 156.482 166.191 152.965Z" stroke="url(#paint36_linear_193_11)" stroke-width="3"/>
<path opacity="0.383838" d="M165.922 151.386L342.442 76.3213C349.847 73.1721 358.376 74.6053 363.801 79.9104L497.546 210.706C503.216 216.25 504.209 224.756 499.996 231.687L405.972 386.375C401.76 393.305 393.323 397.045 385.163 395.598L192.659 361.474C184.851 360.09 178.998 354.253 178.002 346.857L154.266 170.562C153.197 162.62 157.969 154.768 165.922 151.386Z" stroke="url(#paint37_linear_193_11)" stroke-width="3"/>
<path opacity="0.393939" d="M165.691 149.844L343.239 77.755C350.715 74.7199 359.241 76.2978 364.579 81.7042L495.471 214.274C501.036 219.91 501.873 228.419 497.538 235.267L400.753 388.143C396.417 394.991 387.918 398.584 379.784 397.007L188.443 359.918C180.64 358.405 174.879 352.46 174.023 345.039L153.708 168.772C152.793 160.834 157.695 153.091 165.691 149.844Z" stroke="url(#paint38_linear_193_11)" stroke-width="3"/>
<path opacity="0.40404" d="M165.498 148.339L344.016 79.2347C351.559 76.3149 360.08 78.0381 365.329 83.5449L493.34 217.838C498.799 223.564 499.481 232.073 495.025 238.837L395.519 389.861C391.063 396.624 382.503 400.07 374.397 398.363L184.277 358.335C176.481 356.694 170.812 350.641 170.098 343.197L153.195 167.012C152.434 159.082 157.464 151.449 165.498 148.339Z" stroke="url(#paint39_linear_193_11)" stroke-width="3"/>
<path opacity="0.414141" d="M165.344 146.872L344.77 80.7621C352.379 77.9587 360.893 79.8278 366.052 85.4343L491.155 221.398C496.505 227.213 497.033 235.72 492.457 242.397L390.271 391.53C385.696 398.207 377.08 401.504 369.004 399.667L180.16 356.729C172.373 354.958 166.798 348.799 166.226 341.334L152.727 165.285C152.12 157.366 157.273 149.846 165.344 146.872Z" stroke="url(#paint40_linear_193_11)" stroke-width="3"/>
<path opacity="0.424242" d="M165.225 145.443L345.501 82.3353C353.174 79.6494 361.678 81.665 366.744 87.3702L488.913 224.953C494.154 230.855 494.527 239.357 489.835 245.946L385.011 393.149C380.319 399.737 371.649 402.885 363.606 400.919L176.091 355.099C168.316 353.199 162.838 346.934 162.408 339.449L152.301 163.592C151.847 155.686 157.121 148.28 165.225 145.443Z" stroke="url(#paint41_linear_193_11)" stroke-width="3"/>
<path opacity="0.434343" d="M165.141 144.053L346.207 83.9536C353.941 81.3863 362.433 83.5489 367.404 89.3519L486.616 228.501C491.745 234.488 491.964 242.983 487.158 249.481L379.737 394.717C374.93 401.215 366.211 404.212 358.202 402.118L172.071 353.446C164.309 351.416 158.929 345.046 158.642 337.544L151.917 161.932C151.615 154.043 157.007 146.753 165.141 144.053Z" stroke="url(#paint42_linear_193_11)" stroke-width="3"/>
<path opacity="0.444444" d="M165.093 142.702L346.888 85.6174C354.682 83.1699 363.159 85.4798 368.034 91.3798L484.265 232.042C489.281 238.112 489.347 246.598 484.428 253.004L374.453 396.235C369.534 402.642 360.767 405.488 352.797 403.265L168.102 351.771C160.355 349.611 155.076 343.137 154.932 335.62L151.576 160.307C151.426 152.437 156.932 145.265 165.093 142.702Z" stroke="url(#paint43_linear_193_11)" stroke-width="3"/>
<path opacity="0.454545" d="M165.079 141.392L347.543 87.3259C355.395 84.9993 363.854 87.457 368.63 93.4529L481.858 235.575C486.759 241.727 486.672 250.201 481.643 256.513L369.158 397.704C364.129 404.016 355.318 406.71 347.388 404.361L164.182 350.075C156.453 347.784 151.275 341.207 151.275 333.678L151.275 158.718C151.275 150.869 156.894 143.817 165.079 141.392Z" stroke="url(#paint44_linear_193_11)" stroke-width="3"/>
<path opacity="0.464646" d="M165.098 140.121L348.171 89.078C356.079 86.8733 364.518 89.4792 369.194 95.5699L479.398 239.099C484.183 245.331 483.943 253.79 478.806 260.008L363.855 399.121C358.718 405.338 349.866 407.88 341.978 405.403L160.312 348.358C152.603 345.937 147.53 339.258 147.674 331.719L151.016 157.164C151.165 149.339 156.892 142.409 165.098 140.121Z" stroke="url(#paint45_linear_193_11)" stroke-width="3"/>
<path opacity="0.474747" d="M165.15 138.89L348.772 90.8732C356.733 88.7914 365.149 91.5458 369.723 97.7303L476.883 242.612C481.55 248.923 481.159 257.366 475.916 263.486L358.544 400.488C353.3 406.608 344.412 408.996 336.569 406.393L156.493 346.622C148.806 344.07 143.839 337.29 144.128 329.742L150.795 155.646C151.093 147.848 156.926 141.041 165.15 138.89Z" stroke="url(#paint46_linear_193_11)" stroke-width="3"/>
<path opacity="0.484848" d="M165.234 137.7L349.345 92.7114C357.358 90.7536 365.748 93.6568 370.218 99.9338L474.315 246.116C478.863 252.502 478.321 260.926 472.974 266.948L353.226 401.804C347.879 407.825 338.956 410.06 331.16 407.331L152.724 344.867C145.062 342.185 140.203 335.304 140.638 327.75L150.613 154.166C151.06 146.397 156.994 139.714 165.234 137.7Z" stroke="url(#paint47_linear_193_11)" stroke-width="3"/>
<path opacity="0.494949" d="M165.348 136.551L349.889 94.5915C357.95 92.7586 366.312 95.8108 370.675 102.179L471.693 249.607C476.12 256.068 475.427 264.471 469.979 270.392L347.901 403.068C342.453 408.99 333.499 411.071 325.753 408.217L149.005 343.094C141.37 340.281 136.622 333.302 137.202 325.744L150.469 152.723C151.062 144.986 157.096 138.428 165.348 136.551Z" stroke="url(#paint48_linear_193_11)" stroke-width="3"/>
<path opacity="0.50505" d="M165.492 135.445L350.403 96.5143C358.511 94.8072 366.841 98.0085 371.096 104.467L469.018 253.087C473.323 259.62 472.48 268 466.932 273.82L342.572 404.283C337.024 410.103 328.043 412.031 320.349 409.052L145.337 341.306C137.732 338.361 133.096 331.284 133.821 323.725L150.361 151.319C151.1 143.616 157.231 137.185 165.492 135.445Z" stroke="url(#paint49_linear_193_11)" stroke-width="3"/>
<path opacity="0.515152" d="M165.666 134.381L350.886 98.4779C359.039 96.8976 367.334 100.248 371.479 106.796L466.29 256.553C470.472 263.158 469.48 271.511 463.835 277.228L337.239 405.447C331.594 411.164 322.588 412.937 314.948 409.835L141.72 339.5C134.147 336.425 129.626 329.252 130.497 321.693L150.29 149.954C151.174 142.288 157.398 135.984 165.666 134.381Z" stroke="url(#paint50_linear_193_11)" stroke-width="3"/>
<path opacity="0.525253" d="M165.869 133.359L351.339 100.481C359.534 99.0288 367.792 102.529 371.825 109.163L463.511 260.005C467.567 266.678 466.427 275.004 460.687 280.617L331.904 406.56C326.165 412.173 317.137 413.791 309.554 410.567L138.155 337.68C130.616 334.474 126.212 327.205 127.229 319.649L150.255 148.628C151.282 141.001 157.597 134.825 165.869 133.359Z" stroke="url(#paint51_linear_193_11)" stroke-width="3"/>
<path opacity="0.535354" d="M166.099 132.38L351.759 102.526C359.994 101.201 368.212 104.851 372.13 111.571L460.679 263.443C464.609 270.183 463.32 278.479 457.489 283.986L326.566 407.623C320.734 413.13 311.688 414.594 304.164 411.247L134.64 335.845C127.138 332.509 122.852 325.146 124.016 317.595L150.254 147.343C151.423 139.757 157.826 133.71 166.099 132.38Z" stroke="url(#paint52_linear_193_11)" stroke-width="3"/>
<path opacity="0.545455" d="M166.356 131.444L352.148 104.609C360.42 103.414 368.594 107.212 372.396 114.017L457.796 266.865C461.598 273.67 460.163 281.934 454.241 287.334L321.228 408.635C315.306 414.035 306.245 415.344 298.783 411.877L131.177 333.997C123.715 330.53 119.55 323.075 120.86 315.531L150.286 146.099C151.597 138.555 158.084 132.639 166.356 131.444Z" stroke="url(#paint53_linear_193_11)" stroke-width="3"/>
<path opacity="0.555556" d="M166.639 130.552L352.503 106.73C360.81 105.665 368.938 109.613 372.622 116.501L454.862 270.27C458.535 277.138 456.953 285.367 450.943 290.66L315.891 409.595C309.881 414.888 300.807 416.042 293.409 412.455L127.765 332.136C120.346 328.538 116.303 320.992 117.76 313.459L150.352 144.895C151.802 137.397 158.371 131.611 166.639 130.552Z" stroke="url(#paint54_linear_193_11)" stroke-width="3"/>
<path opacity="0.565657" d="M166.947 129.703L352.824 108.89C361.163 107.956 369.242 112.053 372.805 119.022L451.876 273.659C455.419 280.588 453.692 288.781 447.597 293.964L310.554 410.506C304.458 415.69 295.376 416.689 288.043 412.983L124.404 330.263C117.03 326.535 113.112 318.9 114.716 311.379L150.449 143.733C152.037 136.282 158.686 130.629 166.947 129.703Z" stroke="url(#paint55_linear_193_11)" stroke-width="3"/>
<path opacity="0.575758" d="M167.28 128.899L353.112 111.087C361.481 110.285 369.507 114.53 372.948 121.578L448.842 277.029C452.253 284.016 450.382 292.171 444.203 297.245L305.221 411.366C299.042 416.44 289.953 417.285 282.689 413.46L121.096 328.379C113.769 324.521 109.979 316.799 111.728 309.292L150.578 142.613C152.303 135.212 159.028 129.69 167.28 128.899Z" stroke="url(#paint56_linear_193_11)" stroke-width="3"/>
<path opacity="0.585859" d="M167.635 128.14L353.363 113.321C361.76 112.651 369.73 117.044 373.047 124.17L445.756 280.381C449.035 287.425 447.02 295.539 440.76 300.502L299.89 412.176C293.629 417.139 284.538 417.829 277.345 413.888L117.838 326.486C110.561 322.498 106.9 314.69 108.796 307.2L150.736 141.537C152.596 134.186 159.395 128.797 167.635 128.14Z" stroke="url(#paint57_linear_193_11)" stroke-width="3"/>
<path opacity="0.59596" d="M168.015 127.424L353.58 115.591C362.002 115.054 369.912 119.594 373.103 126.796L442.622 283.713C445.768 290.812 443.61 298.883 437.27 303.734L294.564 412.936C288.225 417.787 279.133 418.323 272.013 414.265L114.632 324.582C107.409 320.466 103.879 312.573 105.922 305.103L150.924 140.503C152.919 133.205 159.788 127.949 168.015 127.424Z" stroke="url(#paint58_linear_193_11)" stroke-width="3"/>
<path opacity="0.606061" d="M168.414 126.755L353.76 117.896C362.203 117.493 370.051 122.18 373.114 129.457L439.439 287.025C442.449 294.176 440.15 302.204 433.733 306.942L289.243 413.645C282.827 418.384 273.739 418.766 266.694 414.594L111.477 322.67C104.31 318.426 100.913 310.451 103.102 303.003L151.139 139.513C153.266 132.27 160.204 127.147 168.414 126.755Z" stroke="url(#paint59_linear_193_11)" stroke-width="3"/>
<path opacity="0.616162" d="M168.836 126.13L353.904 120.236C362.367 119.967 370.149 124.801 373.082 132.149L436.208 290.316C439.083 297.518 436.642 305.499 430.151 310.123L283.93 414.305C277.439 418.93 268.357 419.159 261.39 414.873L108.374 320.751C101.266 316.378 98.0053 308.323 100.339 300.899L151.382 138.566C153.642 131.38 160.644 126.391 168.836 126.13Z" stroke="url(#paint60_linear_193_11)" stroke-width="3"/>
<path opacity="0.626263" d="M169.278 125.552L354.01 122.611C362.49 122.476 370.203 127.455 373.004 134.873L432.929 293.586C435.667 300.836 433.086 308.768 426.523 313.278L278.623 414.916C272.06 419.426 262.987 419.502 256.1 415.104L105.323 318.825C98.2755 314.325 95.1527 306.191 97.6323 298.795L151.651 137.664C154.041 130.537 161.107 125.682 169.278 125.552Z" stroke="url(#paint61_linear_193_11)" stroke-width="3"/>
<path opacity="0.636364" d="M169.738 125.019L354.078 125.019C362.572 125.019 370.213 130.143 372.88 137.629L429.603 296.833C432.202 304.129 429.483 312.011 422.849 316.406L273.324 415.477C266.691 419.872 257.63 419.795 250.825 415.286L102.322 316.892C95.3391 312.266 92.3561 304.056 94.9809 296.689L151.945 136.808C154.463 129.741 161.59 125.019 169.738 125.019Z" stroke="url(#paint62_linear_193_11)" stroke-width="3"/>
<path opacity="0.646465" d="M170.217 124.532L354.109 127.459C362.614 127.595 370.178 132.863 372.71 140.414L426.23 300.057C428.691 307.397 425.833 315.227 419.132 319.506L268.036 415.989C261.335 420.268 252.289 420.039 245.568 415.42L99.3726 314.954C92.4574 310.202 89.6162 301.918 92.3857 294.583L152.264 135.996C154.909 128.99 162.094 124.403 170.217 124.532Z" stroke="url(#paint63_linear_193_11)" stroke-width="3"/>
<path opacity="0.656566" d="M170.713 124.092L354.1 129.932C362.614 130.203 370.099 135.614 372.493 143.228L422.812 303.258C425.132 310.639 422.137 318.415 415.37 322.577L262.758 416.452C255.991 420.614 246.963 420.234 240.328 415.506L96.4749 313.012C89.63 308.135 86.9326 299.779 89.8464 292.479L152.607 135.229C155.377 128.287 162.617 123.834 170.713 124.092Z" stroke="url(#paint64_linear_193_11)" stroke-width="3"/>
<path opacity="0.666667" d="M171.225 123.697L354.051 132.435C362.571 132.842 369.973 138.395 372.228 146.07L419.346 306.433C421.527 313.853 418.395 321.573 411.565 325.619L257.491 416.865C250.66 420.911 241.653 420.379 235.106 415.545L93.6273 311.065C86.8555 306.064 84.304 297.639 87.3615 290.375L152.97 134.508C155.865 127.631 163.159 123.312 171.225 123.697Z" stroke="url(#paint65_linear_193_11)" stroke-width="3"/>
<path opacity="0.676768" d="M171.753 123.35L353.963 134.969C362.486 135.513 369.802 141.206 371.917 148.94L415.837 309.584C417.876 317.041 414.609 324.703 407.717 328.631L252.236 417.231C245.344 421.159 236.36 420.477 229.904 415.537L90.8314 309.116C84.1357 303.992 81.7319 295.5 84.9326 288.276L153.356 133.833C156.373 127.023 163.718 122.838 171.753 123.35Z" stroke="url(#paint66_linear_193_11)" stroke-width="3"/>
<path opacity="0.686869" d="M172.296 123.049L353.835 137.533C362.358 138.213 369.585 144.046 371.557 151.836L412.283 312.708C414.18 320.2 410.779 327.803 403.828 331.612L246.996 417.549C240.044 421.358 231.087 420.527 224.724 415.482L88.0868 307.164C81.4702 301.919 79.2161 293.362 82.5592 286.18L153.763 133.205C156.901 126.462 164.295 122.411 172.296 123.049Z" stroke="url(#paint67_linear_193_11)" stroke-width="3"/>
<path opacity="0.69697" d="M172.853 122.796L353.665 140.127C362.186 140.943 369.32 146.913 371.148 154.757L408.685 315.807C410.439 323.331 406.905 330.872 399.897 334.563L241.769 417.819C234.76 421.509 225.832 420.529 219.563 415.382L85.3923 305.211C78.8576 299.845 76.7553 291.227 80.2401 284.089L154.188 132.623C157.446 125.95 164.886 122.032 172.853 122.796Z" stroke="url(#paint68_linear_193_11)" stroke-width="3"/>
<path opacity="0.707071" d="M173.422 122.59L353.455 142.749C361.97 143.703 369.008 149.808 370.69 157.703L405.045 318.878C406.655 326.433 402.989 333.911 395.925 337.482L236.558 418.042C229.494 421.613 220.597 420.485 214.425 415.237L82.7487 303.258C76.2987 297.773 74.3499 289.095 77.9757 282.004L154.632 132.088C158.008 125.486 165.493 121.702 173.422 122.59Z" stroke="url(#paint69_linear_193_11)" stroke-width="3"/>
<path opacity="0.717172" d="M174.004 122.431L353.204 145.398C361.711 146.489 368.648 152.729 370.184 160.672L401.362 321.922C402.828 329.504 399.031 336.917 391.914 340.368L231.364 418.217C224.247 421.668 215.384 420.393 209.311 415.045L80.1564 301.304C73.7942 295.701 72.0007 286.966 75.7666 279.925L155.094 131.6C158.587 125.07 166.114 121.42 174.004 122.431Z" stroke="url(#paint70_linear_193_11)" stroke-width="3"/>
<path opacity="0.727273" d="M174.596 122.32L352.909 148.075C361.405 149.302 368.24 155.675 369.627 163.664L397.636 324.937C398.958 332.544 395.031 339.891 387.863 343.222L226.186 418.347C219.018 421.677 210.192 420.256 204.22 414.81L77.6134 299.351C71.3419 293.632 69.7054 284.844 73.6105 277.854L155.572 131.16C159.18 124.703 166.747 121.186 174.596 122.32Z" stroke="url(#paint71_linear_193_11)" stroke-width="3"/>
<path opacity="0.737374" d="M175.198 122.256L352.572 150.778C361.054 152.142 367.782 158.646 369.02 166.677L393.869 327.923C395.045 335.554 390.989 342.832 383.772 346.042L221.026 418.429C213.809 421.639 205.023 420.073 199.153 414.53L75.1201 297.4C68.9422 291.566 67.4646 282.726 71.5079 275.792L156.064 130.767C159.786 124.384 167.392 121.001 175.198 122.256Z" stroke="url(#paint72_linear_193_11)" stroke-width="3"/>
<path opacity="0.747475" d="M175.81 122.241L352.193 153.507C360.657 155.008 367.276 161.64 368.363 169.712L390.062 330.88C391.092 338.531 386.909 345.739 379.645 348.828L215.885 418.467C208.621 421.556 199.877 419.845 194.112 414.208L72.6776 295.451C66.5961 289.504 65.2789 280.617 69.4594 273.739L156.572 130.422C160.406 124.115 168.048 120.865 175.81 122.241Z" stroke="url(#paint73_linear_193_11)" stroke-width="3"/>
<path opacity="0.757576" d="M176.431 122.272L351.771 156.26C360.215 157.897 366.721 164.656 367.655 172.765L386.216 333.807C387.1 341.476 382.789 348.612 375.48 351.579L210.765 418.458C203.456 421.426 194.757 419.572 189.099 413.841L70.2853 293.505C64.3032 287.446 63.148 278.514 67.4646 271.696L157.093 130.124C161.038 123.893 168.714 120.776 176.431 122.272Z" stroke="url(#paint74_linear_193_11)" stroke-width="3"/>
<path opacity="0.767677" d="M177.059 122.352L351.305 159.038C359.726 160.811 366.116 167.695 366.897 175.837L382.33 336.703C383.067 344.388 378.631 351.45 371.279 354.296L205.665 418.405C198.314 421.251 189.661 419.255 184.112 413.433L67.9422 291.562C62.0622 285.394 61.0705 276.42 65.5221 269.664L157.626 129.874C161.68 123.722 169.389 120.737 177.059 122.352Z" stroke="url(#paint75_linear_193_11)" stroke-width="3"/>
<path opacity="0.777778" d="M177.692 122.48L350.794 161.839C359.19 163.748 365.46 170.754 366.087 178.927L378.404 339.568C378.995 347.266 374.434 354.253 367.041 356.977L200.587 418.307C193.194 421.031 184.591 418.894 179.152 412.982L65.6479 289.624C59.8729 283.348 59.0462 274.336 63.6314 267.645L158.17 129.673C162.332 123.599 170.072 120.747 177.692 122.48Z" stroke="url(#paint76_linear_193_11)" stroke-width="3"/>
<path opacity="0.787879" d="M178.332 122.656L350.24 164.663C358.607 166.707 364.754 173.834 365.226 182.035L374.442 342.401C374.885 350.11 370.201 357.02 362.769 359.622L195.531 418.166C188.1 420.768 179.549 418.49 174.221 412.491L63.4032 287.692C57.736 281.31 57.0756 272.263 61.7933 265.638L158.724 129.52C162.992 123.526 170.762 120.806 178.332 122.656Z" stroke="url(#paint77_linear_193_11)" stroke-width="3"/>
<path opacity="0.79798" d="M178.975 122.879L349.641 167.508C357.976 169.688 363.998 176.931 364.313 185.157L370.441 345.201C370.737 352.919 365.931 359.75 358.462 362.23L190.499 417.98C183.03 420.459 174.533 418.043 169.32 411.958L61.207 285.764C55.6503 279.278 55.1574 270.2 60.0061 263.644L159.287 129.414C163.661 123.502 171.458 120.914 178.975 122.879Z" stroke="url(#paint78_linear_193_11)" stroke-width="3"/>
<path opacity="0.808081" d="M179.623 123.151L348.998 170.375C357.298 172.689 363.191 180.047 363.349 188.295L366.405 347.969C366.553 355.693 361.626 362.444 354.122 364.8L185.491 417.752C177.987 420.108 169.547 417.555 164.449 411.385L59.0598 283.844C53.6164 277.256 53.2923 268.15 58.2707 261.666L159.859 129.357C164.336 123.527 172.159 121.07 179.623 123.151Z" stroke="url(#paint79_linear_193_11)" stroke-width="3"/>
<path opacity="0.818182" d="M180.274 123.471L348.31 173.262C356.572 175.71 362.333 183.18 362.333 191.446L362.333 350.703C362.333 358.431 357.286 365.1 349.749 367.333L180.508 417.481C172.971 419.714 164.59 417.024 159.609 410.772L56.9616 281.93C51.6341 275.243 51.4799 266.112 56.5864 259.702L160.438 129.348C165.017 123.601 172.865 121.276 180.274 123.471Z" stroke="url(#paint80_linear_193_11)" stroke-width="3"/>
<path opacity="0.828283" d="M180.926 123.839L347.576 176.168C355.798 178.75 361.424 186.329 361.265 194.61L358.226 353.404C358.078 361.132 352.913 367.718 345.344 369.828L175.551 417.168C167.983 419.278 159.662 416.453 154.801 410.121L54.9112 280.025C49.7022 273.241 49.719 264.088 54.952 257.755L161.024 129.388C165.703 123.724 173.573 121.53 180.926 123.839Z" stroke="url(#paint81_linear_193_11)" stroke-width="3"/>
<path opacity="0.838384" d="M181.578 124.254L346.796 179.094C354.974 181.808 360.463 189.494 360.145 197.786L354.084 356.07C353.788 363.797 348.506 370.297 340.908 372.284L170.621 416.814C163.023 418.8 154.766 415.841 150.025 409.431L52.9082 278.128C47.8204 271.249 48.009 262.078 53.367 255.824L161.613 129.475C166.393 123.896 174.284 121.833 181.578 124.254Z" stroke="url(#paint82_linear_193_11)" stroke-width="3"/>
<path opacity="0.848485" d="M182.231 124.718L345.971 182.038C354.102 184.884 359.451 192.673 358.974 200.974L349.91 358.702C349.466 366.425 344.067 372.838 336.441 374.702L165.718 416.419C158.093 418.282 149.901 415.189 145.282 408.703L50.9537 276.24C45.9895 269.269 46.3508 260.085 51.832 253.912L162.208 129.611C167.085 124.118 174.996 122.185 182.231 124.718Z" stroke="url(#paint83_linear_193_11)" stroke-width="3"/>
<path opacity="0.858586" d="M182.883 125.229L345.1 184.998C353.182 187.976 358.387 195.865 357.75 204.171L345.702 361.297C345.11 369.014 339.597 375.339 331.945 377.079L160.844 415.983C153.193 417.723 145.068 414.498 140.573 407.938L49.0463 274.362C44.2082 267.301 44.7429 258.107 50.3457 252.018L162.805 129.794C167.779 124.389 175.709 122.586 182.883 125.229Z" stroke="url(#paint84_linear_193_11)" stroke-width="3"/>
<path opacity="0.868687" d="M183.533 125.789L344.182 187.976C352.211 191.084 357.271 199.07 356.474 207.377L341.462 363.858C340.723 371.566 335.095 377.801 327.42 379.417L155.998 415.508C148.323 417.124 140.268 413.769 135.898 407.137L47.1859 272.495C42.4763 265.347 43.185 256.146 48.9075 250.143L163.405 130.026C168.474 124.708 176.42 123.035 183.533 125.789Z" stroke="url(#paint85_linear_193_11)" stroke-width="3"/>
<path opacity="0.878788" d="M184.18 126.396L343.218 190.97C351.192 194.207 356.103 202.287 355.146 210.592L337.191 366.382C336.304 374.079 330.565 380.222 322.867 381.714L151.182 414.994C143.485 416.486 135.502 413.002 131.259 406.3L45.3723 270.639C40.7936 263.407 41.6768 254.204 47.5172 248.288L164.005 130.307C169.169 125.077 177.13 123.534 184.18 126.396Z" stroke="url(#paint86_linear_193_11)" stroke-width="3"/>
<path opacity="0.888889" d="M184.822 127.051L342.207 193.978C350.122 197.344 354.883 205.514 353.765 213.814L332.889 368.87C331.854 376.553 326.004 382.603 318.286 383.971L146.396 414.441C138.679 415.809 130.769 412.198 126.654 405.428L43.6043 268.795C39.1588 261.481 40.2169 252.279 46.1733 246.454L164.605 130.634C169.861 125.494 177.837 124.08 184.822 127.051Z" stroke="url(#paint87_linear_193_11)" stroke-width="3"/>
<path opacity="0.89899" d="M185.461 127.753L341.149 197.001C349.003 200.494 353.611 208.752 352.334 217.043L328.558 371.32C327.376 378.987 321.416 384.942 313.68 386.186L141.642 413.85C133.906 415.094 126.072 411.357 122.087 404.521L41.8839 266.963C37.5737 259.571 38.807 250.374 44.8773 244.642L165.205 131.01C170.553 125.96 178.542 124.675 185.461 127.753Z" stroke="url(#paint88_linear_193_11)" stroke-width="3"/>
<path opacity="0.909091" d="M186.093 128.503L340.045 200.038C347.835 203.658 352.287 211.999 350.85 220.277L324.198 373.734C322.869 381.382 316.801 387.241 309.048 388.361L136.92 413.223C129.167 414.343 121.411 410.481 117.556 403.581L40.2088 265.146C36.0361 257.677 37.4447 248.49 43.6269 242.852L165.803 131.434C171.241 126.475 179.241 125.319 186.093 128.503Z" stroke="url(#paint89_linear_193_11)" stroke-width="3"/>
<path opacity="0.919192" d="M186.719 129.299L338.892 203.087C346.615 206.832 350.911 215.252 349.313 223.515L319.809 376.109C318.334 383.736 312.159 389.497 304.392 390.493L132.23 412.558C124.462 413.553 116.785 409.568 113.062 402.607L38.5789 263.341C34.5457 255.8 36.1297 246.625 42.4217 241.084L166.398 131.904C171.925 127.036 179.935 126.01 186.719 129.299Z" stroke="url(#paint90_linear_193_11)" stroke-width="3"/>
<path opacity="0.929293" d="M187.337 130.143L337.693 206.148C345.346 210.017 349.482 218.514 347.725 226.757L315.393 378.447C313.772 386.05 307.492 391.711 299.711 392.583L127.572 411.857C119.792 412.729 112.196 408.621 108.606 401.601L36.994 261.551C33.1023 253.94 34.8616 244.783 41.2613 239.34L166.988 132.422C172.603 127.647 180.622 126.749 187.337 130.143Z" stroke="url(#paint91_linear_193_11)" stroke-width="3"/>
<path opacity="0.939394" d="M187.947 131.034L336.446 209.221C344.027 213.212 348.002 221.782 346.086 230.002L310.951 380.746C309.185 388.323 302.8 393.883 295.008 394.63L122.95 411.122C115.158 411.869 107.645 407.64 104.19 400.564L35.455 259.776C31.7067 252.098 33.6411 242.963 40.1463 237.621L167.575 132.986C173.276 128.305 181.303 127.536 187.947 131.034Z" stroke="url(#paint92_linear_193_11)" stroke-width="3"/>
<path opacity="0.949495" d="M188.547 131.972L335.152 212.305C342.658 216.417 346.47 225.056 344.395 233.25L306.483 383.007C304.572 390.555 298.085 396.013 290.283 396.635L118.361 410.352C110.559 410.975 103.131 406.627 99.8121 399.496L33.9599 258.018C30.3566 250.277 32.4659 241.166 39.0742 235.927L168.155 133.599C173.942 129.012 181.975 128.371 188.547 131.972Z" stroke="url(#paint93_linear_193_11)" stroke-width="3"/>
<path opacity="0.959596" d="M189.137 132.955L333.811 215.397C341.238 219.63 344.885 228.333 342.653 236.497L301.99 385.227C299.935 392.745 293.346 398.098 285.537 398.596L113.808 409.547C105.998 410.045 98.657 405.58 95.4743 398.397L32.5092 256.275C29.0528 248.473 31.3364 239.392 38.0457 234.258L168.73 134.257C174.6 129.765 182.639 129.252 189.137 132.955Z" stroke="url(#paint94_linear_193_11)" stroke-width="3"/>
<path opacity="0.969697" d="M189.716 133.986L332.421 218.499C339.768 222.85 343.249 231.615 340.86 239.746L297.473 387.409C295.274 394.894 288.586 400.141 280.77 400.515L109.29 408.71C101.474 409.084 94.2213 404.503 91.1764 397.269L31.1021 254.55C27.7942 246.691 30.2516 237.643 37.0593 232.616L169.296 134.962C175.249 130.566 183.292 130.181 189.716 133.986Z" stroke="url(#paint95_linear_193_11)" stroke-width="3"/>
<path opacity="0.979798" d="M190.282 135.061L330.984 221.609C338.247 226.076 341.56 234.898 339.015 242.992L292.933 389.55C290.591 396.999 283.804 402.139 275.984 402.388L104.808 407.839C96.988 408.088 89.8252 403.392 86.9191 396.111L29.7384 252.841C26.5804 244.929 29.2108 235.918 36.1147 230.999L169.853 135.711C175.888 131.412 183.934 131.156 190.282 135.061Z" stroke="url(#paint96_linear_193_11)" stroke-width="3"/>
<path opacity="0.989899" d="M190.835 136.183L329.498 224.727C336.675 229.31 339.819 238.184 337.119 246.238L288.369 391.653C285.885 399.063 279.002 404.094 271.179 404.219L100.362 406.938C92.5396 407.063 85.4685 402.253 82.7022 394.926L28.4169 251.152C25.4102 243.189 28.213 234.22 35.2105 229.411L170.4 136.508C176.515 132.306 184.563 132.178 190.835 136.183Z" stroke="url(#paint97_linear_193_11)" stroke-width="3"/>
<path d="M191.375 137.35L327.965 227.851C335.054 232.548 338.028 241.472 335.174 249.482L283.785 393.714C281.159 401.084 274.182 406.005 266.358 406.005H95.9551C88.1316 406.005 81.1539 401.084 78.5282 393.714L27.1394 249.482C24.2854 241.472 27.2595 232.547 34.3482 227.851L170.938 137.35C177.132 133.246 185.181 133.246 191.375 137.35Z" stroke="url(#paint98_linear_193_11)" stroke-width="3"/>
</g>
<defs>
<linearGradient id="paint0_linear_193_11" x1="419.049" y1="324.108" x2="390.63" y2="102.373" gradientUnits="userSpaceOnUse">
<stop stop-color="#FF5B79"/>
<stop offset="1" stop-color="#00F0FF"/>
</linearGradient>
<linearGradient id="paint1_linear_193_11" x1="414.693" y1="324.85" x2="389.872" y2="103.18" gradientUnits="userSpaceOnUse">
<stop stop-color="#FF5B79"/>
<stop offset="1" stop-color="#00F0FF"/>
</linearGradient>
<linearGradient id="paint2_linear_193_11" x1="410.339" y1="325.558" x2="389.103" y2="104" gradientUnits="userSpaceOnUse">
<stop stop-color="#FF5B79"/>
<stop offset="1" stop-color="#00F0FF"/>
</linearGradient>
<linearGradient id="paint3_linear_193_11" x1="405.99" y1="326.234" x2="388.325" y2="104.834" gradientUnits="userSpaceOnUse">
<stop stop-color="#FF5B79"/>
<stop offset="1" stop-color="#00F0FF"/>
</linearGradient>
<linearGradient id="paint4_linear_193_11" x1="401.644" y1="326.876" x2="387.538" y2="105.68" gradientUnits="userSpaceOnUse">
<stop stop-color="#FF5B79"/>
<stop offset="1" stop-color="#00F0FF"/>
</linearGradient>
<linearGradient id="paint5_linear_193_11" x1="397.304" y1="327.483" x2="386.744" y2="106.537" gradientUnits="userSpaceOnUse">
<stop stop-color="#FF5B79"/>
<stop offset="1" stop-color="#00F0FF"/>
</linearGradient>
<linearGradient id="paint6_linear_193_11" x1="392.969" y1="328.057" x2="385.942" y2="107.406" gradientUnits="userSpaceOnUse">
<stop stop-color="#FF5B79"/>
<stop offset="1" stop-color="#00F0FF"/>
</linearGradient>
<linearGradient id="paint7_linear_193_11" x1="388.64" y1="328.599" x2="385.133" y2="108.288" gradientUnits="userSpaceOnUse">
<stop stop-color="#FF5B79"/>
<stop offset="1" stop-color="#00F0FF"/>
</linearGradient>
<linearGradient id="paint8_linear_193_11" x1="384.318" y1="329.107" x2="384.318" y2="109.182" gradientUnits="userSpaceOnUse">
<stop stop-color="#FF5B79"/>
<stop offset="1" stop-color="#00F0FF"/>
</linearGradient>
<linearGradient id="paint9_linear_193_11" x1="380.004" y1="329.582" x2="383.498" y2="110.086" gradientUnits="userSpaceOnUse">
<stop stop-color="#FF5B79"/>
<stop offset="1" stop-color="#00F0FF"/>
</linearGradient>
<linearGradient id="paint10_linear_193_11" x1="375.698" y1="330.025" x2="382.673" y2="111.003" gradientUnits="userSpaceOnUse">
<stop stop-color="#FF5B79"/>
<stop offset="1" stop-color="#00F0FF"/>
</linearGradient>
<linearGradient id="paint11_linear_193_11" x1="371.4" y1="330.434" x2="381.843" y2="111.93" gradientUnits="userSpaceOnUse">
<stop stop-color="#FF5B79"/>
<stop offset="1" stop-color="#00F0FF"/>
</linearGradient>
<linearGradient id="paint12_linear_193_11" x1="367.112" y1="330.813" x2="381.01" y2="112.869" gradientUnits="userSpaceOnUse">
<stop stop-color="#FF5B79"/>
<stop offset="1" stop-color="#00F0FF"/>
</linearGradient>
<linearGradient id="paint13_linear_193_11" x1="362.834" y1="331.158" x2="380.175" y2="113.82" gradientUnits="userSpaceOnUse">
<stop stop-color="#FF5B79"/>
<stop offset="1" stop-color="#00F0FF"/>
</linearGradient>
<linearGradient id="paint14_linear_193_11" x1="358.567" y1="331.472" x2="379.336" y2="114.783" gradientUnits="userSpaceOnUse">
<stop stop-color="#FF5B79"/>
<stop offset="1" stop-color="#00F0FF"/>
</linearGradient>
<linearGradient id="paint15_linear_193_11" x1="354.311" y1="331.754" x2="378.497" y2="115.758" gradientUnits="userSpaceOnUse">
<stop stop-color="#FF5B79"/>
<stop offset="1" stop-color="#00F0FF"/>
</linearGradient>
<linearGradient id="paint16_linear_193_11" x1="350.066" y1="332.005" x2="377.655" y2="116.745" gradientUnits="userSpaceOnUse">
<stop stop-color="#FF5B79"/>
<stop offset="1" stop-color="#00F0FF"/>
</linearGradient>
<linearGradient id="paint17_linear_193_11" x1="345.834" y1="332.225" x2="376.813" y2="117.744" gradientUnits="userSpaceOnUse">
<stop stop-color="#FF5B79"/>
<stop offset="1" stop-color="#00F0FF"/>
</linearGradient>
<linearGradient id="paint18_linear_193_11" x1="341.616" y1="332.414" x2="375.972" y2="118.756" gradientUnits="userSpaceOnUse">
<stop stop-color="#FF5B79"/>
<stop offset="1" stop-color="#00F0FF"/>
</linearGradient>
<linearGradient id="paint19_linear_193_11" x1="337.41" y1="332.571" x2="375.13" y2="119.78" gradientUnits="userSpaceOnUse">
<stop stop-color="#FF5B79"/>
<stop offset="1" stop-color="#00F0FF"/>
</linearGradient>
<linearGradient id="paint20_linear_193_11" x1="333.219" y1="332.7" x2="374.29" y2="120.819" gradientUnits="userSpaceOnUse">
<stop stop-color="#FF5B79"/>
<stop offset="1" stop-color="#00F0FF"/>
</linearGradient>
<linearGradient id="paint21_linear_193_11" x1="329.042" y1="332.798" x2="373.45" y2="121.871" gradientUnits="userSpaceOnUse">
<stop stop-color="#FF5B79"/>
<stop offset="1" stop-color="#00F0FF"/>
</linearGradient>
<linearGradient id="paint22_linear_193_11" x1="324.88" y1="332.866" x2="372.613" y2="122.937" gradientUnits="userSpaceOnUse">
<stop stop-color="#FF5B79"/>
<stop offset="1" stop-color="#00F0FF"/>
</linearGradient>
<linearGradient id="paint23_linear_193_11" x1="320.735" y1="332.905" x2="371.777" y2="124.018" gradientUnits="userSpaceOnUse">
<stop stop-color="#FF5B79"/>
<stop offset="1" stop-color="#00F0FF"/>
</linearGradient>
<linearGradient id="paint24_linear_193_11" x1="316.606" y1="332.914" x2="370.945" y2="125.114" gradientUnits="userSpaceOnUse">
<stop stop-color="#FF5B79"/>
<stop offset="1" stop-color="#00F0FF"/>
</linearGradient>
<linearGradient id="paint25_linear_193_11" x1="312.493" y1="332.895" x2="370.114" y2="126.226" gradientUnits="userSpaceOnUse">
<stop stop-color="#FF5B79"/>
<stop offset="1" stop-color="#00F0FF"/>
</linearGradient>
<linearGradient id="paint26_linear_193_11" x1="308.398" y1="332.847" x2="369.287" y2="127.354" gradientUnits="userSpaceOnUse">
<stop stop-color="#FF5B79"/>
<stop offset="1" stop-color="#00F0FF"/>
</linearGradient>
<linearGradient id="paint27_linear_193_11" x1="304.321" y1="332.772" x2="368.464" y2="128.499" gradientUnits="userSpaceOnUse">
<stop stop-color="#FF5B79"/>
<stop offset="1" stop-color="#00F0FF"/>
</linearGradient>
<linearGradient id="paint28_linear_193_11" x1="300.263" y1="332.668" x2="367.645" y2="129.662" gradientUnits="userSpaceOnUse">
<stop stop-color="#FF5B79"/>
<stop offset="1" stop-color="#00F0FF"/>
</linearGradient>
<linearGradient id="paint29_linear_193_11" x1="296.223" y1="332.537" x2="366.829" y2="130.843" gradientUnits="userSpaceOnUse">
<stop stop-color="#FF5B79"/>
<stop offset="1" stop-color="#00F0FF"/>
</linearGradient>
<linearGradient id="paint30_linear_193_11" x1="292.202" y1="332.38" x2="366.017" y2="132.043" gradientUnits="userSpaceOnUse">
<stop stop-color="#FF5B79"/>
<stop offset="1" stop-color="#00F0FF"/>
</linearGradient>
<linearGradient id="paint31_linear_193_11" x1="288.203" y1="332.194" x2="365.21" y2="133.261" gradientUnits="userSpaceOnUse">
<stop stop-color="#FF5B79"/>
<stop offset="1" stop-color="#00F0FF"/>
</linearGradient>
<linearGradient id="paint32_linear_193_11" x1="284.222" y1="331.984" x2="364.405" y2="134.501" gradientUnits="userSpaceOnUse">
<stop stop-color="#FF5B79"/>
<stop offset="1" stop-color="#00F0FF"/>
</linearGradient>
<linearGradient id="paint33_linear_193_11" x1="280.264" y1="331.746" x2="363.606" y2="135.761" gradientUnits="userSpaceOnUse">
<stop stop-color="#FF5B79"/>
<stop offset="1" stop-color="#00F0FF"/>
</linearGradient>
<linearGradient id="paint34_linear_193_11" x1="276.326" y1="331.485" x2="362.811" y2="137.044" gradientUnits="userSpaceOnUse">
<stop stop-color="#FF5B79"/>
<stop offset="1" stop-color="#00F0FF"/>
</linearGradient>
<linearGradient id="paint35_linear_193_11" x1="272.41" y1="331.197" x2="362.019" y2="138.348" gradientUnits="userSpaceOnUse">
<stop stop-color="#FF5B79"/>
<stop offset="1" stop-color="#00F0FF"/>
</linearGradient>
<linearGradient id="paint36_linear_193_11" x1="268.517" y1="330.885" x2="361.232" y2="139.676" gradientUnits="userSpaceOnUse">
<stop stop-color="#FF5B79"/>
<stop offset="1" stop-color="#00F0FF"/>
</linearGradient>
<linearGradient id="paint37_linear_193_11" x1="264.646" y1="330.548" x2="360.449" y2="141.028" gradientUnits="userSpaceOnUse">
<stop stop-color="#FF5B79"/>
<stop offset="1" stop-color="#00F0FF"/>
</linearGradient>
<linearGradient id="paint38_linear_193_11" x1="260.798" y1="330.188" x2="359.668" y2="142.404" gradientUnits="userSpaceOnUse">
<stop stop-color="#FF5B79"/>
<stop offset="1" stop-color="#00F0FF"/>
</linearGradient>
<linearGradient id="paint39_linear_193_11" x1="256.974" y1="329.803" x2="358.891" y2="143.806" gradientUnits="userSpaceOnUse">
<stop stop-color="#FF5B79"/>
<stop offset="1" stop-color="#00F0FF"/>
</linearGradient>
<linearGradient id="paint40_linear_193_11" x1="253.174" y1="329.396" x2="358.118" y2="145.235" gradientUnits="userSpaceOnUse">
<stop stop-color="#FF5B79"/>
<stop offset="1" stop-color="#00F0FF"/>
</linearGradient>
<linearGradient id="paint41_linear_193_11" x1="249.398" y1="328.967" x2="357.347" y2="146.691" gradientUnits="userSpaceOnUse">
<stop stop-color="#FF5B79"/>
<stop offset="1" stop-color="#00F0FF"/>
</linearGradient>
<linearGradient id="paint42_linear_193_11" x1="245.646" y1="328.515" x2="356.577" y2="148.175" gradientUnits="userSpaceOnUse">
<stop stop-color="#FF5B79"/>
<stop offset="1" stop-color="#00F0FF"/>
</linearGradient>
<linearGradient id="paint43_linear_193_11" x1="241.921" y1="328.042" x2="355.809" y2="149.688" gradientUnits="userSpaceOnUse">
<stop stop-color="#FF5B79"/>
<stop offset="1" stop-color="#00F0FF"/>
</linearGradient>
<linearGradient id="paint44_linear_193_11" x1="238.22" y1="327.547" x2="355.042" y2="151.23" gradientUnits="userSpaceOnUse">
<stop stop-color="#FF5B79"/>
<stop offset="1" stop-color="#00F0FF"/>
</linearGradient>
<linearGradient id="paint45_linear_193_11" x1="234.546" y1="327.032" x2="354.276" y2="152.803" gradientUnits="userSpaceOnUse">
<stop stop-color="#FF5B79"/>
<stop offset="1" stop-color="#00F0FF"/>
</linearGradient>
<linearGradient id="paint46_linear_193_11" x1="230.897" y1="326.496" x2="353.51" y2="154.406" gradientUnits="userSpaceOnUse">
<stop stop-color="#FF5B79"/>
<stop offset="1" stop-color="#00F0FF"/>
</linearGradient>
<linearGradient id="paint47_linear_193_11" x1="227.276" y1="325.94" x2="352.743" y2="156.042" gradientUnits="userSpaceOnUse">
<stop stop-color="#FF5B79"/>
<stop offset="1" stop-color="#00F0FF"/>
</linearGradient>
<linearGradient id="paint48_linear_193_11" x1="223.681" y1="325.364" x2="351.973" y2="157.709" gradientUnits="userSpaceOnUse">
<stop stop-color="#FF5B79"/>
<stop offset="1" stop-color="#00F0FF"/>
</linearGradient>
<linearGradient id="paint49_linear_193_11" x1="220.113" y1="324.771" x2="351.201" y2="159.411" gradientUnits="userSpaceOnUse">
<stop stop-color="#FF5B79"/>
<stop offset="1" stop-color="#00F0FF"/>
</linearGradient>
<linearGradient id="paint50_linear_193_11" x1="216.573" y1="324.159" x2="350.425" y2="161.147" gradientUnits="userSpaceOnUse">
<stop stop-color="#FF5B79"/>
<stop offset="1" stop-color="#00F0FF"/>
</linearGradient>
<linearGradient id="paint51_linear_193_11" x1="213.061" y1="323.528" x2="349.646" y2="162.916" gradientUnits="userSpaceOnUse">
<stop stop-color="#FF5B79"/>
<stop offset="1" stop-color="#00F0FF"/>
</linearGradient>
<linearGradient id="paint52_linear_193_11" x1="209.576" y1="322.88" x2="348.86" y2="164.721" gradientUnits="userSpaceOnUse">
<stop stop-color="#FF5B79"/>
<stop offset="1" stop-color="#00F0FF"/>
</linearGradient>
<linearGradient id="paint53_linear_193_11" x1="206.121" y1="322.215" x2="348.069" y2="166.562" gradientUnits="userSpaceOnUse">
<stop stop-color="#FF5B79"/>
<stop offset="1" stop-color="#00F0FF"/>
</linearGradient>
<linearGradient id="paint54_linear_193_11" x1="202.694" y1="321.534" x2="347.27" y2="168.438" gradientUnits="userSpaceOnUse">
<stop stop-color="#FF5B79"/>
<stop offset="1" stop-color="#00F0FF"/>
</linearGradient>
<linearGradient id="paint55_linear_193_11" x1="199.296" y1="320.837" x2="346.462" y2="170.352" gradientUnits="userSpaceOnUse">
<stop stop-color="#FF5B79"/>
<stop offset="1" stop-color="#00F0FF"/>
</linearGradient>
<linearGradient id="paint56_linear_193_11" x1="195.928" y1="320.124" x2="345.644" y2="172.302" gradientUnits="userSpaceOnUse">
<stop stop-color="#FF5B79"/>
<stop offset="1" stop-color="#00F0FF"/>
</linearGradient>
<linearGradient id="paint57_linear_193_11" x1="192.588" y1="319.397" x2="344.815" y2="174.291" gradientUnits="userSpaceOnUse">
<stop stop-color="#FF5B79"/>
<stop offset="1" stop-color="#00F0FF"/>
</linearGradient>
<linearGradient id="paint58_linear_193_11" x1="189.278" y1="318.654" x2="343.974" y2="176.317" gradientUnits="userSpaceOnUse">
<stop stop-color="#FF5B79"/>
<stop offset="1" stop-color="#00F0FF"/>
</linearGradient>
<linearGradient id="paint59_linear_193_11" x1="185.998" y1="317.899" x2="343.118" y2="178.381" gradientUnits="userSpaceOnUse">
<stop stop-color="#FF5B79"/>
<stop offset="1" stop-color="#00F0FF"/>
</linearGradient>
<linearGradient id="paint60_linear_193_11" x1="182.749" y1="317.129" x2="342.248" y2="180.483" gradientUnits="userSpaceOnUse">
<stop stop-color="#FF5B79"/>
<stop offset="1" stop-color="#00F0FF"/>
</linearGradient>
<linearGradient id="paint61_linear_193_11" x1="179.53" y1="316.347" x2="341.361" y2="182.624" gradientUnits="userSpaceOnUse">
<stop stop-color="#FF5B79"/>
<stop offset="1" stop-color="#00F0FF"/>
</linearGradient>
<linearGradient id="paint62_linear_193_11" x1="176.341" y1="315.553" x2="340.455" y2="184.804" gradientUnits="userSpaceOnUse">
<stop stop-color="#FF5B79"/>
<stop offset="1" stop-color="#00F0FF"/>
</linearGradient>
<linearGradient id="paint63_linear_193_11" x1="173.183" y1="314.746" x2="339.531" y2="187.022" gradientUnits="userSpaceOnUse">
<stop stop-color="#FF5B79"/>
<stop offset="1" stop-color="#00F0FF"/>
</linearGradient>
<linearGradient id="paint64_linear_193_11" x1="170.056" y1="313.928" x2="338.585" y2="189.278" gradientUnits="userSpaceOnUse">
<stop stop-color="#FF5B79"/>
<stop offset="1" stop-color="#00F0FF"/>
</linearGradient>
<linearGradient id="paint65_linear_193_11" x1="166.959" y1="313.099" x2="337.616" y2="191.572" gradientUnits="userSpaceOnUse">
<stop stop-color="#FF5B79"/>
<stop offset="1" stop-color="#00F0FF"/>
</linearGradient>
<linearGradient id="paint66_linear_193_11" x1="163.894" y1="312.261" x2="336.624" y2="193.906" gradientUnits="userSpaceOnUse">
<stop stop-color="#FF5B79"/>
<stop offset="1" stop-color="#00F0FF"/>
</linearGradient>
<linearGradient id="paint67_linear_193_11" x1="160.86" y1="311.412" x2="335.606" y2="196.276" gradientUnits="userSpaceOnUse">
<stop stop-color="#FF5B79"/>
<stop offset="1" stop-color="#00F0FF"/>
</linearGradient>
<linearGradient id="paint68_linear_193_11" x1="157.858" y1="310.554" x2="334.56" y2="198.684" gradientUnits="userSpaceOnUse">
<stop stop-color="#FF5B79"/>
<stop offset="1" stop-color="#00F0FF"/>
</linearGradient>
<linearGradient id="paint69_linear_193_11" x1="154.887" y1="309.688" x2="333.486" y2="201.13" gradientUnits="userSpaceOnUse">
<stop stop-color="#FF5B79"/>
<stop offset="1" stop-color="#00F0FF"/>
</linearGradient>
<linearGradient id="paint70_linear_193_11" x1="151.948" y1="308.813" x2="332.382" y2="203.611" gradientUnits="userSpaceOnUse">
<stop stop-color="#FF5B79"/>
<stop offset="1" stop-color="#00F0FF"/>
</linearGradient>
<linearGradient id="paint71_linear_193_11" x1="149.041" y1="307.931" x2="331.245" y2="206.129" gradientUnits="userSpaceOnUse">
<stop stop-color="#FF5B79"/>
<stop offset="1" stop-color="#00F0FF"/>
</linearGradient>
<linearGradient id="paint72_linear_193_11" x1="146.164" y1="307.041" x2="330.074" y2="208.682" gradientUnits="userSpaceOnUse">
<stop stop-color="#FF5B79"/>
<stop offset="1" stop-color="#00F0FF"/>
</linearGradient>
<linearGradient id="paint73_linear_193_11" x1="143.32" y1="306.146" x2="328.868" y2="211.27" gradientUnits="userSpaceOnUse">
<stop stop-color="#FF5B79"/>
<stop offset="1" stop-color="#00F0FF"/>
</linearGradient>
<linearGradient id="paint74_linear_193_11" x1="140.509" y1="305.244" x2="327.627" y2="213.89" gradientUnits="userSpaceOnUse">
<stop stop-color="#FF5B79"/>
<stop offset="1" stop-color="#00F0FF"/>
</linearGradient>
<linearGradient id="paint75_linear_193_11" x1="137.729" y1="304.337" x2="326.346" y2="216.543" gradientUnits="userSpaceOnUse">
<stop stop-color="#FF5B79"/>
<stop offset="1" stop-color="#00F0FF"/>
</linearGradient>
<linearGradient id="paint76_linear_193_11" x1="134.981" y1="303.425" x2="325.025" y2="219.228" gradientUnits="userSpaceOnUse">
<stop stop-color="#FF5B79"/>
<stop offset="1" stop-color="#00F0FF"/>
</linearGradient>
<linearGradient id="paint77_linear_193_11" x1="132.265" y1="302.509" x2="323.664" y2="221.944" gradientUnits="userSpaceOnUse">
<stop stop-color="#FF5B79"/>
<stop offset="1" stop-color="#00F0FF"/>
</linearGradient>
<linearGradient id="paint78_linear_193_11" x1="129.581" y1="301.588" x2="322.259" y2="224.688" gradientUnits="userSpaceOnUse">
<stop stop-color="#FF5B79"/>
<stop offset="1" stop-color="#00F0FF"/>
</linearGradient>
<linearGradient id="paint79_linear_193_11" x1="126.93" y1="300.664" x2="320.81" y2="227.46" gradientUnits="userSpaceOnUse">
<stop stop-color="#FF5B79"/>
<stop offset="1" stop-color="#00F0FF"/>
</linearGradient>
<linearGradient id="paint80_linear_193_11" x1="124.31" y1="299.737" x2="319.317" y2="230.258" gradientUnits="userSpaceOnUse">
<stop stop-color="#FF5B79"/>
<stop offset="1" stop-color="#00F0FF"/>
</linearGradient>
<linearGradient id="paint81_linear_193_11" x1="121.723" y1="298.809" x2="317.776" y2="233.082" gradientUnits="userSpaceOnUse">
<stop stop-color="#FF5B79"/>
<stop offset="1" stop-color="#00F0FF"/>
</linearGradient>
<linearGradient id="paint82_linear_193_11" x1="119.167" y1="297.878" x2="316.187" y2="235.928" gradientUnits="userSpaceOnUse">
<stop stop-color="#FF5B79"/>
<stop offset="1" stop-color="#00F0FF"/>
</linearGradient>
<linearGradient id="paint83_linear_193_11" x1="116.644" y1="296.946" x2="314.55" y2="238.797" gradientUnits="userSpaceOnUse">
<stop stop-color="#FF5B79"/>
<stop offset="1" stop-color="#00F0FF"/>
</linearGradient>
<linearGradient id="paint84_linear_193_11" x1="114.153" y1="296.013" x2="312.862" y2="241.686" gradientUnits="userSpaceOnUse">
<stop stop-color="#FF5B79"/>
<stop offset="1" stop-color="#00F0FF"/>
</linearGradient>
<linearGradient id="paint85_linear_193_11" x1="111.693" y1="295.08" x2="311.123" y2="244.593" gradientUnits="userSpaceOnUse">
<stop stop-color="#FF5B79"/>
<stop offset="1" stop-color="#00F0FF"/>
</linearGradient>
<linearGradient id="paint86_linear_193_11" x1="109.265" y1="294.148" x2="309.332" y2="247.517" gradientUnits="userSpaceOnUse">
<stop stop-color="#FF5B79"/>
<stop offset="1" stop-color="#00F0FF"/>
</linearGradient>
<linearGradient id="paint87_linear_193_11" x1="106.868" y1="293.217" x2="307.486" y2="250.455" gradientUnits="userSpaceOnUse">
<stop stop-color="#FF5B79"/>
<stop offset="1" stop-color="#00F0FF"/>
</linearGradient>
<linearGradient id="paint88_linear_193_11" x1="104.504" y1="292.287" x2="305.589" y2="253.407" gradientUnits="userSpaceOnUse">
<stop stop-color="#FF5B79"/>
<stop offset="1" stop-color="#00F0FF"/>
</linearGradient>
<linearGradient id="paint89_linear_193_11" x1="102.172" y1="291.359" x2="303.636" y2="256.369" gradientUnits="userSpaceOnUse">
<stop stop-color="#FF5B79"/>
<stop offset="1" stop-color="#00F0FF"/>
</linearGradient>
<linearGradient id="paint90_linear_193_11" x1="99.87" y1="290.433" x2="301.628" y2="259.34" gradientUnits="userSpaceOnUse">
<stop stop-color="#FF5B79"/>
<stop offset="1" stop-color="#00F0FF"/>
</linearGradient>
<linearGradient id="paint91_linear_193_11" x1="97.5995" y1="289.51" x2="299.564" y2="262.318" gradientUnits="userSpaceOnUse">
<stop stop-color="#FF5B79"/>
<stop offset="1" stop-color="#00F0FF"/>
</linearGradient>
<linearGradient id="paint92_linear_193_11" x1="95.3612" y1="288.591" x2="297.445" y2="265.3" gradientUnits="userSpaceOnUse">
<stop stop-color="#FF5B79"/>
<stop offset="1" stop-color="#00F0FF"/>
</linearGradient>
<linearGradient id="paint93_linear_193_11" x1="93.1533" y1="287.676" x2="295.269" y2="268.286" gradientUnits="userSpaceOnUse">
<stop stop-color="#FF5B79"/>
<stop offset="1" stop-color="#00F0FF"/>
</linearGradient>
<linearGradient id="paint94_linear_193_11" x1="90.9767" y1="286.765" x2="293.037" y2="271.271" gradientUnits="userSpaceOnUse">
<stop stop-color="#FF5B79"/>
<stop offset="1" stop-color="#00F0FF"/>
</linearGradient>
<linearGradient id="paint95_linear_193_11" x1="88.8307" y1="285.859" x2="290.748" y2="274.255" gradientUnits="userSpaceOnUse">
<stop stop-color="#FF5B79"/>
<stop offset="1" stop-color="#00F0FF"/>
</linearGradient>
<linearGradient id="paint96_linear_193_11" x1="86.7152" y1="284.957" x2="288.402" y2="277.234" gradientUnits="userSpaceOnUse">
<stop stop-color="#FF5B79"/>
<stop offset="1" stop-color="#00F0FF"/>
</linearGradient>
<linearGradient id="paint97_linear_193_11" x1="84.6293" y1="284.063" x2="286" y2="280.209" gradientUnits="userSpaceOnUse">
<stop stop-color="#FF5B79"/>
<stop offset="1" stop-color="#00F0FF"/>
</linearGradient>
<linearGradient id="paint98_linear_193_11" x1="82.5751" y1="283.175" x2="283.542" y2="283.175" gradientUnits="userSpaceOnUse">
<stop stop-color="#FF5B79"/>
<stop offset="1" stop-color="#00F0FF"/>
</linearGradient>
</defs>
</svg>
