<svg width="70" height="70" viewBox="0 0 70 70" fill="none" xmlns="http://www.w3.org/2000/svg">
<path d="M68.9746 63.5292H64.7514V47.5317C64.7514 46.9654 64.2923 46.5063 63.726 46.5063C63.1597 46.5063 62.7006 46.9654 62.7006 47.5317V63.5292H53.7031V28.2913H62.7006V42.7465C62.7006 43.3128 63.1597 43.7719 63.726 43.7719C64.2923 43.7719 64.7514 43.3128 64.7514 42.7465V27.2659C64.7514 26.6996 64.2923 26.2405 63.726 26.2405H52.6777C52.1114 26.2405 51.6523 26.6996 51.6523 27.2659V63.5292H49.2838V32.7903C49.2838 32.224 48.8247 31.7649 48.2584 31.7649H37.2098C36.6435 31.7649 36.1844 32.224 36.1844 32.7903V63.5292H33.8157V41.0768C33.8157 40.5105 33.3566 40.0514 32.7904 40.0514H21.7417C21.1754 40.0514 20.7163 40.5105 20.7163 41.0768V63.5292H18.3477V47.706C18.3477 47.1397 17.8886 46.6806 17.3223 46.6806H6.27348C5.70719 46.6806 5.24809 47.1397 5.24809 47.706V63.5292H1.02539C0.459102 63.5292 0 63.9883 0 64.5545V68.9747C0 69.5409 0.459102 70 1.02539 70H12.0996C12.6659 70 13.125 69.5409 13.125 68.9747C13.125 68.4084 12.6659 67.9493 12.0996 67.9493H2.05078V65.5799H67.9492V67.9493H16.8848C16.3185 67.9493 15.8594 68.4084 15.8594 68.9747C15.8594 69.5409 16.3185 70 16.8848 70H68.9746C69.5409 70 70 69.5409 70 68.9747V64.5545C70 63.9883 69.5409 63.5292 68.9746 63.5292ZM38.2352 33.8157H47.233V63.5292H38.2352V33.8157ZM22.767 42.1022H31.7648V63.5292H22.767V42.1022ZM7.29887 48.7314H16.2967V63.5292H7.29887V48.7314Z" fill="white"/>
<path d="M6.13574 37.4062H21.7408C22.6462 37.4062 23.5157 37.0238 24.1264 36.3573L36.8372 22.4902H45.4957C46.3602 22.4902 47.1727 22.1539 47.7834 21.5432L58.2816 11.045V14.2842C58.2816 14.8505 58.7407 15.3096 59.307 15.3096H63.7258C64.2921 15.3096 64.7512 14.8505 64.7512 14.2842V3.23477C64.7512 1.45113 63.3 0 61.5164 0H50.4682C49.9019 0 49.4428 0.459102 49.4428 1.02539V5.44551C49.4428 6.0118 49.9019 6.4709 50.4682 6.4709H53.7062L44.1564 16.0207H35.4141C34.5097 16.0207 33.6405 16.4031 33.03 17.0695L20.3177 30.9367H17.4902C16.9239 30.9367 16.4648 31.3958 16.4648 31.9621C16.4648 32.5284 16.9239 32.9875 17.4902 32.9875H20.7687C21.0561 32.9875 21.3304 32.8669 21.5245 32.655L34.5417 18.4553C34.7651 18.2115 35.0829 18.0716 35.4139 18.0716H44.5809C44.8528 18.0716 45.1137 17.9636 45.3059 17.7712L56.9065 6.17066C57.1998 5.8774 57.2876 5.43635 57.1288 5.05326C56.9701 4.67004 56.5962 4.42025 56.1815 4.42025H51.4934V2.05078H61.5163C62.1691 2.05078 62.7002 2.58193 62.7002 3.23477V13.259H60.3323V8.56953C60.3323 8.15486 60.0825 7.78094 59.6993 7.62221C59.3163 7.46375 58.875 7.55125 58.5819 7.84451L46.3334 20.093C46.11 20.3164 45.8123 20.4395 45.4957 20.4395H36.3861C36.0986 20.4395 35.8245 20.56 35.6302 20.772L22.6145 34.9717C22.3911 35.2156 22.0726 35.3555 21.7408 35.3555H7.16113V32.9875H12.7051C13.2714 32.9875 13.7305 32.5284 13.7305 31.9621C13.7305 31.3958 13.2714 30.9367 12.7051 30.9367H6.13574C5.56945 30.9367 5.11035 31.3958 5.11035 31.9621V36.3809C5.11035 36.9472 5.56945 37.4062 6.13574 37.4062Z" fill="white"/>
</svg>
