<svg width="578" height="581" viewBox="0 0 578 581" fill="none" xmlns="http://www.w3.org/2000/svg">
<g opacity="0.25">
<mask id="path-1-outside-1_193_10" maskUnits="userSpaceOnUse" x="0" y="0" width="578" height="581" fill="black">
<rect fill="white" width="578" height="581"/>
<path d="M289 203L291.981 257.186L304.56 204.133L297.867 258.049L319.717 207.503L303.523 259.752L334.078 213.023L308.802 262.252L347.272 220.549L313.569 265.483L358.957 229.887L317.7 269.362L368.829 240.794L321.087 273.789L376.635 252.989L323.643 278.648L382.17 266.156L325.302 283.815L385.293 279.953L326.021 289.154L385.921 294.023L325.781 294.529L384.04 308.002L324.588 299.799L379.697 321.528L322.473 304.828L373.004 334.25L319.492 309.486L364.137 345.839L315.721 313.652L353.323 355.995L311.258 317.219L340.843 364.454L306.218 320.094L327.021 370.998L300.733 322.202L312.214 375.457L294.943 323.489L296.805 377.716L289 323.922L281.195 377.716L283.057 323.489L265.786 375.457L277.267 322.202L250.979 370.998L271.782 320.094L237.157 364.454L266.742 317.219L224.677 355.995L262.279 313.652L213.863 345.839L258.508 309.486L204.996 334.25L255.527 304.828L198.303 321.528L253.412 299.799L193.96 308.002L252.219 294.529L192.079 294.023L251.979 289.154L192.707 279.953L252.698 283.815L195.83 266.156L254.357 278.648L201.365 252.989L256.913 273.789L209.171 240.794L260.3 269.362L219.043 229.887L264.431 265.483L230.728 220.549L269.198 262.252L243.922 213.023L274.477 259.752L258.283 207.503L280.133 258.049L273.44 204.133L286.019 257.186L289 203Z"/>
</mask>
<path d="M289 203L423.796 195.583H154.204L289 203ZM291.981 257.186L157.185 264.603L423.34 288.33L291.981 257.186ZM304.56 204.133L438.532 220.764L173.201 172.989L304.56 204.133ZM297.867 258.049L163.895 241.418L421.784 311.616L297.867 258.049ZM319.717 207.503L448.665 247.469L195.799 153.936L319.717 207.503ZM303.523 259.752L174.574 219.786L416.512 333.633L303.523 259.752ZM334.078 213.023L454.174 274.683L221.089 139.142L334.078 213.023ZM308.802 262.252L188.707 200.591L408.031 353.787L308.802 262.252ZM347.272 220.549L455.27 301.552L248.043 129.014L347.272 220.549ZM313.569 265.483L205.571 184.48L396.881 371.71L313.569 265.483ZM358.957 229.887L452.287 327.428L275.645 123.66L358.957 229.887ZM317.7 269.362L224.369 171.821L383.548 387.214L317.7 269.362ZM368.829 240.794L445.582 351.853L302.981 122.943L368.829 240.794ZM321.087 273.789L244.335 162.73L368.427 400.216L321.087 273.789ZM376.635 252.989L435.469 374.495L329.295 126.562L376.635 252.989ZM323.643 278.648L264.809 157.143L351.823 410.674L323.643 278.648ZM382.17 266.156L422.205 395.083L353.99 134.13L382.17 266.156ZM325.302 283.815L285.267 154.887L333.974 418.536L325.302 283.815ZM385.293 279.953L406.002 413.355L376.621 145.232L385.293 279.953ZM326.021 289.154L305.312 155.752L315.083 423.71L326.021 289.154ZM385.921 294.023L387.056 429.019L396.859 159.467L385.921 294.023ZM325.781 294.529L324.646 159.533L295.362 426.057L325.781 294.529ZM384.04 308.002L365.586 441.735L414.458 176.474L384.04 308.002ZM324.588 299.799L343.041 166.066L275.068 425.388L324.588 299.799ZM379.697 321.528L341.876 451.122L429.217 195.938L379.697 321.528ZM322.473 304.828L360.295 175.234L254.544 421.492L322.473 304.828ZM373.004 334.25L316.307 456.767L440.934 217.585L373.004 334.25ZM319.492 309.486L376.19 186.969L234.25 414.17L319.492 309.486ZM364.137 345.839L289.397 458.263L449.379 241.155L364.137 345.839ZM315.721 313.652L390.46 201.229L214.778 403.294L315.721 313.652ZM353.323 355.995L261.823 455.256L454.266 266.353L353.323 355.995ZM311.258 317.219L402.758 217.958L196.847 388.879L311.258 317.219ZM340.843 364.454L234.423 447.519L455.254 292.794L340.843 364.454ZM306.218 320.094L412.638 237.029L181.25 371.163L306.218 320.094ZM327.021 370.998L208.17 435.026L451.989 319.929L327.021 370.998ZM300.733 322.202L419.583 258.174L168.765 350.652L300.733 322.202ZM312.214 375.457L184.103 418.032L444.182 347.008L312.214 375.457ZM294.943 323.489L423.054 280.915L160.023 328.122L294.943 323.489ZM296.805 377.716L163.204 397.101L431.726 373.084L296.805 377.716ZM289 323.922L422.601 304.537H155.399L289 323.922ZM281.195 377.716L146.274 373.084L414.796 397.101L281.195 377.716ZM283.057 323.489L417.977 328.122L154.946 280.915L283.057 323.489ZM265.786 375.457L133.818 347.008L393.897 418.032L265.786 375.457ZM277.267 322.202L409.235 350.652L158.417 258.174L277.267 322.202ZM250.979 370.998L126.011 319.929L369.83 435.026L250.979 370.998ZM271.782 320.094L396.75 371.163L165.362 237.029L271.782 320.094ZM237.157 364.454L122.746 292.794L343.577 447.519L237.157 364.454ZM266.742 317.219L381.153 388.879L175.242 217.958L266.742 317.219ZM224.677 355.995L123.734 266.353L316.177 455.256L224.677 355.995ZM262.279 313.652L363.222 403.294L187.54 201.229L262.279 313.652ZM213.863 345.839L128.621 241.155L288.603 458.263L213.863 345.839ZM258.508 309.486L343.75 414.17L201.81 186.969L258.508 309.486ZM204.996 334.25L137.066 217.585L261.693 456.767L204.996 334.25ZM255.527 304.828L323.456 421.492L217.705 175.234L255.527 304.828ZM198.303 321.528L148.783 195.938L236.124 451.122L198.303 321.528ZM253.412 299.799L302.932 425.388L234.959 166.066L253.412 299.799ZM193.96 308.002L163.542 176.474L212.414 441.735L193.96 308.002ZM252.219 294.529L282.638 426.057L253.354 159.533L252.219 294.529ZM192.079 294.023L181.141 159.467L190.944 429.019L192.079 294.023ZM251.979 289.154L262.917 423.71L272.688 155.752L251.979 289.154ZM192.707 279.953L201.379 145.232L171.998 413.355L192.707 279.953ZM252.698 283.815L244.026 418.536L292.733 154.887L252.698 283.815ZM195.83 266.156L224.01 134.13L155.795 395.083L195.83 266.156ZM254.357 278.648L226.177 410.674L313.191 157.143L254.357 278.648ZM201.365 252.989L248.705 126.562L142.531 374.495L201.365 252.989ZM256.913 273.789L209.573 400.216L333.665 162.73L256.913 273.789ZM209.171 240.794L275.019 122.943L132.418 351.853L209.171 240.794ZM260.3 269.362L194.452 387.214L353.631 171.821L260.3 269.362ZM219.043 229.887L302.355 123.66L125.713 327.428L219.043 229.887ZM264.431 265.483L181.119 371.71L372.429 184.48L264.431 265.483ZM230.728 220.549L329.957 129.014L122.73 301.552L230.728 220.549ZM269.198 262.252L169.969 353.787L389.293 200.591L269.198 262.252ZM243.922 213.023L356.911 139.142L123.826 274.683L243.922 213.023ZM274.477 259.752L161.488 333.633L403.426 219.786L274.477 259.752ZM258.283 207.503L382.201 153.936L129.335 247.469L258.283 207.503ZM280.133 258.049L156.216 311.616L414.105 241.418L280.133 258.049ZM273.44 204.133L404.799 172.989L139.468 220.764L273.44 204.133ZM286.019 257.186L154.66 288.33L420.815 264.603L286.019 257.186ZM154.204 195.583L154.18 196.02L423.772 210.854L423.796 210.417L154.204 195.583ZM152.737 222.24L152.689 223.114L422.281 237.947L422.329 237.073L152.737 222.24ZM151.247 249.333L151.223 249.77L420.815 264.603L420.839 264.166L151.247 249.333ZM417.377 226.042L417.276 225.614L154.559 287.903L154.66 288.33L417.377 226.042ZM411.189 199.943L410.986 199.088L148.269 261.376L148.472 262.232L411.189 199.943ZM404.9 173.417L404.799 172.989L142.082 235.277L142.183 235.705L404.9 173.417ZM139.468 220.764L139.522 221.199L407.466 187.937L407.412 187.502L139.468 220.764ZM142.761 247.287L142.869 248.157L410.812 214.895L410.704 214.025L142.761 247.287ZM146.108 274.245L146.162 274.68L414.105 241.418L414.051 240.983L146.108 274.245ZM404.051 204.482L403.875 204.075L156.039 311.208L156.216 311.616L404.051 204.482ZM393.302 179.617L392.95 178.802L145.114 285.935L145.467 286.751L393.302 179.617ZM382.377 154.344L382.201 153.936L134.366 261.07L134.542 261.478L382.377 154.344ZM129.335 247.469L129.465 247.891L387.362 167.958L387.232 167.537L129.335 247.469ZM137.301 273.173L137.562 274.015L395.459 194.083L395.198 193.24L137.301 273.173ZM145.398 299.297L145.529 299.719L403.426 219.786L403.295 219.365L145.398 299.297ZM387.467 185.871L387.22 185.495L161.242 333.257L161.488 333.633L387.467 185.871ZM372.435 162.883L371.943 162.13L145.964 309.892L146.457 310.645L372.435 162.883ZM357.158 139.518L356.911 139.142L130.933 286.904L131.179 287.28L357.158 139.518ZM123.826 274.683L124.03 275.08L364.221 151.759L364.018 151.362L123.826 274.683ZM136.26 298.901L136.668 299.695L376.859 176.374L376.452 175.58L136.26 298.901ZM148.898 323.516L149.102 323.913L389.293 200.591L389.09 200.194L148.898 323.516ZM368.427 170.717L368.116 170.381L169.659 353.451L169.969 353.787L368.427 170.717ZM349.502 150.202L348.881 149.529L150.424 332.599L151.044 333.272L349.502 150.202ZM330.267 129.35L329.957 129.014L131.499 312.084L131.809 312.42L330.267 129.35ZM122.73 301.552L123.002 301.914L338.998 139.908L338.726 139.546L122.73 301.552ZM139.31 323.657L139.853 324.381L355.849 162.375L355.305 161.651L139.31 323.657ZM156.161 346.124L156.433 346.486L372.429 184.48L372.157 184.118L156.161 346.124ZM347.743 159.256L347.377 158.969L180.753 371.423L181.119 371.71L347.743 159.256ZM325.415 141.745L324.683 141.171L158.059 353.625L158.791 354.199L325.415 141.745ZM302.721 123.947L302.355 123.66L135.731 336.113L136.098 336.4L302.721 123.947ZM125.713 327.428L126.045 327.747L312.707 132.663L312.374 132.345L125.713 327.428ZM146.009 346.848L146.674 347.485L333.335 152.401L332.67 151.764L146.009 346.848ZM166.637 366.586L166.97 366.904L353.631 171.821L353.298 171.502L166.637 366.586ZM326.148 151.511L325.736 151.28L194.04 386.984L194.452 387.214L326.148 151.511ZM300.996 137.457L300.171 136.996L168.475 372.7L169.3 373.161L300.996 137.457ZM275.431 123.173L275.019 122.943L143.323 358.646L143.735 358.876L275.431 123.173ZM132.418 351.853L132.803 352.119L286.308 130.001L285.923 129.735L132.418 351.853ZM155.905 368.085L156.675 368.617L310.179 146.499L309.409 145.967L155.905 368.085ZM179.776 384.582L180.161 384.848L333.665 162.73L333.28 162.464L179.776 384.582ZM304.253 147.361L303.805 147.194L209.125 400.049L209.573 400.216L304.253 147.361ZM276.927 137.129L276.031 136.794L181.351 389.649L182.247 389.984L276.927 137.129ZM249.153 126.73L248.705 126.562L154.025 379.417L154.473 379.585L249.153 126.73ZM142.531 374.495L142.959 374.702L260.627 131.691L260.199 131.484L142.531 374.495ZM168.6 387.117L169.455 387.531L287.122 144.52L286.268 144.107L168.6 387.117ZM195.096 399.947L195.523 400.154L313.191 157.143L312.764 156.936L195.096 399.947ZM282.537 146.622L282.065 146.522L225.705 410.574L226.177 410.674L282.537 146.622ZM253.746 140.477L252.802 140.275L196.441 404.327L197.385 404.529L253.746 140.477ZM224.482 134.231L224.01 134.13L167.649 398.182L168.121 398.283L224.482 134.231ZM155.795 395.083L156.254 395.226L236.323 137.371L235.864 137.229L155.795 395.083ZM183.771 403.77L184.688 404.055L264.757 146.201L263.84 145.916L183.771 403.77ZM212.205 412.6L212.664 412.742L292.733 154.887L292.274 154.745L212.205 412.6ZM261.37 149.094L260.886 149.062L243.542 418.505L244.026 418.536L261.37 149.094ZM231.859 147.194L230.891 147.132L213.547 416.574L214.514 416.636L231.859 147.194ZM201.863 145.263L201.379 145.232L184.035 414.674L184.519 414.705L201.863 145.263ZM171.998 413.355L172.476 413.429L213.894 146.625L213.416 146.551L171.998 413.355ZM201.156 417.882L202.112 418.03L243.53 151.226L242.574 151.077L201.156 417.882ZM230.792 422.482L231.27 422.556L272.688 155.752L272.21 155.678L230.792 422.482ZM241.042 154.598L240.559 154.637L262.434 423.75L262.917 423.71L241.042 154.598ZM211.575 156.993L210.609 157.072L232.483 426.184L233.45 426.106L211.575 156.993ZM181.624 159.428L181.141 159.467L203.016 428.579L203.499 428.54L181.624 159.428ZM190.944 429.019L191.429 429.023L193.698 159.032L193.213 159.028L190.944 429.019ZM220.53 429.267L221.5 429.275L223.768 159.285L222.798 159.277L220.53 429.267ZM250.6 429.52L251.085 429.524L253.354 159.533L252.869 159.529L250.6 429.52ZM221.801 163L221.331 163.109L282.168 426.166L282.638 426.057L221.801 163ZM193.141 169.628L192.201 169.846L253.039 432.902L253.978 432.685L193.141 169.628ZM164.011 176.365L163.542 176.474L224.379 439.531L224.849 439.422L164.011 176.365ZM212.414 441.735L212.893 441.669L175.986 174.203L175.507 174.269L212.414 441.735ZM241.66 437.699L242.619 437.567L205.712 170.101L204.753 170.234L241.66 437.699ZM271.386 433.598L271.866 433.531L234.959 166.066L234.479 166.132L271.386 433.598ZM203.892 174.209L203.448 174.384L302.488 425.564L302.932 425.388L203.892 174.209ZM176.782 184.898L175.893 185.249L274.933 436.428L275.822 436.078L176.782 184.898ZM149.228 195.763L148.783 195.938L247.823 447.118L248.268 446.942L149.228 195.763ZM236.124 451.122L236.586 450.987L160.944 191.799L160.482 191.934L236.124 451.122ZM264.275 442.906L265.197 442.637L189.555 183.449L188.632 183.719L264.275 442.906ZM292.886 434.556L293.348 434.422L217.705 175.234L217.244 175.369L292.886 434.556ZM187.597 188.163L187.19 188.4L323.048 421.73L323.456 421.492L187.597 188.163ZM162.739 202.637L161.924 203.112L297.783 436.441L298.598 435.966L162.739 202.637ZM137.474 217.348L137.066 217.585L272.925 450.915L273.332 450.677L137.474 217.348ZM261.693 456.767L262.125 456.567L148.729 211.533L148.298 211.733L261.693 456.767ZM288.018 444.585L288.881 444.185L175.486 199.151L174.623 199.551L288.018 444.585ZM314.774 432.202L315.205 432.003L201.81 186.969L201.379 187.169L314.774 432.202ZM173.266 204.802L172.906 205.095L343.39 414.463L343.75 414.17L173.266 204.802ZM151.304 222.685L150.583 223.271L321.068 432.64L321.788 432.053L151.304 222.685ZM128.981 240.862L128.621 241.155L299.105 450.523L299.465 450.23L128.981 240.862ZM288.603 458.263L288.993 458.003L139.515 233.156L139.124 233.415L288.603 458.263ZM312.42 442.429L313.201 441.91L163.722 217.063L162.941 217.582L312.42 442.429ZM336.628 426.335L337.018 426.076L187.54 201.229L187.149 201.488L336.628 426.335ZM161.336 224.011L161.033 224.352L362.918 403.635L363.222 403.294L161.336 224.011ZM142.839 244.841L142.232 245.524L344.118 424.806L344.724 424.123L142.839 244.841ZM124.038 266.012L123.734 266.353L325.62 445.636L325.923 445.295L124.038 266.012ZM316.177 455.256L316.516 454.943L133.517 256.421L133.177 256.733L316.177 455.256ZM336.87 436.181L337.548 435.556L154.549 237.033L153.871 237.658L336.87 436.181ZM357.902 416.793L358.242 416.48L175.242 217.958L174.903 218.27L357.902 416.793ZM152.331 245.559L152.093 245.94L380.914 389.26L381.153 388.879L152.331 245.559ZM137.777 268.796L137.3 269.557L366.122 412.878L366.599 412.116L137.777 268.796ZM122.985 292.413L122.746 292.794L351.568 436.114L351.806 435.733L122.985 292.413ZM343.577 447.519L343.856 447.161L131.016 281.032L130.737 281.389L343.577 447.519ZM360.61 425.696L361.169 424.981L148.328 258.851L147.77 259.567L360.61 425.696ZM377.923 403.516L378.202 403.158L165.362 237.029L165.082 237.387L377.923 403.516ZM146.814 269.025L146.646 269.435L396.582 371.573L396.75 371.163L146.814 269.025ZM136.58 294.067L136.245 294.888L386.181 397.025L386.516 396.204L136.58 294.067ZM126.179 319.519L126.011 319.929L375.947 422.067L376.115 421.657L126.179 319.519ZM369.83 435.026L370.042 434.633L132.341 306.576L132.129 306.97L369.83 435.026ZM382.761 411.022L383.185 410.235L145.485 282.178L145.061 282.965L382.761 411.022ZM395.905 386.624L396.117 386.23L158.417 258.174L158.205 258.567L395.905 386.624ZM145.299 293.752L145.206 294.182L409.143 351.081L409.235 350.652L145.299 293.752ZM139.651 319.95L139.466 320.809L403.402 377.709L403.588 376.85L139.651 319.95ZM133.911 346.578L133.818 347.008L397.755 403.907L397.847 403.478L133.911 346.578ZM393.897 418.032L394.037 417.613L137.815 332.464L137.675 332.883L393.897 418.032ZM402.393 392.467L402.672 391.629L146.45 306.48L146.171 307.318L402.393 392.467ZM411.028 366.483L411.168 366.064L154.946 280.915L154.806 281.334L411.028 366.483ZM148.136 318.857L148.121 319.294L417.962 328.559L417.977 328.122L148.136 318.857ZM147.22 345.533L147.19 346.408L417.031 355.673L417.061 354.798L147.22 345.533ZM146.289 372.646L146.274 373.084L416.115 382.349L416.13 381.911L146.289 372.646ZM414.796 397.101L414.859 396.667L147.657 357.898L147.594 358.331L414.796 397.101ZM418.635 370.638L418.761 369.77L151.559 331.001L151.433 331.868L418.635 370.638ZM422.538 343.741L422.601 343.307L155.399 304.537L155.336 304.971L422.538 343.741ZM155.399 343.307L155.462 343.741L422.664 304.971L422.601 304.537L155.399 343.307ZM159.239 369.77L159.365 370.638L426.567 331.868L426.441 331.001L159.239 369.77ZM163.141 396.667L163.204 397.101L430.406 358.331L430.343 357.898L163.141 396.667ZM431.726 373.084L431.711 372.646L161.87 381.911L161.885 382.349L431.726 373.084ZM430.81 346.408L430.78 345.533L160.939 354.798L160.969 355.673L430.81 346.408ZM429.879 319.294L429.864 318.857L160.023 328.122L160.038 328.559L429.879 319.294ZM166.832 366.064L166.972 366.483L423.194 281.334L423.054 280.915L166.832 366.064ZM175.328 391.629L175.607 392.467L431.829 307.318L431.55 306.48L175.328 391.629ZM183.963 417.613L184.103 418.032L440.325 332.883L440.185 332.464L183.963 417.613ZM444.182 347.008L444.089 346.578L180.153 403.478L180.245 403.907L444.182 347.008ZM438.534 320.809L438.349 319.95L174.412 376.85L174.598 377.709L438.534 320.809ZM432.794 294.182L432.701 293.752L168.765 350.652L168.857 351.081L432.794 294.182ZM181.883 386.23L182.095 386.624L419.795 258.567L419.583 258.174L181.883 386.23ZM194.814 410.235L195.238 411.022L432.939 282.965L432.515 282.178L194.814 410.235ZM207.958 434.633L208.17 435.026L445.871 306.97L445.659 306.576L207.958 434.633ZM451.989 319.929L451.821 319.519L201.885 421.657L202.053 422.067L451.989 319.929ZM441.755 294.888L441.42 294.067L191.484 396.204L191.819 397.025L441.755 294.888ZM431.354 269.435L431.186 269.025L181.25 371.163L181.418 371.573L431.354 269.435ZM199.798 403.158L200.077 403.516L412.918 237.387L412.638 237.029L199.798 403.158ZM216.831 424.981L217.39 425.696L430.23 259.567L429.672 258.851L216.831 424.981ZM234.144 447.161L234.423 447.519L447.263 281.389L446.984 281.032L234.144 447.161ZM455.254 292.794L455.015 292.413L226.194 435.733L226.432 436.114L455.254 292.794ZM440.7 269.557L440.223 268.796L211.401 412.116L211.878 412.878L440.7 269.557ZM425.907 245.94L425.669 245.559L196.847 388.879L197.086 389.26L425.907 245.94ZM219.758 416.48L220.098 416.793L403.097 218.27L402.758 217.958L219.758 416.48ZM240.452 435.556L241.13 436.181L424.129 237.658L423.451 237.033L240.452 435.556ZM261.484 454.943L261.823 455.256L444.823 256.733L444.483 256.421L261.484 454.943ZM454.266 266.353L453.962 266.012L252.077 445.295L252.38 445.636L454.266 266.353ZM435.768 245.524L435.161 244.841L233.276 424.123L233.883 424.806L435.768 245.524ZM416.967 224.352L416.664 224.011L214.778 403.294L215.082 403.635L416.967 224.352ZM240.982 426.076L241.372 426.335L390.851 201.488L390.46 201.229L240.982 426.076ZM264.799 441.91L265.58 442.429L415.059 217.582L414.278 217.062L264.799 441.91ZM289.007 458.003L289.397 458.263L438.876 233.415L438.485 233.156L289.007 458.003ZM449.379 241.155L449.019 240.862L278.535 450.23L278.895 450.523L449.379 241.155ZM427.417 223.271L426.696 222.685L256.212 432.053L256.932 432.64L427.417 223.271ZM405.094 205.095L404.734 204.802L234.25 414.17L234.61 414.463L405.094 205.095ZM262.794 432.003L263.226 432.202L376.621 187.169L376.19 186.969L262.794 432.003ZM289.119 444.185L289.982 444.584L403.377 199.551L402.514 199.151L289.119 444.185ZM315.875 456.567L316.307 456.767L429.702 211.733L429.271 211.533L315.875 456.567ZM440.934 217.585L440.526 217.348L304.668 450.677L305.075 450.915L440.934 217.585ZM416.076 203.112L415.261 202.637L279.402 435.966L280.217 436.441L416.076 203.112ZM390.81 188.4L390.403 188.163L254.544 421.492L254.952 421.73L390.81 188.4ZM284.652 434.422L285.114 434.556L360.756 175.369L360.295 175.234L284.652 434.422ZM312.803 442.637L313.725 442.906L389.368 183.719L388.445 183.449L312.803 442.637ZM341.414 450.987L341.876 451.122L417.518 191.934L417.056 191.799L341.414 450.987ZM429.217 195.938L428.772 195.763L329.732 446.942L330.177 447.118L429.217 195.938ZM402.107 185.249L401.218 184.898L302.178 436.078L303.067 436.428L402.107 185.249ZM374.552 174.384L374.108 174.209L275.068 425.388L275.512 425.564L374.552 174.384ZM306.134 433.531L306.614 433.598L343.521 166.132L343.041 166.066L306.134 433.531ZM335.381 437.567L336.34 437.699L373.247 170.234L372.288 170.101L335.381 437.567ZM365.107 441.669L365.586 441.735L402.493 174.269L402.014 174.203L365.107 441.669ZM414.458 176.474L413.989 176.365L353.151 439.422L353.621 439.531L414.458 176.474ZM385.799 169.846L384.859 169.628L324.022 432.685L324.961 432.902L385.799 169.846ZM356.669 163.109L356.199 163L295.362 426.057L295.832 426.166L356.669 163.109ZM326.915 429.524L327.4 429.52L325.131 159.529L324.646 159.533L326.915 429.524ZM356.5 429.275L357.47 429.267L355.202 159.277L354.232 159.285L356.5 429.275ZM386.571 429.023L387.056 429.019L384.787 159.028L384.302 159.032L386.571 429.023ZM396.859 159.467L396.376 159.428L374.501 428.54L374.984 428.579L396.859 159.467ZM367.391 157.072L366.425 156.993L344.55 426.106L345.517 426.184L367.391 157.072ZM337.441 154.637L336.958 154.598L315.083 423.71L315.566 423.75L337.441 154.637ZM346.73 422.556L347.208 422.482L305.79 155.678L305.312 155.752L346.73 422.556ZM375.888 418.03L376.844 417.882L335.426 151.077L334.47 151.226L375.888 418.03ZM405.524 413.429L406.002 413.355L364.584 146.551L364.106 146.625L405.524 413.429ZM376.621 145.232L376.137 145.263L393.481 414.705L393.965 414.674L376.621 145.232ZM347.109 147.132L346.141 147.194L363.486 416.636L364.453 416.574L347.109 147.132ZM317.114 149.062L316.63 149.094L333.974 418.536L334.458 418.505L317.114 149.062ZM365.336 412.742L365.795 412.6L285.726 154.745L285.267 154.887L365.336 412.742ZM393.312 404.055L394.229 403.77L314.16 145.916L313.243 146.201L393.312 404.055ZM421.746 395.226L422.205 395.083L342.136 137.229L341.677 137.371L421.746 395.226ZM353.99 134.13L353.518 134.231L409.879 398.283L410.351 398.182L353.99 134.13ZM325.198 140.275L324.254 140.477L380.615 404.529L381.559 404.327L325.198 140.275ZM295.935 146.522L295.463 146.622L351.823 410.674L352.295 410.574L295.935 146.522ZM382.477 400.154L382.904 399.947L265.236 156.936L264.809 157.143L382.477 400.154ZM408.545 387.531L409.4 387.117L291.732 144.107L290.878 144.52L408.545 387.531ZM435.041 374.702L435.469 374.495L317.801 131.484L317.373 131.691L435.041 374.702ZM329.295 126.562L328.847 126.73L423.527 379.585L423.975 379.417L329.295 126.562ZM301.969 136.794L301.073 137.129L395.753 389.984L396.649 389.649L301.969 136.794ZM274.195 147.194L273.747 147.361L368.427 400.216L368.875 400.049L274.195 147.194ZM397.839 384.848L398.224 384.582L244.72 162.464L244.335 162.73L397.839 384.848ZM421.325 368.617L422.095 368.085L268.591 145.967L267.821 146.499L421.325 368.617ZM445.197 352.119L445.582 351.853L292.077 129.735L291.692 130.001L445.197 352.119ZM302.981 122.943L302.569 123.173L434.265 358.876L434.677 358.646L302.981 122.943ZM277.829 136.996L277.004 137.457L408.7 373.161L409.525 372.7L277.829 136.996ZM252.264 151.28L251.852 151.511L383.548 387.214L383.96 386.984L252.264 151.28ZM411.03 366.904L411.363 366.586L224.702 171.502L224.369 171.821L411.03 366.904ZM431.326 347.485L431.991 346.848L245.33 151.764L244.665 152.401L431.326 347.485ZM451.955 327.747L452.287 327.428L265.626 132.345L265.293 132.663L451.955 327.747ZM275.645 123.66L275.279 123.947L441.902 336.4L442.269 336.113L275.645 123.66ZM253.317 141.171L252.585 141.745L419.209 354.199L419.941 353.625L253.317 141.171ZM230.623 158.969L230.257 159.256L396.881 371.71L397.247 371.423L230.623 158.969ZM421.567 346.486L421.839 346.124L205.843 184.118L205.571 184.48L421.567 346.486ZM438.147 324.381L438.69 323.657L222.695 161.651L222.151 162.375L438.147 324.381ZM454.998 301.914L455.27 301.552L239.274 139.546L239.002 139.908L454.998 301.914ZM248.043 129.014L247.733 129.35L446.191 312.42L446.501 312.084L248.043 129.014ZM229.119 149.529L228.498 150.202L426.956 333.272L427.576 332.599L229.119 149.529ZM209.884 170.381L209.573 170.717L408.031 353.787L408.341 353.451L209.884 170.381ZM428.898 323.913L429.102 323.516L188.911 200.194L188.707 200.591L428.898 323.913ZM441.332 299.695L441.74 298.901L201.548 175.58L201.141 176.374L441.332 299.695ZM453.97 275.08L454.174 274.683L213.982 151.362L213.779 151.759L453.97 275.08ZM221.089 139.142L220.842 139.518L446.821 287.28L447.067 286.904L221.089 139.142ZM206.057 162.13L205.565 162.883L431.543 310.645L432.036 309.892L206.057 162.13ZM190.78 185.495L190.533 185.871L416.512 333.633L416.758 333.257L190.78 185.495ZM432.471 299.719L432.602 299.297L174.705 219.365L174.574 219.786L432.471 299.719ZM440.438 274.015L440.699 273.173L182.802 193.24L182.541 194.083L440.438 274.015ZM448.535 247.891L448.665 247.469L190.768 167.537L190.638 167.958L448.535 247.891ZM195.799 153.936L195.623 154.344L443.458 261.478L443.634 261.07L195.799 153.936ZM185.05 178.802L184.698 179.617L432.533 286.751L432.886 285.935L185.05 178.802ZM174.125 204.075L173.949 204.482L421.784 311.616L421.961 311.208L174.125 204.075ZM431.838 274.68L431.892 274.245L163.949 240.983L163.895 241.418L431.838 274.68ZM435.131 248.157L435.239 247.287L167.296 214.025L167.188 214.895L435.131 248.157ZM438.478 221.199L438.532 220.764L170.588 187.502L170.534 187.937L438.478 221.199ZM173.201 172.989L173.1 173.417L435.817 235.705L435.918 235.277L173.201 172.989ZM167.014 199.088L166.811 199.943L429.528 262.232L429.731 261.376L167.014 199.088ZM160.724 225.614L160.623 226.042L423.34 288.33L423.441 287.903L160.724 225.614ZM426.777 249.77L426.753 249.333L157.161 264.166L157.185 264.603L426.777 249.77ZM425.311 223.114L425.263 222.24L155.671 237.073L155.719 237.947L425.311 223.114ZM423.82 196.02L423.796 195.583L154.204 210.417L154.228 210.854L423.82 196.02ZM289 203L558.592 188.167H19.4078L289 203ZM291.981 257.186L22.3891 272.019L554.698 319.475L291.981 257.186ZM304.56 204.133L572.503 237.395L41.843 141.845L304.56 204.133ZM297.867 258.049L29.9235 224.787L545.702 365.183L297.867 258.049ZM319.717 207.503L577.614 287.436L71.8815 100.369L319.717 207.503ZM303.523 259.752L45.6258 179.82L529.501 407.515L303.523 259.752ZM334.078 213.023L574.27 336.344L108.099 65.2605L334.078 213.023ZM308.802 262.252L68.611 138.931L507.26 445.322L308.802 262.252ZM347.272 220.549L563.267 382.555L148.814 37.4791L347.272 220.549ZM313.569 265.483L97.5737 103.477L480.193 477.937L313.569 265.483ZM358.957 229.887L545.618 424.97L192.333 17.433L358.957 229.887ZM317.7 269.362L131.038 74.2788L449.396 505.066L317.7 269.362ZM368.829 240.794L522.334 462.912L237.133 5.09084L368.829 240.794ZM321.087 273.789L167.582 51.6711L415.767 526.644L321.087 273.789ZM376.635 252.989L494.302 496L281.955 0.134378L376.635 252.989ZM323.643 278.648L205.975 35.6375L380.004 542.7L323.643 278.648ZM382.17 266.156L462.239 524.01L325.809 2.10398L382.17 266.156ZM325.302 283.815L245.233 25.9602L342.646 553.257L325.302 283.815ZM385.293 279.953L426.711 546.757L367.948 10.5107L385.293 279.953ZM326.021 289.154L284.603 22.3499L304.146 558.267L326.021 289.154ZM385.921 294.023L388.19 564.014L407.796 24.9109L385.921 294.023ZM325.781 294.529L323.512 24.5381L264.943 557.585L325.781 294.529ZM384.04 308.002L347.133 575.468L444.877 44.9456L384.04 308.002ZM324.588 299.799L361.495 32.333L225.548 550.978L324.588 299.799ZM379.697 321.528L304.055 580.716L478.736 70.3485L379.697 321.528ZM322.473 304.828L398.116 45.64L186.615 538.157L322.473 304.828ZM373.004 334.25L259.609 579.284L508.863 100.921L373.004 334.25ZM319.492 309.486L432.887 64.4522L149.008 518.854L319.492 309.486ZM364.137 345.839L214.658 570.686L534.621 136.471L364.137 345.839ZM315.721 313.652L465.199 88.8052L113.836 492.935L315.721 313.652ZM353.323 355.995L170.324 554.517L555.208 176.712L353.323 355.995ZM311.258 317.219L494.257 118.696L82.4363 460.539L311.258 317.219ZM340.843 364.454L128.003 530.584L569.665 221.134L340.843 364.454ZM306.218 320.094L519.059 153.964L56.2826 422.232L306.218 320.094ZM327.021 370.998L89.3202 499.055L576.956 268.86L327.021 370.998ZM300.733 322.202L538.433 194.146L36.7964 379.102L300.733 322.202ZM312.214 375.457L55.9916 460.606L576.15 318.558L312.214 375.457ZM294.943 323.489L551.165 238.341L25.1024 332.754L294.943 323.489ZM296.805 377.716L29.6032 416.486L566.646 368.451L296.805 377.716ZM289 323.922L556.202 285.152H21.798L289 323.922ZM281.195 377.716L11.3538 368.451L548.397 416.486L281.195 377.716ZM283.057 323.489L552.898 332.754L26.8347 238.341L283.057 323.489ZM265.786 375.457L1.84997 318.558L522.008 460.606L265.786 375.457ZM277.267 322.202L541.204 379.102L39.5667 194.146L277.267 322.202ZM250.979 370.998L1.04352 268.86L488.68 499.055L250.979 370.998ZM271.782 320.094L521.717 422.232L58.9413 153.964L271.782 320.094ZM237.157 364.454L8.33521 221.134L449.997 530.584L237.157 364.454ZM266.742 317.219L495.564 460.539L83.7429 118.696L266.742 317.219ZM224.677 355.995L22.7917 176.712L407.676 554.517L224.677 355.995ZM262.279 313.652L464.164 492.935L112.801 88.8052L262.279 313.652ZM213.863 345.839L43.3791 136.471L363.342 570.686L213.863 345.839ZM258.508 309.486L428.992 518.854L145.113 64.4522L258.508 309.486ZM204.996 334.25L69.1371 100.921L318.391 579.284L204.996 334.25ZM255.527 304.828L391.385 538.157L179.884 45.64L255.527 304.828ZM198.303 321.528L99.2635 70.3485L273.945 580.716L198.303 321.528ZM253.412 299.799L352.452 550.978L216.505 32.333L253.412 299.799ZM193.96 308.002L133.123 44.9456L230.867 575.468L193.96 308.002ZM252.219 294.529L313.057 557.585L254.488 24.5381L252.219 294.529ZM192.079 294.023L170.204 24.9109L189.81 564.014L192.079 294.023ZM251.979 289.154L273.854 558.267L293.397 22.3499L251.979 289.154ZM192.707 279.953L210.052 10.5107L151.289 546.757L192.707 279.953ZM252.698 283.815L235.354 553.257L332.767 25.9602L252.698 283.815ZM195.83 266.156L252.191 2.10398L115.761 524.01L195.83 266.156ZM254.357 278.648L197.996 542.7L372.025 35.6375L254.357 278.648ZM201.365 252.989L296.045 0.134378L83.6976 496L201.365 252.989ZM256.913 273.789L162.233 526.644L410.418 51.6711L256.913 273.789ZM209.171 240.794L340.867 5.09084L55.666 462.912L209.171 240.794ZM260.3 269.362L128.604 505.066L446.962 74.2788L260.3 269.362ZM219.043 229.887L385.667 17.433L32.3822 424.97L219.043 229.887ZM264.431 265.483L97.8071 477.937L480.426 103.477L264.431 265.483ZM230.728 220.549L429.186 37.4791L14.7325 382.555L230.728 220.549ZM269.198 262.252L70.7399 445.322L509.389 138.931L269.198 262.252ZM243.922 213.023L469.901 65.2605L3.73049 336.344L243.922 213.023ZM274.477 259.752L48.4987 407.514L532.374 179.82L274.477 259.752ZM258.283 207.503L506.119 100.369L0.386339 287.436L258.283 207.503ZM280.133 258.049L32.2979 365.183L548.077 224.787L280.133 258.049ZM273.44 204.133L536.157 141.845L5.49678 237.395L273.44 204.133ZM286.019 257.186L23.3018 319.475L555.611 272.019L286.019 257.186ZM19.4078 188.167L19.3837 188.604L558.568 218.27L558.592 217.833L19.4078 188.167ZM17.9411 214.823L17.893 215.697L557.078 245.363L557.126 244.489L17.9411 214.823ZM16.4504 241.916L16.4264 242.353L555.611 272.019L555.635 271.582L16.4504 241.916ZM548.736 194.898L548.634 194.47L23.2003 319.047L23.3018 319.475L548.736 194.898ZM542.548 168.799L542.345 167.944L16.911 292.52L17.1139 293.376L542.548 168.799ZM536.258 142.273L536.157 141.845L10.7232 266.421L10.8247 266.849L536.258 142.273ZM5.49678 237.395L5.55076 237.83L541.437 171.306L541.383 170.871L5.49678 237.395ZM8.78934 263.919L8.8973 264.788L544.784 198.264L544.676 197.394L8.78934 263.919ZM12.1359 290.877L12.1899 291.311L548.077 224.787L548.023 224.352L12.1359 290.877ZM527.968 150.915L527.792 150.508L32.1217 364.775L32.2979 365.183L527.968 150.915ZM517.22 126.05L516.867 125.235L21.1967 339.502L21.5491 340.318L517.22 126.05ZM506.295 100.777L506.119 100.369L10.4479 314.637L10.6241 315.045L506.295 100.777ZM0.386339 287.436L0.516937 287.857L516.311 127.992L516.18 127.571L0.386339 287.436ZM8.35282 313.139L8.61402 313.982L524.408 154.117L524.147 153.274L8.35282 313.139ZM16.4499 339.264L16.5805 339.685L532.374 179.82L532.244 179.399L16.4499 339.264ZM500.456 111.99L500.21 111.614L48.2522 407.138L48.4987 407.514L500.456 111.99ZM485.425 89.0023L484.932 88.2486L32.9745 383.773L33.4673 384.526L485.425 89.0023ZM470.147 65.6374L469.901 65.2605L17.9431 360.785L18.1896 361.162L470.147 65.6374ZM3.73049 336.344L3.93433 336.741L484.317 90.0984L484.113 89.7014L3.73049 336.344ZM16.1646 360.561L16.5722 361.355L496.955 114.713L496.547 113.919L16.1646 360.561ZM28.8025 385.176L29.0063 385.573L509.389 138.931L509.185 138.534L28.8025 385.176ZM467.655 79.1824L467.345 78.8461L70.4296 444.985L70.7399 445.322L467.655 79.1824ZM448.731 58.667L448.11 57.9944L51.1948 424.134L51.8153 424.806L448.731 58.667ZM429.496 37.8154L429.186 37.4791L32.2702 403.618L32.5804 403.955L429.496 37.8154ZM14.7325 382.555L15.0043 382.917L446.995 58.9051L446.723 58.5427L14.7325 382.555ZM31.3122 404.66L31.8558 405.384L463.847 81.3723L463.303 80.6476L31.3122 404.66ZM48.1636 427.127L48.4354 427.489L480.426 103.477L480.155 103.115L48.1636 427.127ZM431.055 53.0297L430.689 52.7426L97.441 477.65L97.8071 477.937L431.055 53.0297ZM408.727 35.5184L407.995 34.9443L74.7473 459.851L75.4794 460.426L408.727 35.5184ZM386.033 17.7201L385.667 17.433L52.4196 442.34L52.7856 442.627L386.033 17.7201ZM32.3822 424.97L32.7149 425.289L406.037 35.1214L405.705 34.803L32.3822 424.97ZM52.6779 444.39L53.3434 445.026L426.666 54.8593L426 54.2226L52.6779 444.39ZM73.3064 464.128L73.6392 464.446L446.962 74.2788L446.629 73.9605L73.3064 464.128ZM391.996 33.6589L391.584 33.4285L128.192 504.836L128.604 505.066L391.996 33.6589ZM366.844 19.6053L366.019 19.1445L102.627 490.551L103.452 491.012L366.844 19.6053ZM341.279 5.32123L340.867 5.09084L77.4745 476.498L77.8868 476.728L341.279 5.32123ZM55.666 462.912L56.0511 463.178L363.06 18.9425L362.675 18.6764L55.666 462.912ZM79.1523 479.143L79.9224 479.676L386.931 35.4398L386.161 34.9077L79.1523 479.143ZM103.024 495.641L103.409 495.907L410.418 51.6711L410.033 51.405L103.024 495.641ZM351.593 20.934L351.145 20.7662L161.785 526.476L162.233 526.644L351.593 20.934ZM324.267 10.7019L323.371 10.3664L134.011 516.076L134.907 516.412L324.267 10.7019ZM296.493 0.302118L296.045 0.134378L106.685 505.844L107.133 506.012L296.493 0.302118ZM83.6976 496L84.1249 496.207L319.46 10.1854L319.033 9.9785L83.6976 496ZM109.766 508.623L110.621 509.037L345.956 23.0149L345.102 22.6011L109.766 508.623ZM136.262 521.452L136.689 521.659L372.025 35.6375L371.597 35.4306L136.262 521.452ZM310.718 14.5964L310.246 14.4956L197.524 542.6L197.996 542.7L310.718 14.5964ZM281.926 8.45093L280.982 8.24944L168.261 536.353L169.204 536.555L281.926 8.45093ZM252.663 2.20473L252.191 2.10398L139.469 530.208L139.941 530.309L252.663 2.20473ZM115.761 524.01L116.219 524.153L276.357 8.44387L275.899 8.30146L115.761 524.01ZM143.736 532.697L144.653 532.982L304.792 17.2733L303.874 16.9884L143.736 532.697ZM172.17 541.527L172.629 541.669L332.767 25.9602L332.308 25.8178L172.17 541.527ZM270.042 14.3724L269.559 14.3413L234.87 553.226L235.354 553.257L270.042 14.3724ZM240.531 12.4727L239.563 12.4104L204.874 551.295L205.842 551.357L240.531 12.4727ZM210.535 10.5418L210.052 10.5107L175.363 549.395L175.847 549.427L210.535 10.5418ZM151.289 546.757L151.767 546.832L234.603 13.2229L234.125 13.1487L151.289 546.757ZM180.448 551.284L181.404 551.432L264.239 17.8235L263.283 17.6751L180.448 551.284ZM210.084 555.884L210.562 555.959L293.397 22.3499L292.919 22.2757L210.084 555.884ZM230.104 20.0418L229.621 20.0811L273.371 558.306L273.854 558.267L230.104 20.0418ZM200.637 22.4371L199.671 22.5156L243.421 560.74L244.387 560.662L200.637 22.4371ZM170.687 24.8716L170.204 24.9109L213.954 563.136L214.437 563.096L170.687 24.8716ZM189.81 564.014L190.295 564.018L194.832 24.0369L194.347 24.0328L189.81 564.014ZM219.396 564.262L220.366 564.27L224.903 24.2895L223.933 24.2814L219.396 564.262ZM249.466 564.515L249.951 564.519L254.488 24.5381L254.003 24.534L249.466 564.515ZM191.382 31.4719L190.912 31.5806L312.587 557.694L313.057 557.585L191.382 31.4719ZM162.722 38.1001L161.783 38.3174L283.458 564.431L284.397 564.213L162.722 38.1001ZM133.593 44.8369L133.123 44.9456L254.798 571.059L255.268 570.95L133.593 44.8369ZM230.867 575.468L231.347 575.402L157.533 40.4705L157.053 40.5366L230.867 575.468ZM260.114 571.432L261.073 571.3L187.259 36.3686L186.3 36.501L260.114 571.432ZM289.84 567.33L290.319 567.264L216.505 32.333L216.026 32.3991L289.84 567.33ZM154.372 48.6192L153.928 48.7944L352.008 551.153L352.452 550.978L154.372 48.6192ZM127.262 59.3086L126.373 59.6591L324.453 562.018L325.342 561.667L127.262 59.3086ZM99.7079 70.1733L99.2635 70.3485L297.343 572.707L297.788 572.532L99.7079 70.1733ZM273.945 580.716L274.407 580.581L123.123 62.2055L122.661 62.3402L273.945 580.716ZM302.096 572.5L303.019 572.231L151.734 53.8554L150.811 54.1248L302.096 572.5ZM330.707 564.15L331.169 564.016L179.884 45.64L179.423 45.7747L330.707 564.15ZM119.668 71.4987L119.261 71.7359L390.977 538.394L391.385 538.157L119.668 71.4987ZM94.8101 85.9725L93.9951 86.447L365.712 553.105L366.527 552.631L94.8101 85.9725ZM69.5446 100.684L69.1371 100.921L340.854 567.579L341.262 567.342L69.5446 100.684ZM318.391 579.284L318.822 579.084L92.0318 89.0166L91.6003 89.2163L318.391 579.284ZM344.715 567.101L345.579 566.702L118.788 76.6345L117.925 77.0339L344.715 567.101ZM371.472 554.719L371.903 554.52L145.113 64.4522L144.681 64.6519L371.472 554.719ZM88.0237 100.117L87.6636 100.411L428.632 519.147L428.992 518.854L88.0237 100.117ZM66.0614 118.001L65.3413 118.587L406.31 537.324L407.03 536.738L66.0614 118.001ZM43.7391 136.177L43.3791 136.471L384.348 555.207L384.708 554.914L43.7391 136.177ZM363.342 570.686L363.732 570.426L64.7754 120.732L64.3849 120.992L363.342 570.686ZM387.159 554.852L387.94 554.333L88.9832 104.639L88.2023 105.158L387.159 554.852ZM411.367 538.759L411.757 538.499L112.801 88.8052L112.41 89.0647L411.367 538.759ZM60.3935 134.37L60.0903 134.711L463.861 493.276L464.164 492.935L60.3935 134.37ZM41.8958 155.199L41.2893 155.882L445.06 514.448L445.667 513.765L41.8958 155.199ZM23.0949 176.371L22.7917 176.712L426.563 535.277L426.866 534.936L23.0949 176.371ZM407.676 554.517L408.016 554.205L42.0171 157.159L41.6779 157.472L407.676 554.517ZM428.37 535.442L429.048 534.817L63.0496 137.771L62.3711 138.397L428.37 535.442ZM449.402 516.054L449.741 515.742L83.7429 118.696L83.4036 119.009L449.402 516.054ZM37.9205 173.899L37.6819 174.28L495.325 460.92L495.564 460.539L37.9205 173.899ZM23.3664 197.135L22.8892 197.897L480.532 484.538L481.01 483.776L23.3664 197.135ZM8.5738 220.753L8.33521 221.134L465.978 507.774L466.217 507.393L8.5738 220.753ZM449.997 530.584L450.276 530.226L24.5957 197.967L24.3165 198.325L449.997 530.584ZM467.03 508.761L467.589 508.046L41.9081 175.787L41.3497 176.502L467.03 508.761ZM484.343 486.581L484.622 486.223L58.9413 153.964L58.6621 154.322L484.343 486.581ZM21.846 217.956L21.6782 218.366L521.55 422.642L521.717 422.232L21.846 217.956ZM11.6125 242.998L11.277 243.819L511.148 448.094L511.484 447.273L11.6125 242.998ZM1.21129 268.45L1.04352 268.86L500.915 473.136L501.083 472.726L1.21129 268.45ZM488.68 499.055L488.892 498.661L13.4907 242.548L13.2787 242.942L488.68 499.055ZM501.612 475.05L502.036 474.263L26.6347 218.15L26.2107 218.937L501.612 475.05ZM514.756 450.652L514.968 450.258L39.5667 194.146L39.3547 194.539L514.756 450.652ZM13.3308 265.302L13.2382 265.732L541.111 379.531L541.204 379.102L13.3308 265.302ZM7.68298 291.501L7.4978 292.36L535.371 406.159L535.556 405.3L7.68298 291.501ZM1.94255 318.128L1.84997 318.558L529.723 432.357L529.815 431.928L1.94255 318.128ZM522.008 460.606L522.148 460.187L9.70368 289.89L9.5644 290.309L522.008 460.606ZM530.504 435.041L530.783 434.203L18.3388 263.906L18.0603 264.744L530.504 435.041ZM539.139 409.057L539.279 408.638L26.8347 238.341L26.6954 238.76L539.139 409.057ZM13.2157 314.224L13.2006 314.661L552.883 333.192L552.898 332.754L13.2157 314.224ZM12.2997 340.9L12.2697 341.775L551.952 360.305L551.982 359.431L12.2997 340.9ZM11.3688 368.014L11.3538 368.451L551.036 386.981L551.051 386.544L11.3688 368.014ZM548.397 416.486L548.46 416.052L14.0557 338.513L13.9927 338.947L548.397 416.486ZM552.236 390.023L552.362 389.155L17.9583 311.616L17.8324 312.483L552.236 390.023ZM556.139 363.125L556.202 362.692L21.798 285.152L21.735 285.586L556.139 363.125ZM21.798 362.692L21.8609 363.125L556.265 285.586L556.202 285.152L21.798 362.692ZM25.6377 389.155L25.7636 390.023L560.168 312.483L560.042 311.616L25.6377 389.155ZM29.5403 416.052L29.6032 416.486L564.007 338.947L563.944 338.513L29.5403 416.052ZM566.646 368.451L566.631 368.014L26.9493 386.544L26.9643 386.981L566.646 368.451ZM565.73 341.775L565.7 340.9L26.0183 359.431L26.0483 360.305L565.73 341.775ZM564.799 314.661L564.784 314.224L25.1024 332.754L25.1174 333.192L564.799 314.661ZM38.7214 408.638L38.8606 409.057L551.305 238.76L551.165 238.341L38.7214 408.638ZM47.2172 434.203L47.4958 435.041L559.94 264.744L559.661 263.906L47.2172 434.203ZM55.8524 460.187L55.9916 460.606L568.436 290.309L568.296 289.89L55.8524 460.187ZM576.15 318.558L576.057 318.128L48.1846 431.928L48.2772 432.357L576.15 318.558ZM570.502 292.36L570.317 291.501L42.4442 405.3L42.6294 406.159L570.502 292.36ZM564.762 265.732L564.669 265.302L36.7964 379.102L36.889 379.531L564.762 265.732ZM63.0322 450.258L63.2442 450.652L538.645 194.539L538.433 194.146L63.0322 450.258ZM75.9642 474.263L76.3882 475.05L551.789 218.937L551.365 218.15L75.9642 474.263ZM89.1082 498.661L89.3202 499.055L564.721 242.942L564.509 242.548L89.1082 498.661ZM576.956 268.86L576.789 268.45L76.9173 472.725L77.085 473.136L576.956 268.86ZM566.723 243.819L566.388 242.998L66.516 447.273L66.8516 448.094L566.723 243.819ZM556.322 218.366L556.154 217.956L56.2826 422.232L56.4504 422.642L556.322 218.366ZM93.378 486.223L93.6572 486.581L519.338 154.322L519.059 153.964L93.378 486.223ZM110.411 508.046L110.97 508.761L536.65 176.502L536.092 175.787L110.411 508.046ZM127.724 530.226L128.003 530.584L553.684 198.325L553.404 197.967L127.724 530.226ZM569.665 221.134L569.426 220.753L111.783 507.393L112.022 507.774L569.665 221.134ZM555.111 197.897L554.634 197.135L96.9904 483.776L97.4675 484.538L555.111 197.897ZM540.318 174.28L540.08 173.899L82.4363 460.539L82.6749 460.92L540.318 174.28ZM128.259 515.742L128.598 516.054L494.596 119.009L494.257 118.696L128.259 515.742ZM148.952 534.817L149.63 535.442L515.629 138.397L514.95 137.771L148.952 534.817ZM169.984 554.205L170.324 554.517L536.322 157.472L535.983 157.159L169.984 554.205ZM555.208 176.712L554.905 176.371L151.134 534.936L151.437 535.277L555.208 176.712ZM536.711 155.882L536.104 155.199L132.333 513.765L132.94 514.448L536.711 155.882ZM517.91 134.711L517.606 134.37L113.836 492.935L114.139 493.276L517.91 134.711ZM166.243 538.499L166.633 538.759L465.59 89.0647L465.199 88.8052L166.243 538.499ZM190.06 554.333L190.841 554.852L489.798 105.158L489.017 104.639L190.06 554.333ZM214.268 570.426L214.658 570.686L513.615 120.992L513.225 120.732L214.268 570.426ZM534.621 136.471L534.261 136.177L193.292 554.914L193.652 555.207L534.621 136.471ZM512.659 118.587L511.939 118.001L170.97 536.738L171.69 537.324L512.659 118.587ZM490.336 100.411L489.976 100.117L149.008 518.854L149.368 519.147L490.336 100.411ZM206.097 554.52L206.528 554.719L433.319 64.6519L432.887 64.4522L206.097 554.52ZM232.421 566.702L233.285 567.101L460.075 77.034L459.212 76.6345L232.421 566.702ZM259.178 579.084L259.609 579.284L486.4 89.2163L485.968 89.0166L259.178 579.084ZM508.863 100.921L508.455 100.684L236.738 567.342L237.146 567.579L508.863 100.921ZM484.005 86.4471L483.19 85.9725L211.473 552.631L212.288 553.105L484.005 86.4471ZM458.739 71.7359L458.332 71.4987L186.615 538.157L187.023 538.394L458.739 71.7359ZM246.831 564.015L247.293 564.15L398.577 45.7747L398.116 45.64L246.831 564.015ZM274.981 572.231L275.904 572.5L427.189 54.1248L426.266 53.8554L274.981 572.231ZM303.593 580.581L304.055 580.716L455.339 62.3402L454.877 62.2055L303.593 580.581ZM478.736 70.3485L478.292 70.1733L280.212 572.532L280.657 572.707L478.736 70.3485ZM451.627 59.6591L450.738 59.3086L252.658 561.667L253.547 562.018L451.627 59.6591ZM424.072 48.7944L423.628 48.6192L225.548 550.978L225.992 551.153L424.072 48.7944ZM287.681 567.264L288.16 567.33L361.974 32.3991L361.495 32.333L287.681 567.264ZM316.927 571.3L317.886 571.432L391.7 36.5009L390.741 36.3686L316.927 571.3ZM346.653 575.402L347.133 575.468L420.947 40.5366L420.467 40.4705L346.653 575.402ZM444.877 44.9456L444.407 44.8369L322.732 570.95L323.202 571.059L444.877 44.9456ZM416.217 38.3174L415.278 38.1001L293.603 564.213L294.542 564.431L416.217 38.3174ZM387.088 31.5806L386.618 31.4719L264.943 557.585L265.413 557.694L387.088 31.5806ZM328.049 564.519L328.534 564.515L323.997 24.534L323.512 24.5381L328.049 564.519ZM357.634 564.27L358.604 564.262L354.067 24.2814L353.097 24.2895L357.634 564.27ZM387.705 564.018L388.19 564.014L383.653 24.0328L383.168 24.0369L387.705 564.018ZM407.796 24.9109L407.313 24.8716L363.563 563.096L364.046 563.136L407.796 24.9109ZM378.329 22.5156L377.363 22.4371L333.613 560.662L334.579 560.74L378.329 22.5156ZM348.379 20.0811L347.896 20.0418L304.146 558.267L304.629 558.306L348.379 20.0811ZM367.438 555.959L367.916 555.884L285.081 22.2757L284.603 22.3499L367.438 555.959ZM396.596 551.432L397.552 551.284L314.717 17.6751L313.761 17.8235L396.596 551.432ZM426.233 546.832L426.711 546.757L343.875 13.1487L343.397 13.2229L426.233 546.832ZM367.948 10.5107L367.465 10.5418L402.153 549.427L402.637 549.395L367.948 10.5107ZM338.437 12.4104L337.469 12.4727L372.158 551.357L373.126 551.295L338.437 12.4104ZM308.441 14.3413L307.958 14.3724L342.646 553.257L343.13 553.226L308.441 14.3413ZM405.371 541.669L405.83 541.527L245.692 25.8178L245.233 25.9602L405.371 541.669ZM433.347 532.982L434.264 532.697L274.126 16.9884L273.208 17.2733L433.347 532.982ZM461.781 524.153L462.239 524.01L302.101 8.30146L301.643 8.44387L461.781 524.153ZM325.809 2.10398L325.337 2.20473L438.059 530.309L438.531 530.208L325.809 2.10398ZM297.018 8.24944L296.074 8.45093L408.796 536.555L409.739 536.353L297.018 8.24944ZM267.754 14.4956L267.282 14.5964L380.004 542.7L380.476 542.6L267.754 14.4956ZM441.311 521.659L441.738 521.452L206.403 35.4306L205.975 35.6375L441.311 521.659ZM467.379 509.037L468.234 508.623L232.898 22.6011L232.044 23.0149L467.379 509.037ZM493.875 496.207L494.302 496L258.967 9.9785L258.54 10.1854L493.875 496.207ZM281.955 0.134378L281.507 0.302117L470.867 506.012L471.315 505.844L281.955 0.134378ZM254.629 10.3664L253.733 10.7019L443.093 516.412L443.989 516.076L254.629 10.3664ZM226.855 20.7662L226.407 20.934L415.767 526.644L416.215 526.476L226.855 20.7662ZM474.591 495.907L474.976 495.641L167.967 51.405L167.582 51.6711L474.591 495.907ZM498.078 479.676L498.848 479.143L191.839 34.9077L191.069 35.4398L498.078 479.676ZM521.949 463.178L522.334 462.912L215.325 18.6764L214.94 18.9425L521.949 463.178ZM237.133 5.09084L236.721 5.32123L500.113 476.728L500.526 476.498L237.133 5.09084ZM211.981 19.1445L211.156 19.6053L474.548 491.012L475.373 490.551L211.981 19.1445ZM186.416 33.4285L186.004 33.6589L449.396 505.066L449.808 504.836L186.416 33.4285ZM504.361 464.446L504.694 464.128L131.371 73.9605L131.038 74.2788L504.361 464.446ZM524.657 445.026L525.322 444.39L152 54.2226L151.334 54.8593L524.657 445.026ZM545.285 425.289L545.618 424.97L172.295 34.803L171.963 35.1214L545.285 425.289ZM192.333 17.433L191.967 17.7201L525.214 442.627L525.58 442.34L192.333 17.433ZM170.005 34.9443L169.273 35.5184L502.521 460.426L503.253 459.851L170.005 34.9443ZM147.311 52.7426L146.945 53.0297L480.193 477.937L480.559 477.65L147.311 52.7426ZM529.565 427.489L529.836 427.127L97.8455 103.115L97.5737 103.477L529.565 427.489ZM546.144 405.384L546.688 404.66L114.697 80.6476L114.153 81.3723L546.144 405.384ZM562.996 382.917L563.267 382.555L131.277 58.5427L131.005 58.9051L562.996 382.917ZM148.814 37.4791L148.504 37.8154L545.42 403.955L545.73 403.618L148.814 37.4791ZM129.89 57.9944L129.269 58.667L526.185 424.806L526.805 424.134L129.89 57.9944ZM110.655 78.846L110.345 79.1824L507.26 445.322L507.57 444.985L110.655 78.846ZM548.994 385.573L549.198 385.176L68.8148 138.534L68.611 138.931L548.994 385.573ZM561.428 361.356L561.835 360.561L81.4527 113.919L81.0451 114.713L561.428 361.356ZM574.066 336.741L574.27 336.344L93.8868 89.7014L93.683 90.0984L574.066 336.741ZM108.099 65.2605L107.853 65.6374L559.81 361.162L560.057 360.785L108.099 65.2605ZM93.0681 88.2486L92.5753 89.0023L544.533 384.526L545.025 383.773L93.0681 88.2486ZM77.7904 111.613L77.5439 111.99L529.501 407.515L529.748 407.138L77.7904 111.613ZM561.42 339.685L561.55 339.264L45.7564 179.399L45.6258 179.82L561.42 339.685ZM569.386 313.982L569.647 313.139L53.8535 153.274L53.5923 154.117L569.386 313.982ZM577.483 287.857L577.614 287.436L61.8199 127.571L61.6893 127.992L577.483 287.857ZM71.8815 100.369L71.7053 100.777L567.376 315.045L567.552 314.637L71.8815 100.369ZM61.1327 125.235L60.7803 126.05L556.451 340.318L556.803 339.502L61.1327 125.235ZM50.2077 150.508L50.0315 150.915L545.702 365.183L545.878 364.775L50.2077 150.508ZM565.81 291.311L565.864 290.877L29.9775 224.352L29.9235 224.787L565.81 291.311ZM569.103 264.788L569.211 263.919L33.324 197.394L33.216 198.264L569.103 264.788ZM572.449 237.83L572.503 237.395L36.6166 170.871L36.5626 171.306L572.449 237.83ZM41.843 141.845L41.7416 142.273L567.175 266.849L567.277 266.421L41.843 141.845ZM35.6552 167.944L35.4523 168.799L560.886 293.376L561.089 292.52L35.6552 167.944ZM29.3659 194.47L29.2644 194.898L554.698 319.475L554.8 319.047L29.3659 194.47ZM561.574 242.353L561.55 241.916L22.3651 271.582L22.3891 272.019L561.574 242.353ZM560.107 215.697L560.059 214.823L20.8744 244.489L20.9225 245.363L560.107 215.697ZM558.616 188.604L558.592 188.167L19.4078 217.833L19.4318 218.27L558.616 188.604Z" fill="white" mask="url(#path-1-outside-1_193_10)"/>
<path d="M289 203L423.796 195.583H154.204L289 203ZM291.981 257.186L157.185 264.603L423.34 288.33L291.981 257.186ZM304.56 204.133L438.532 220.764L173.201 172.989L304.56 204.133ZM297.867 258.049L163.895 241.418L421.784 311.616L297.867 258.049ZM319.717 207.503L448.665 247.469L195.799 153.936L319.717 207.503ZM303.523 259.752L174.574 219.786L416.512 333.633L303.523 259.752ZM334.078 213.023L454.174 274.683L221.089 139.142L334.078 213.023ZM308.802 262.252L188.707 200.591L408.031 353.787L308.802 262.252ZM347.272 220.549L455.27 301.552L248.043 129.014L347.272 220.549ZM313.569 265.483L205.571 184.48L396.881 371.71L313.569 265.483ZM358.957 229.887L452.287 327.428L275.645 123.66L358.957 229.887ZM317.7 269.362L224.369 171.821L383.548 387.214L317.7 269.362ZM368.829 240.794L445.582 351.853L302.981 122.943L368.829 240.794ZM321.087 273.789L244.335 162.73L368.427 400.216L321.087 273.789ZM376.635 252.989L435.469 374.495L329.295 126.562L376.635 252.989ZM323.643 278.648L264.809 157.143L351.823 410.674L323.643 278.648ZM382.17 266.156L422.205 395.083L353.99 134.13L382.17 266.156ZM325.302 283.815L285.267 154.887L333.974 418.536L325.302 283.815ZM385.293 279.953L406.002 413.355L376.621 145.232L385.293 279.953ZM326.021 289.154L305.312 155.752L315.083 423.71L326.021 289.154ZM385.921 294.023L387.056 429.019L396.859 159.467L385.921 294.023ZM325.781 294.529L324.646 159.533L295.362 426.057L325.781 294.529ZM384.04 308.002L365.586 441.735L414.458 176.474L384.04 308.002ZM324.588 299.799L343.041 166.066L275.068 425.388L324.588 299.799ZM379.697 321.528L341.876 451.122L429.217 195.938L379.697 321.528ZM322.473 304.828L360.295 175.234L254.544 421.492L322.473 304.828ZM373.004 334.25L316.307 456.767L440.934 217.585L373.004 334.25ZM319.492 309.486L376.19 186.969L234.25 414.17L319.492 309.486ZM364.137 345.839L289.397 458.263L449.379 241.155L364.137 345.839ZM315.721 313.652L390.46 201.229L214.778 403.294L315.721 313.652ZM353.323 355.995L261.823 455.256L454.266 266.353L353.323 355.995ZM311.258 317.219L402.758 217.958L196.847 388.879L311.258 317.219ZM340.843 364.454L234.423 447.519L455.254 292.794L340.843 364.454ZM306.218 320.094L412.638 237.029L181.25 371.163L306.218 320.094ZM327.021 370.998L208.17 435.026L451.989 319.929L327.021 370.998ZM300.733 322.202L419.583 258.174L168.765 350.652L300.733 322.202ZM312.214 375.457L184.103 418.032L444.182 347.008L312.214 375.457ZM294.943 323.489L423.054 280.915L160.023 328.122L294.943 323.489ZM296.805 377.716L163.204 397.101L431.726 373.084L296.805 377.716ZM289 323.922L422.601 304.537H155.399L289 323.922ZM281.195 377.716L146.274 373.084L414.796 397.101L281.195 377.716ZM283.057 323.489L417.977 328.122L154.946 280.915L283.057 323.489ZM265.786 375.457L133.818 347.008L393.897 418.032L265.786 375.457ZM277.267 322.202L409.235 350.652L158.417 258.174L277.267 322.202ZM250.979 370.998L126.011 319.929L369.83 435.026L250.979 370.998ZM271.782 320.094L396.75 371.163L165.362 237.029L271.782 320.094ZM237.157 364.454L122.746 292.794L343.577 447.519L237.157 364.454ZM266.742 317.219L381.153 388.879L175.242 217.958L266.742 317.219ZM224.677 355.995L123.734 266.353L316.177 455.256L224.677 355.995ZM262.279 313.652L363.222 403.294L187.54 201.229L262.279 313.652ZM213.863 345.839L128.621 241.155L288.603 458.263L213.863 345.839ZM258.508 309.486L343.75 414.17L201.81 186.969L258.508 309.486ZM204.996 334.25L137.066 217.585L261.693 456.767L204.996 334.25ZM255.527 304.828L323.456 421.492L217.705 175.234L255.527 304.828ZM198.303 321.528L148.783 195.938L236.124 451.122L198.303 321.528ZM253.412 299.799L302.932 425.388L234.959 166.066L253.412 299.799ZM193.96 308.002L163.542 176.474L212.414 441.735L193.96 308.002ZM252.219 294.529L282.638 426.057L253.354 159.533L252.219 294.529ZM192.079 294.023L181.141 159.467L190.944 429.019L192.079 294.023ZM251.979 289.154L262.917 423.71L272.688 155.752L251.979 289.154ZM192.707 279.953L201.379 145.232L171.998 413.355L192.707 279.953ZM252.698 283.815L244.026 418.536L292.733 154.887L252.698 283.815ZM195.83 266.156L224.01 134.13L155.795 395.083L195.83 266.156ZM254.357 278.648L226.177 410.674L313.191 157.143L254.357 278.648ZM201.365 252.989L248.705 126.562L142.531 374.495L201.365 252.989ZM256.913 273.789L209.573 400.216L333.665 162.73L256.913 273.789ZM209.171 240.794L275.019 122.943L132.418 351.853L209.171 240.794ZM260.3 269.362L194.452 387.214L353.631 171.821L260.3 269.362ZM219.043 229.887L302.355 123.66L125.713 327.428L219.043 229.887ZM264.431 265.483L181.119 371.71L372.429 184.48L264.431 265.483ZM230.728 220.549L329.957 129.014L122.73 301.552L230.728 220.549ZM269.198 262.252L169.969 353.787L389.293 200.591L269.198 262.252ZM243.922 213.023L356.911 139.142L123.826 274.683L243.922 213.023ZM274.477 259.752L161.488 333.633L403.426 219.786L274.477 259.752ZM258.283 207.503L382.201 153.936L129.335 247.469L258.283 207.503ZM280.133 258.049L156.216 311.616L414.105 241.418L280.133 258.049ZM273.44 204.133L404.799 172.989L139.468 220.764L273.44 204.133ZM286.019 257.186L154.66 288.33L420.815 264.603L286.019 257.186ZM154.204 195.583L154.18 196.02L423.772 210.854L423.796 210.417L154.204 195.583ZM152.737 222.24L152.689 223.114L422.281 237.947L422.329 237.073L152.737 222.24ZM151.247 249.333L151.223 249.77L420.815 264.603L420.839 264.166L151.247 249.333ZM417.377 226.042L417.276 225.614L154.559 287.903L154.66 288.33L417.377 226.042ZM411.189 199.943L410.986 199.088L148.269 261.376L148.472 262.232L411.189 199.943ZM404.9 173.417L404.799 172.989L142.082 235.277L142.183 235.705L404.9 173.417ZM139.468 220.764L139.522 221.199L407.466 187.937L407.412 187.502L139.468 220.764ZM142.761 247.287L142.869 248.157L410.812 214.895L410.704 214.025L142.761 247.287ZM146.108 274.245L146.162 274.68L414.105 241.418L414.051 240.983L146.108 274.245ZM404.051 204.482L403.875 204.075L156.039 311.208L156.216 311.616L404.051 204.482ZM393.302 179.617L392.95 178.802L145.114 285.935L145.467 286.751L393.302 179.617ZM382.377 154.344L382.201 153.936L134.366 261.07L134.542 261.478L382.377 154.344ZM129.335 247.469L129.465 247.891L387.362 167.958L387.232 167.537L129.335 247.469ZM137.301 273.173L137.562 274.015L395.459 194.083L395.198 193.24L137.301 273.173ZM145.398 299.297L145.529 299.719L403.426 219.786L403.295 219.365L145.398 299.297ZM387.467 185.871L387.22 185.495L161.242 333.257L161.488 333.633L387.467 185.871ZM372.435 162.883L371.943 162.13L145.964 309.892L146.457 310.645L372.435 162.883ZM357.158 139.518L356.911 139.142L130.933 286.904L131.179 287.28L357.158 139.518ZM123.826 274.683L124.03 275.08L364.221 151.759L364.018 151.362L123.826 274.683ZM136.26 298.901L136.668 299.695L376.859 176.374L376.452 175.58L136.26 298.901ZM148.898 323.516L149.102 323.913L389.293 200.591L389.09 200.194L148.898 323.516ZM368.427 170.717L368.116 170.381L169.659 353.451L169.969 353.787L368.427 170.717ZM349.502 150.202L348.881 149.529L150.424 332.599L151.044 333.272L349.502 150.202ZM330.267 129.35L329.957 129.014L131.499 312.084L131.809 312.42L330.267 129.35ZM122.73 301.552L123.002 301.914L338.998 139.908L338.726 139.546L122.73 301.552ZM139.31 323.657L139.853 324.381L355.849 162.375L355.305 161.651L139.31 323.657ZM156.161 346.124L156.433 346.486L372.429 184.48L372.157 184.118L156.161 346.124ZM347.743 159.256L347.377 158.969L180.753 371.423L181.119 371.71L347.743 159.256ZM325.415 141.745L324.683 141.171L158.059 353.625L158.791 354.199L325.415 141.745ZM302.721 123.947L302.355 123.66L135.731 336.113L136.098 336.4L302.721 123.947ZM125.713 327.428L126.045 327.747L312.707 132.663L312.374 132.345L125.713 327.428ZM146.009 346.848L146.674 347.485L333.335 152.401L332.67 151.764L146.009 346.848ZM166.637 366.586L166.97 366.904L353.631 171.821L353.298 171.502L166.637 366.586ZM326.148 151.511L325.736 151.28L194.04 386.984L194.452 387.214L326.148 151.511ZM300.996 137.457L300.171 136.996L168.475 372.7L169.3 373.161L300.996 137.457ZM275.431 123.173L275.019 122.943L143.323 358.646L143.735 358.876L275.431 123.173ZM132.418 351.853L132.803 352.119L286.308 130.001L285.923 129.735L132.418 351.853ZM155.905 368.085L156.675 368.617L310.179 146.499L309.409 145.967L155.905 368.085ZM179.776 384.582L180.161 384.848L333.665 162.73L333.28 162.464L179.776 384.582ZM304.253 147.361L303.805 147.194L209.125 400.049L209.573 400.216L304.253 147.361ZM276.927 137.129L276.031 136.794L181.351 389.649L182.247 389.984L276.927 137.129ZM249.153 126.73L248.705 126.562L154.025 379.417L154.473 379.585L249.153 126.73ZM142.531 374.495L142.959 374.702L260.627 131.691L260.199 131.484L142.531 374.495ZM168.6 387.117L169.455 387.531L287.122 144.52L286.268 144.107L168.6 387.117ZM195.096 399.947L195.523 400.154L313.191 157.143L312.764 156.936L195.096 399.947ZM282.537 146.622L282.065 146.522L225.705 410.574L226.177 410.674L282.537 146.622ZM253.746 140.477L252.802 140.275L196.441 404.327L197.385 404.529L253.746 140.477ZM224.482 134.231L224.01 134.13L167.649 398.182L168.121 398.283L224.482 134.231ZM155.795 395.083L156.254 395.226L236.323 137.371L235.864 137.229L155.795 395.083ZM183.771 403.77L184.688 404.055L264.757 146.201L263.84 145.916L183.771 403.77ZM212.205 412.6L212.664 412.742L292.733 154.887L292.274 154.745L212.205 412.6ZM261.37 149.094L260.886 149.062L243.542 418.505L244.026 418.536L261.37 149.094ZM231.859 147.194L230.891 147.132L213.547 416.574L214.514 416.636L231.859 147.194ZM201.863 145.263L201.379 145.232L184.035 414.674L184.519 414.705L201.863 145.263ZM171.998 413.355L172.476 413.429L213.894 146.625L213.416 146.551L171.998 413.355ZM201.156 417.882L202.112 418.03L243.53 151.226L242.574 151.077L201.156 417.882ZM230.792 422.482L231.27 422.556L272.688 155.752L272.21 155.678L230.792 422.482ZM241.042 154.598L240.559 154.637L262.434 423.75L262.917 423.71L241.042 154.598ZM211.575 156.993L210.609 157.072L232.483 426.184L233.45 426.106L211.575 156.993ZM181.624 159.428L181.141 159.467L203.016 428.579L203.499 428.54L181.624 159.428ZM190.944 429.019L191.429 429.023L193.698 159.032L193.213 159.028L190.944 429.019ZM220.53 429.267L221.5 429.275L223.768 159.285L222.798 159.277L220.53 429.267ZM250.6 429.52L251.085 429.524L253.354 159.533L252.869 159.529L250.6 429.52ZM221.801 163L221.331 163.109L282.168 426.166L282.638 426.057L221.801 163ZM193.141 169.628L192.201 169.846L253.039 432.902L253.978 432.685L193.141 169.628ZM164.011 176.365L163.542 176.474L224.379 439.531L224.849 439.422L164.011 176.365ZM212.414 441.735L212.893 441.669L175.986 174.203L175.507 174.269L212.414 441.735ZM241.66 437.699L242.619 437.567L205.712 170.101L204.753 170.234L241.66 437.699ZM271.386 433.598L271.866 433.531L234.959 166.066L234.479 166.132L271.386 433.598ZM203.892 174.209L203.448 174.384L302.488 425.564L302.932 425.388L203.892 174.209ZM176.782 184.898L175.893 185.249L274.933 436.428L275.822 436.078L176.782 184.898ZM149.228 195.763L148.783 195.938L247.823 447.118L248.268 446.942L149.228 195.763ZM236.124 451.122L236.586 450.987L160.944 191.799L160.482 191.934L236.124 451.122ZM264.275 442.906L265.197 442.637L189.555 183.449L188.632 183.719L264.275 442.906ZM292.886 434.556L293.348 434.422L217.705 175.234L217.244 175.369L292.886 434.556ZM187.597 188.163L187.19 188.4L323.048 421.73L323.456 421.492L187.597 188.163ZM162.739 202.637L161.924 203.112L297.783 436.441L298.598 435.966L162.739 202.637ZM137.474 217.348L137.066 217.585L272.925 450.915L273.332 450.677L137.474 217.348ZM261.693 456.767L262.125 456.567L148.729 211.533L148.298 211.733L261.693 456.767ZM288.018 444.585L288.881 444.185L175.486 199.151L174.623 199.551L288.018 444.585ZM314.774 432.202L315.205 432.003L201.81 186.969L201.379 187.169L314.774 432.202ZM173.266 204.802L172.906 205.095L343.39 414.463L343.75 414.17L173.266 204.802ZM151.304 222.685L150.583 223.271L321.068 432.64L321.788 432.053L151.304 222.685ZM128.981 240.862L128.621 241.155L299.105 450.523L299.465 450.23L128.981 240.862ZM288.603 458.263L288.993 458.003L139.515 233.156L139.124 233.415L288.603 458.263ZM312.42 442.429L313.201 441.91L163.722 217.063L162.941 217.582L312.42 442.429ZM336.628 426.335L337.018 426.076L187.54 201.229L187.149 201.488L336.628 426.335ZM161.336 224.011L161.033 224.352L362.918 403.635L363.222 403.294L161.336 224.011ZM142.839 244.841L142.232 245.524L344.118 424.806L344.724 424.123L142.839 244.841ZM124.038 266.012L123.734 266.353L325.62 445.636L325.923 445.295L124.038 266.012ZM316.177 455.256L316.516 454.943L133.517 256.421L133.177 256.733L316.177 455.256ZM336.87 436.181L337.548 435.556L154.549 237.033L153.871 237.658L336.87 436.181ZM357.902 416.793L358.242 416.48L175.242 217.958L174.903 218.27L357.902 416.793ZM152.331 245.559L152.093 245.94L380.914 389.26L381.153 388.879L152.331 245.559ZM137.777 268.796L137.3 269.557L366.122 412.878L366.599 412.116L137.777 268.796ZM122.985 292.413L122.746 292.794L351.568 436.114L351.806 435.733L122.985 292.413ZM343.577 447.519L343.856 447.161L131.016 281.032L130.737 281.389L343.577 447.519ZM360.61 425.696L361.169 424.981L148.328 258.851L147.77 259.567L360.61 425.696ZM377.923 403.516L378.202 403.158L165.362 237.029L165.082 237.387L377.923 403.516ZM146.814 269.025L146.646 269.435L396.582 371.573L396.75 371.163L146.814 269.025ZM136.58 294.067L136.245 294.888L386.181 397.025L386.516 396.204L136.58 294.067ZM126.179 319.519L126.011 319.929L375.947 422.067L376.115 421.657L126.179 319.519ZM369.83 435.026L370.042 434.633L132.341 306.576L132.129 306.97L369.83 435.026ZM382.761 411.022L383.185 410.235L145.485 282.178L145.061 282.965L382.761 411.022ZM395.905 386.624L396.117 386.23L158.417 258.174L158.205 258.567L395.905 386.624ZM145.299 293.752L145.206 294.182L409.143 351.081L409.235 350.652L145.299 293.752ZM139.651 319.95L139.466 320.809L403.402 377.709L403.588 376.85L139.651 319.95ZM133.911 346.578L133.818 347.008L397.755 403.907L397.847 403.478L133.911 346.578ZM393.897 418.032L394.037 417.613L137.815 332.464L137.675 332.883L393.897 418.032ZM402.393 392.467L402.672 391.629L146.45 306.48L146.171 307.318L402.393 392.467ZM411.028 366.483L411.168 366.064L154.946 280.915L154.806 281.334L411.028 366.483ZM148.136 318.857L148.121 319.294L417.962 328.559L417.977 328.122L148.136 318.857ZM147.22 345.533L147.19 346.408L417.031 355.673L417.061 354.798L147.22 345.533ZM146.289 372.646L146.274 373.084L416.115 382.349L416.13 381.911L146.289 372.646ZM414.796 397.101L414.859 396.667L147.657 357.898L147.594 358.331L414.796 397.101ZM418.635 370.638L418.761 369.77L151.559 331.001L151.433 331.868L418.635 370.638ZM422.538 343.741L422.601 343.307L155.399 304.537L155.336 304.971L422.538 343.741ZM155.399 343.307L155.462 343.741L422.664 304.971L422.601 304.537L155.399 343.307ZM159.239 369.77L159.365 370.638L426.567 331.868L426.441 331.001L159.239 369.77ZM163.141 396.667L163.204 397.101L430.406 358.331L430.343 357.898L163.141 396.667ZM431.726 373.084L431.711 372.646L161.87 381.911L161.885 382.349L431.726 373.084ZM430.81 346.408L430.78 345.533L160.939 354.798L160.969 355.673L430.81 346.408ZM429.879 319.294L429.864 318.857L160.023 328.122L160.038 328.559L429.879 319.294ZM166.832 366.064L166.972 366.483L423.194 281.334L423.054 280.915L166.832 366.064ZM175.328 391.629L175.607 392.467L431.829 307.318L431.55 306.48L175.328 391.629ZM183.963 417.613L184.103 418.032L440.325 332.883L440.185 332.464L183.963 417.613ZM444.182 347.008L444.089 346.578L180.153 403.478L180.245 403.907L444.182 347.008ZM438.534 320.809L438.349 319.95L174.412 376.85L174.598 377.709L438.534 320.809ZM432.794 294.182L432.701 293.752L168.765 350.652L168.857 351.081L432.794 294.182ZM181.883 386.23L182.095 386.624L419.795 258.567L419.583 258.174L181.883 386.23ZM194.814 410.235L195.238 411.022L432.939 282.965L432.515 282.178L194.814 410.235ZM207.958 434.633L208.17 435.026L445.871 306.97L445.659 306.576L207.958 434.633ZM451.989 319.929L451.821 319.519L201.885 421.657L202.053 422.067L451.989 319.929ZM441.755 294.888L441.42 294.067L191.484 396.204L191.819 397.025L441.755 294.888ZM431.354 269.435L431.186 269.025L181.25 371.163L181.418 371.573L431.354 269.435ZM199.798 403.158L200.077 403.516L412.918 237.387L412.638 237.029L199.798 403.158ZM216.831 424.981L217.39 425.696L430.23 259.567L429.672 258.851L216.831 424.981ZM234.144 447.161L234.423 447.519L447.263 281.389L446.984 281.032L234.144 447.161ZM455.254 292.794L455.015 292.413L226.194 435.733L226.432 436.114L455.254 292.794ZM440.7 269.557L440.223 268.796L211.401 412.116L211.878 412.878L440.7 269.557ZM425.907 245.94L425.669 245.559L196.847 388.879L197.086 389.26L425.907 245.94ZM219.758 416.48L220.098 416.793L403.097 218.27L402.758 217.958L219.758 416.48ZM240.452 435.556L241.13 436.181L424.129 237.658L423.451 237.033L240.452 435.556ZM261.484 454.943L261.823 455.256L444.823 256.733L444.483 256.421L261.484 454.943ZM454.266 266.353L453.962 266.012L252.077 445.295L252.38 445.636L454.266 266.353ZM435.768 245.524L435.161 244.841L233.276 424.123L233.883 424.806L435.768 245.524ZM416.967 224.352L416.664 224.011L214.778 403.294L215.082 403.635L416.967 224.352ZM240.982 426.076L241.372 426.335L390.851 201.488L390.46 201.229L240.982 426.076ZM264.799 441.91L265.58 442.429L415.059 217.582L414.278 217.062L264.799 441.91ZM289.007 458.003L289.397 458.263L438.876 233.415L438.485 233.156L289.007 458.003ZM449.379 241.155L449.019 240.862L278.535 450.23L278.895 450.523L449.379 241.155ZM427.417 223.271L426.696 222.685L256.212 432.053L256.932 432.64L427.417 223.271ZM405.094 205.095L404.734 204.802L234.25 414.17L234.61 414.463L405.094 205.095ZM262.794 432.003L263.226 432.202L376.621 187.169L376.19 186.969L262.794 432.003ZM289.119 444.185L289.982 444.584L403.377 199.551L402.514 199.151L289.119 444.185ZM315.875 456.567L316.307 456.767L429.702 211.733L429.271 211.533L315.875 456.567ZM440.934 217.585L440.526 217.348L304.668 450.677L305.075 450.915L440.934 217.585ZM416.076 203.112L415.261 202.637L279.402 435.966L280.217 436.441L416.076 203.112ZM390.81 188.4L390.403 188.163L254.544 421.492L254.952 421.73L390.81 188.4ZM284.652 434.422L285.114 434.556L360.756 175.369L360.295 175.234L284.652 434.422ZM312.803 442.637L313.725 442.906L389.368 183.719L388.445 183.449L312.803 442.637ZM341.414 450.987L341.876 451.122L417.518 191.934L417.056 191.799L341.414 450.987ZM429.217 195.938L428.772 195.763L329.732 446.942L330.177 447.118L429.217 195.938ZM402.107 185.249L401.218 184.898L302.178 436.078L303.067 436.428L402.107 185.249ZM374.552 174.384L374.108 174.209L275.068 425.388L275.512 425.564L374.552 174.384ZM306.134 433.531L306.614 433.598L343.521 166.132L343.041 166.066L306.134 433.531ZM335.381 437.567L336.34 437.699L373.247 170.234L372.288 170.101L335.381 437.567ZM365.107 441.669L365.586 441.735L402.493 174.269L402.014 174.203L365.107 441.669ZM414.458 176.474L413.989 176.365L353.151 439.422L353.621 439.531L414.458 176.474ZM385.799 169.846L384.859 169.628L324.022 432.685L324.961 432.902L385.799 169.846ZM356.669 163.109L356.199 163L295.362 426.057L295.832 426.166L356.669 163.109ZM326.915 429.524L327.4 429.52L325.131 159.529L324.646 159.533L326.915 429.524ZM356.5 429.275L357.47 429.267L355.202 159.277L354.232 159.285L356.5 429.275ZM386.571 429.023L387.056 429.019L384.787 159.028L384.302 159.032L386.571 429.023ZM396.859 159.467L396.376 159.428L374.501 428.54L374.984 428.579L396.859 159.467ZM367.391 157.072L366.425 156.993L344.55 426.106L345.517 426.184L367.391 157.072ZM337.441 154.637L336.958 154.598L315.083 423.71L315.566 423.75L337.441 154.637ZM346.73 422.556L347.208 422.482L305.79 155.678L305.312 155.752L346.73 422.556ZM375.888 418.03L376.844 417.882L335.426 151.077L334.47 151.226L375.888 418.03ZM405.524 413.429L406.002 413.355L364.584 146.551L364.106 146.625L405.524 413.429ZM376.621 145.232L376.137 145.263L393.481 414.705L393.965 414.674L376.621 145.232ZM347.109 147.132L346.141 147.194L363.486 416.636L364.453 416.574L347.109 147.132ZM317.114 149.062L316.63 149.094L333.974 418.536L334.458 418.505L317.114 149.062ZM365.336 412.742L365.795 412.6L285.726 154.745L285.267 154.887L365.336 412.742ZM393.312 404.055L394.229 403.77L314.16 145.916L313.243 146.201L393.312 404.055ZM421.746 395.226L422.205 395.083L342.136 137.229L341.677 137.371L421.746 395.226ZM353.99 134.13L353.518 134.231L409.879 398.283L410.351 398.182L353.99 134.13ZM325.198 140.275L324.254 140.477L380.615 404.529L381.559 404.327L325.198 140.275ZM295.935 146.522L295.463 146.622L351.823 410.674L352.295 410.574L295.935 146.522ZM382.477 400.154L382.904 399.947L265.236 156.936L264.809 157.143L382.477 400.154ZM408.545 387.531L409.4 387.117L291.732 144.107L290.878 144.52L408.545 387.531ZM435.041 374.702L435.469 374.495L317.801 131.484L317.373 131.691L435.041 374.702ZM329.295 126.562L328.847 126.73L423.527 379.585L423.975 379.417L329.295 126.562ZM301.969 136.794L301.073 137.129L395.753 389.984L396.649 389.649L301.969 136.794ZM274.195 147.194L273.747 147.361L368.427 400.216L368.875 400.049L274.195 147.194ZM397.839 384.848L398.224 384.582L244.72 162.464L244.335 162.73L397.839 384.848ZM421.325 368.617L422.095 368.085L268.591 145.967L267.821 146.499L421.325 368.617ZM445.197 352.119L445.582 351.853L292.077 129.735L291.692 130.001L445.197 352.119ZM302.981 122.943L302.569 123.173L434.265 358.876L434.677 358.646L302.981 122.943ZM277.829 136.996L277.004 137.457L408.7 373.161L409.525 372.7L277.829 136.996ZM252.264 151.28L251.852 151.511L383.548 387.214L383.96 386.984L252.264 151.28ZM411.03 366.904L411.363 366.586L224.702 171.502L224.369 171.821L411.03 366.904ZM431.326 347.485L431.991 346.848L245.33 151.764L244.665 152.401L431.326 347.485ZM451.955 327.747L452.287 327.428L265.626 132.345L265.293 132.663L451.955 327.747ZM275.645 123.66L275.279 123.947L441.902 336.4L442.269 336.113L275.645 123.66ZM253.317 141.171L252.585 141.745L419.209 354.199L419.941 353.625L253.317 141.171ZM230.623 158.969L230.257 159.256L396.881 371.71L397.247 371.423L230.623 158.969ZM421.567 346.486L421.839 346.124L205.843 184.118L205.571 184.48L421.567 346.486ZM438.147 324.381L438.69 323.657L222.695 161.651L222.151 162.375L438.147 324.381ZM454.998 301.914L455.27 301.552L239.274 139.546L239.002 139.908L454.998 301.914ZM248.043 129.014L247.733 129.35L446.191 312.42L446.501 312.084L248.043 129.014ZM229.119 149.529L228.498 150.202L426.956 333.272L427.576 332.599L229.119 149.529ZM209.884 170.381L209.573 170.717L408.031 353.787L408.341 353.451L209.884 170.381ZM428.898 323.913L429.102 323.516L188.911 200.194L188.707 200.591L428.898 323.913ZM441.332 299.695L441.74 298.901L201.548 175.58L201.141 176.374L441.332 299.695ZM453.97 275.08L454.174 274.683L213.982 151.362L213.779 151.759L453.97 275.08ZM221.089 139.142L220.842 139.518L446.821 287.28L447.067 286.904L221.089 139.142ZM206.057 162.13L205.565 162.883L431.543 310.645L432.036 309.892L206.057 162.13ZM190.78 185.495L190.533 185.871L416.512 333.633L416.758 333.257L190.78 185.495ZM432.471 299.719L432.602 299.297L174.705 219.365L174.574 219.786L432.471 299.719ZM440.438 274.015L440.699 273.173L182.802 193.24L182.541 194.083L440.438 274.015ZM448.535 247.891L448.665 247.469L190.768 167.537L190.638 167.958L448.535 247.891ZM195.799 153.936L195.623 154.344L443.458 261.478L443.634 261.07L195.799 153.936ZM185.05 178.802L184.698 179.617L432.533 286.751L432.886 285.935L185.05 178.802ZM174.125 204.075L173.949 204.482L421.784 311.616L421.961 311.208L174.125 204.075ZM431.838 274.68L431.892 274.245L163.949 240.983L163.895 241.418L431.838 274.68ZM435.131 248.157L435.239 247.287L167.296 214.025L167.188 214.895L435.131 248.157ZM438.478 221.199L438.532 220.764L170.588 187.502L170.534 187.937L438.478 221.199ZM173.201 172.989L173.1 173.417L435.817 235.705L435.918 235.277L173.201 172.989ZM167.014 199.088L166.811 199.943L429.528 262.232L429.731 261.376L167.014 199.088ZM160.724 225.614L160.623 226.042L423.34 288.33L423.441 287.903L160.724 225.614ZM426.777 249.77L426.753 249.333L157.161 264.166L157.185 264.603L426.777 249.77ZM425.311 223.114L425.263 222.24L155.671 237.073L155.719 237.947L425.311 223.114ZM423.82 196.02L423.796 195.583L154.204 210.417L154.228 210.854L423.82 196.02ZM289 203L558.592 188.167H19.4078L289 203ZM291.981 257.186L22.3891 272.019L554.698 319.475L291.981 257.186ZM304.56 204.133L572.503 237.395L41.843 141.845L304.56 204.133ZM297.867 258.049L29.9235 224.787L545.702 365.183L297.867 258.049ZM319.717 207.503L577.614 287.436L71.8815 100.369L319.717 207.503ZM303.523 259.752L45.6258 179.82L529.501 407.515L303.523 259.752ZM334.078 213.023L574.27 336.344L108.099 65.2605L334.078 213.023ZM308.802 262.252L68.611 138.931L507.26 445.322L308.802 262.252ZM347.272 220.549L563.267 382.555L148.814 37.4791L347.272 220.549ZM313.569 265.483L97.5737 103.477L480.193 477.937L313.569 265.483ZM358.957 229.887L545.618 424.97L192.333 17.433L358.957 229.887ZM317.7 269.362L131.038 74.2788L449.396 505.066L317.7 269.362ZM368.829 240.794L522.334 462.912L237.133 5.09084L368.829 240.794ZM321.087 273.789L167.582 51.6711L415.767 526.644L321.087 273.789ZM376.635 252.989L494.302 496L281.955 0.134378L376.635 252.989ZM323.643 278.648L205.975 35.6375L380.004 542.7L323.643 278.648ZM382.17 266.156L462.239 524.01L325.809 2.10398L382.17 266.156ZM325.302 283.815L245.233 25.9602L342.646 553.257L325.302 283.815ZM385.293 279.953L426.711 546.757L367.948 10.5107L385.293 279.953ZM326.021 289.154L284.603 22.3499L304.146 558.267L326.021 289.154ZM385.921 294.023L388.19 564.014L407.796 24.9109L385.921 294.023ZM325.781 294.529L323.512 24.5381L264.943 557.585L325.781 294.529ZM384.04 308.002L347.133 575.468L444.877 44.9456L384.04 308.002ZM324.588 299.799L361.495 32.333L225.548 550.978L324.588 299.799ZM379.697 321.528L304.055 580.716L478.736 70.3485L379.697 321.528ZM322.473 304.828L398.116 45.64L186.615 538.157L322.473 304.828ZM373.004 334.25L259.609 579.284L508.863 100.921L373.004 334.25ZM319.492 309.486L432.887 64.4522L149.008 518.854L319.492 309.486ZM364.137 345.839L214.658 570.686L534.621 136.471L364.137 345.839ZM315.721 313.652L465.199 88.8052L113.836 492.935L315.721 313.652ZM353.323 355.995L170.324 554.517L555.208 176.712L353.323 355.995ZM311.258 317.219L494.257 118.696L82.4363 460.539L311.258 317.219ZM340.843 364.454L128.003 530.584L569.665 221.134L340.843 364.454ZM306.218 320.094L519.059 153.964L56.2826 422.232L306.218 320.094ZM327.021 370.998L89.3202 499.055L576.956 268.86L327.021 370.998ZM300.733 322.202L538.433 194.146L36.7964 379.102L300.733 322.202ZM312.214 375.457L55.9916 460.606L576.15 318.558L312.214 375.457ZM294.943 323.489L551.165 238.341L25.1024 332.754L294.943 323.489ZM296.805 377.716L29.6032 416.486L566.646 368.451L296.805 377.716ZM289 323.922L556.202 285.152H21.798L289 323.922ZM281.195 377.716L11.3538 368.451L548.397 416.486L281.195 377.716ZM283.057 323.489L552.898 332.754L26.8347 238.341L283.057 323.489ZM265.786 375.457L1.84997 318.558L522.008 460.606L265.786 375.457ZM277.267 322.202L541.204 379.102L39.5667 194.146L277.267 322.202ZM250.979 370.998L1.04352 268.86L488.68 499.055L250.979 370.998ZM271.782 320.094L521.717 422.232L58.9413 153.964L271.782 320.094ZM237.157 364.454L8.33521 221.134L449.997 530.584L237.157 364.454ZM266.742 317.219L495.564 460.539L83.7429 118.696L266.742 317.219ZM224.677 355.995L22.7917 176.712L407.676 554.517L224.677 355.995ZM262.279 313.652L464.164 492.935L112.801 88.8052L262.279 313.652ZM213.863 345.839L43.3791 136.471L363.342 570.686L213.863 345.839ZM258.508 309.486L428.992 518.854L145.113 64.4522L258.508 309.486ZM204.996 334.25L69.1371 100.921L318.391 579.284L204.996 334.25ZM255.527 304.828L391.385 538.157L179.884 45.64L255.527 304.828ZM198.303 321.528L99.2635 70.3485L273.945 580.716L198.303 321.528ZM253.412 299.799L352.452 550.978L216.505 32.333L253.412 299.799ZM193.96 308.002L133.123 44.9456L230.867 575.468L193.96 308.002ZM252.219 294.529L313.057 557.585L254.488 24.5381L252.219 294.529ZM192.079 294.023L170.204 24.9109L189.81 564.014L192.079 294.023ZM251.979 289.154L273.854 558.267L293.397 22.3499L251.979 289.154ZM192.707 279.953L210.052 10.5107L151.289 546.757L192.707 279.953ZM252.698 283.815L235.354 553.257L332.767 25.9602L252.698 283.815ZM195.83 266.156L252.191 2.10398L115.761 524.01L195.83 266.156ZM254.357 278.648L197.996 542.7L372.025 35.6375L254.357 278.648ZM201.365 252.989L296.045 0.134378L83.6976 496L201.365 252.989ZM256.913 273.789L162.233 526.644L410.418 51.6711L256.913 273.789ZM209.171 240.794L340.867 5.09084L55.666 462.912L209.171 240.794ZM260.3 269.362L128.604 505.066L446.962 74.2788L260.3 269.362ZM219.043 229.887L385.667 17.433L32.3822 424.97L219.043 229.887ZM264.431 265.483L97.8071 477.937L480.426 103.477L264.431 265.483ZM230.728 220.549L429.186 37.4791L14.7325 382.555L230.728 220.549ZM269.198 262.252L70.7399 445.322L509.389 138.931L269.198 262.252ZM243.922 213.023L469.901 65.2605L3.73049 336.344L243.922 213.023ZM274.477 259.752L48.4987 407.514L532.374 179.82L274.477 259.752ZM258.283 207.503L506.119 100.369L0.386339 287.436L258.283 207.503ZM280.133 258.049L32.2979 365.183L548.077 224.787L280.133 258.049ZM273.44 204.133L536.157 141.845L5.49678 237.395L273.44 204.133ZM286.019 257.186L23.3018 319.475L555.611 272.019L286.019 257.186ZM19.4078 188.167L19.3837 188.604L558.568 218.27L558.592 217.833L19.4078 188.167ZM17.9411 214.823L17.893 215.697L557.078 245.363L557.126 244.489L17.9411 214.823ZM16.4504 241.916L16.4264 242.353L555.611 272.019L555.635 271.582L16.4504 241.916ZM548.736 194.898L548.634 194.47L23.2003 319.047L23.3018 319.475L548.736 194.898ZM542.548 168.799L542.345 167.944L16.911 292.52L17.1139 293.376L542.548 168.799ZM536.258 142.273L536.157 141.845L10.7232 266.421L10.8247 266.849L536.258 142.273ZM5.49678 237.395L5.55076 237.83L541.437 171.306L541.383 170.871L5.49678 237.395ZM8.78934 263.919L8.8973 264.788L544.784 198.264L544.676 197.394L8.78934 263.919ZM12.1359 290.877L12.1899 291.311L548.077 224.787L548.023 224.352L12.1359 290.877ZM527.968 150.915L527.792 150.508L32.1217 364.775L32.2979 365.183L527.968 150.915ZM517.22 126.05L516.867 125.235L21.1967 339.502L21.5491 340.318L517.22 126.05ZM506.295 100.777L506.119 100.369L10.4479 314.637L10.6241 315.045L506.295 100.777ZM0.386339 287.436L0.516937 287.857L516.311 127.992L516.18 127.571L0.386339 287.436ZM8.35282 313.139L8.61402 313.982L524.408 154.117L524.147 153.274L8.35282 313.139ZM16.4499 339.264L16.5805 339.685L532.374 179.82L532.244 179.399L16.4499 339.264ZM500.456 111.99L500.21 111.614L48.2522 407.138L48.4987 407.514L500.456 111.99ZM485.425 89.0023L484.932 88.2486L32.9745 383.773L33.4673 384.526L485.425 89.0023ZM470.147 65.6374L469.901 65.2605L17.9431 360.785L18.1896 361.162L470.147 65.6374ZM3.73049 336.344L3.93433 336.741L484.317 90.0984L484.113 89.7014L3.73049 336.344ZM16.1646 360.561L16.5722 361.355L496.955 114.713L496.547 113.919L16.1646 360.561ZM28.8025 385.176L29.0063 385.573L509.389 138.931L509.185 138.534L28.8025 385.176ZM467.655 79.1824L467.345 78.8461L70.4296 444.985L70.7399 445.322L467.655 79.1824ZM448.731 58.667L448.11 57.9944L51.1948 424.134L51.8153 424.806L448.731 58.667ZM429.496 37.8154L429.186 37.4791L32.2702 403.618L32.5804 403.955L429.496 37.8154ZM14.7325 382.555L15.0043 382.917L446.995 58.9051L446.723 58.5427L14.7325 382.555ZM31.3122 404.66L31.8558 405.384L463.847 81.3723L463.303 80.6476L31.3122 404.66ZM48.1636 427.127L48.4354 427.489L480.426 103.477L480.155 103.115L48.1636 427.127ZM431.055 53.0297L430.689 52.7426L97.441 477.65L97.8071 477.937L431.055 53.0297ZM408.727 35.5184L407.995 34.9443L74.7473 459.851L75.4794 460.426L408.727 35.5184ZM386.033 17.7201L385.667 17.433L52.4196 442.34L52.7856 442.627L386.033 17.7201ZM32.3822 424.97L32.7149 425.289L406.037 35.1214L405.705 34.803L32.3822 424.97ZM52.6779 444.39L53.3434 445.026L426.666 54.8593L426 54.2226L52.6779 444.39ZM73.3064 464.128L73.6392 464.446L446.962 74.2788L446.629 73.9605L73.3064 464.128ZM391.996 33.6589L391.584 33.4285L128.192 504.836L128.604 505.066L391.996 33.6589ZM366.844 19.6053L366.019 19.1445L102.627 490.551L103.452 491.012L366.844 19.6053ZM341.279 5.32123L340.867 5.09084L77.4745 476.498L77.8868 476.728L341.279 5.32123ZM55.666 462.912L56.0511 463.178L363.06 18.9425L362.675 18.6764L55.666 462.912ZM79.1523 479.143L79.9224 479.676L386.931 35.4398L386.161 34.9077L79.1523 479.143ZM103.024 495.641L103.409 495.907L410.418 51.6711L410.033 51.405L103.024 495.641ZM351.593 20.934L351.145 20.7662L161.785 526.476L162.233 526.644L351.593 20.934ZM324.267 10.7019L323.371 10.3664L134.011 516.076L134.907 516.412L324.267 10.7019ZM296.493 0.302118L296.045 0.134378L106.685 505.844L107.133 506.012L296.493 0.302118ZM83.6976 496L84.1249 496.207L319.46 10.1854L319.033 9.9785L83.6976 496ZM109.766 508.623L110.621 509.037L345.956 23.0149L345.102 22.6011L109.766 508.623ZM136.262 521.452L136.689 521.659L372.025 35.6375L371.597 35.4306L136.262 521.452ZM310.718 14.5964L310.246 14.4956L197.524 542.6L197.996 542.7L310.718 14.5964ZM281.926 8.45093L280.982 8.24944L168.261 536.353L169.204 536.555L281.926 8.45093ZM252.663 2.20473L252.191 2.10398L139.469 530.208L139.941 530.309L252.663 2.20473ZM115.761 524.01L116.219 524.153L276.357 8.44387L275.899 8.30146L115.761 524.01ZM143.736 532.697L144.653 532.982L304.792 17.2733L303.874 16.9884L143.736 532.697ZM172.17 541.527L172.629 541.669L332.767 25.9602L332.308 25.8178L172.17 541.527ZM270.042 14.3724L269.559 14.3413L234.87 553.226L235.354 553.257L270.042 14.3724ZM240.531 12.4727L239.563 12.4104L204.874 551.295L205.842 551.357L240.531 12.4727ZM210.535 10.5418L210.052 10.5107L175.363 549.395L175.847 549.427L210.535 10.5418ZM151.289 546.757L151.767 546.832L234.603 13.2229L234.125 13.1487L151.289 546.757ZM180.448 551.284L181.404 551.432L264.239 17.8235L263.283 17.6751L180.448 551.284ZM210.084 555.884L210.562 555.959L293.397 22.3499L292.919 22.2757L210.084 555.884ZM230.104 20.0418L229.621 20.0811L273.371 558.306L273.854 558.267L230.104 20.0418ZM200.637 22.4371L199.671 22.5156L243.421 560.74L244.387 560.662L200.637 22.4371ZM170.687 24.8716L170.204 24.9109L213.954 563.136L214.437 563.096L170.687 24.8716ZM189.81 564.014L190.295 564.018L194.832 24.0369L194.347 24.0328L189.81 564.014ZM219.396 564.262L220.366 564.27L224.903 24.2895L223.933 24.2814L219.396 564.262ZM249.466 564.515L249.951 564.519L254.488 24.5381L254.003 24.534L249.466 564.515ZM191.382 31.4719L190.912 31.5806L312.587 557.694L313.057 557.585L191.382 31.4719ZM162.722 38.1001L161.783 38.3174L283.458 564.431L284.397 564.213L162.722 38.1001ZM133.593 44.8369L133.123 44.9456L254.798 571.059L255.268 570.95L133.593 44.8369ZM230.867 575.468L231.347 575.402L157.533 40.4705L157.053 40.5366L230.867 575.468ZM260.114 571.432L261.073 571.3L187.259 36.3686L186.3 36.501L260.114 571.432ZM289.84 567.33L290.319 567.264L216.505 32.333L216.026 32.3991L289.84 567.33ZM154.372 48.6192L153.928 48.7944L352.008 551.153L352.452 550.978L154.372 48.6192ZM127.262 59.3086L126.373 59.6591L324.453 562.018L325.342 561.667L127.262 59.3086ZM99.7079 70.1733L99.2635 70.3485L297.343 572.707L297.788 572.532L99.7079 70.1733ZM273.945 580.716L274.407 580.581L123.123 62.2055L122.661 62.3402L273.945 580.716ZM302.096 572.5L303.019 572.231L151.734 53.8554L150.811 54.1248L302.096 572.5ZM330.707 564.15L331.169 564.016L179.884 45.64L179.423 45.7747L330.707 564.15ZM119.668 71.4987L119.261 71.7359L390.977 538.394L391.385 538.157L119.668 71.4987ZM94.8101 85.9725L93.9951 86.447L365.712 553.105L366.527 552.631L94.8101 85.9725ZM69.5446 100.684L69.1371 100.921L340.854 567.579L341.262 567.342L69.5446 100.684ZM318.391 579.284L318.822 579.084L92.0318 89.0166L91.6003 89.2163L318.391 579.284ZM344.715 567.101L345.579 566.702L118.788 76.6345L117.925 77.0339L344.715 567.101ZM371.472 554.719L371.903 554.52L145.113 64.4522L144.681 64.6519L371.472 554.719ZM88.0237 100.117L87.6636 100.411L428.632 519.147L428.992 518.854L88.0237 100.117ZM66.0614 118.001L65.3413 118.587L406.31 537.324L407.03 536.738L66.0614 118.001ZM43.7391 136.177L43.3791 136.471L384.348 555.207L384.708 554.914L43.7391 136.177ZM363.342 570.686L363.732 570.426L64.7754 120.732L64.3849 120.992L363.342 570.686ZM387.159 554.852L387.94 554.333L88.9832 104.639L88.2023 105.158L387.159 554.852ZM411.367 538.759L411.757 538.499L112.801 88.8052L112.41 89.0647L411.367 538.759ZM60.3935 134.37L60.0903 134.711L463.861 493.276L464.164 492.935L60.3935 134.37ZM41.8958 155.199L41.2893 155.882L445.06 514.448L445.667 513.765L41.8958 155.199ZM23.0949 176.371L22.7917 176.712L426.563 535.277L426.866 534.936L23.0949 176.371ZM407.676 554.517L408.016 554.205L42.0171 157.159L41.6779 157.472L407.676 554.517ZM428.37 535.442L429.048 534.817L63.0496 137.771L62.3711 138.397L428.37 535.442ZM449.402 516.054L449.741 515.742L83.7429 118.696L83.4036 119.009L449.402 516.054ZM37.9205 173.899L37.6819 174.28L495.325 460.92L495.564 460.539L37.9205 173.899ZM23.3664 197.135L22.8892 197.897L480.532 484.538L481.01 483.776L23.3664 197.135ZM8.5738 220.753L8.33521 221.134L465.978 507.774L466.217 507.393L8.5738 220.753ZM449.997 530.584L450.276 530.226L24.5957 197.967L24.3165 198.325L449.997 530.584ZM467.03 508.761L467.589 508.046L41.9081 175.787L41.3497 176.502L467.03 508.761ZM484.343 486.581L484.622 486.223L58.9413 153.964L58.6621 154.322L484.343 486.581ZM21.846 217.956L21.6782 218.366L521.55 422.642L521.717 422.232L21.846 217.956ZM11.6125 242.998L11.277 243.819L511.148 448.094L511.484 447.273L11.6125 242.998ZM1.21129 268.45L1.04352 268.86L500.915 473.136L501.083 472.726L1.21129 268.45ZM488.68 499.055L488.892 498.661L13.4907 242.548L13.2787 242.942L488.68 499.055ZM501.612 475.05L502.036 474.263L26.6347 218.15L26.2107 218.937L501.612 475.05ZM514.756 450.652L514.968 450.258L39.5667 194.146L39.3547 194.539L514.756 450.652ZM13.3308 265.302L13.2382 265.732L541.111 379.531L541.204 379.102L13.3308 265.302ZM7.68298 291.501L7.4978 292.36L535.371 406.159L535.556 405.3L7.68298 291.501ZM1.94255 318.128L1.84997 318.558L529.723 432.357L529.815 431.928L1.94255 318.128ZM522.008 460.606L522.148 460.187L9.70368 289.89L9.5644 290.309L522.008 460.606ZM530.504 435.041L530.783 434.203L18.3388 263.906L18.0603 264.744L530.504 435.041ZM539.139 409.057L539.279 408.638L26.8347 238.341L26.6954 238.76L539.139 409.057ZM13.2157 314.224L13.2006 314.661L552.883 333.192L552.898 332.754L13.2157 314.224ZM12.2997 340.9L12.2697 341.775L551.952 360.305L551.982 359.431L12.2997 340.9ZM11.3688 368.014L11.3538 368.451L551.036 386.981L551.051 386.544L11.3688 368.014ZM548.397 416.486L548.46 416.052L14.0557 338.513L13.9927 338.947L548.397 416.486ZM552.236 390.023L552.362 389.155L17.9583 311.616L17.8324 312.483L552.236 390.023ZM556.139 363.125L556.202 362.692L21.798 285.152L21.735 285.586L556.139 363.125ZM21.798 362.692L21.8609 363.125L556.265 285.586L556.202 285.152L21.798 362.692ZM25.6377 389.155L25.7636 390.023L560.168 312.483L560.042 311.616L25.6377 389.155ZM29.5403 416.052L29.6032 416.486L564.007 338.947L563.944 338.513L29.5403 416.052ZM566.646 368.451L566.631 368.014L26.9493 386.544L26.9643 386.981L566.646 368.451ZM565.73 341.775L565.7 340.9L26.0183 359.431L26.0483 360.305L565.73 341.775ZM564.799 314.661L564.784 314.224L25.1024 332.754L25.1174 333.192L564.799 314.661ZM38.7214 408.638L38.8606 409.057L551.305 238.76L551.165 238.341L38.7214 408.638ZM47.2172 434.203L47.4958 435.041L559.94 264.744L559.661 263.906L47.2172 434.203ZM55.8524 460.187L55.9916 460.606L568.436 290.309L568.296 289.89L55.8524 460.187ZM576.15 318.558L576.057 318.128L48.1846 431.928L48.2772 432.357L576.15 318.558ZM570.502 292.36L570.317 291.501L42.4442 405.3L42.6294 406.159L570.502 292.36ZM564.762 265.732L564.669 265.302L36.7964 379.102L36.889 379.531L564.762 265.732ZM63.0322 450.258L63.2442 450.652L538.645 194.539L538.433 194.146L63.0322 450.258ZM75.9642 474.263L76.3882 475.05L551.789 218.937L551.365 218.15L75.9642 474.263ZM89.1082 498.661L89.3202 499.055L564.721 242.942L564.509 242.548L89.1082 498.661ZM576.956 268.86L576.789 268.45L76.9173 472.725L77.085 473.136L576.956 268.86ZM566.723 243.819L566.388 242.998L66.516 447.273L66.8516 448.094L566.723 243.819ZM556.322 218.366L556.154 217.956L56.2826 422.232L56.4504 422.642L556.322 218.366ZM93.378 486.223L93.6572 486.581L519.338 154.322L519.059 153.964L93.378 486.223ZM110.411 508.046L110.97 508.761L536.65 176.502L536.092 175.787L110.411 508.046ZM127.724 530.226L128.003 530.584L553.684 198.325L553.404 197.967L127.724 530.226ZM569.665 221.134L569.426 220.753L111.783 507.393L112.022 507.774L569.665 221.134ZM555.111 197.897L554.634 197.135L96.9904 483.776L97.4675 484.538L555.111 197.897ZM540.318 174.28L540.08 173.899L82.4363 460.539L82.6749 460.92L540.318 174.28ZM128.259 515.742L128.598 516.054L494.596 119.009L494.257 118.696L128.259 515.742ZM148.952 534.817L149.63 535.442L515.629 138.397L514.95 137.771L148.952 534.817ZM169.984 554.205L170.324 554.517L536.322 157.472L535.983 157.159L169.984 554.205ZM555.208 176.712L554.905 176.371L151.134 534.936L151.437 535.277L555.208 176.712ZM536.711 155.882L536.104 155.199L132.333 513.765L132.94 514.448L536.711 155.882ZM517.91 134.711L517.606 134.37L113.836 492.935L114.139 493.276L517.91 134.711ZM166.243 538.499L166.633 538.759L465.59 89.0647L465.199 88.8052L166.243 538.499ZM190.06 554.333L190.841 554.852L489.798 105.158L489.017 104.639L190.06 554.333ZM214.268 570.426L214.658 570.686L513.615 120.992L513.225 120.732L214.268 570.426ZM534.621 136.471L534.261 136.177L193.292 554.914L193.652 555.207L534.621 136.471ZM512.659 118.587L511.939 118.001L170.97 536.738L171.69 537.324L512.659 118.587ZM490.336 100.411L489.976 100.117L149.008 518.854L149.368 519.147L490.336 100.411ZM206.097 554.52L206.528 554.719L433.319 64.6519L432.887 64.4522L206.097 554.52ZM232.421 566.702L233.285 567.101L460.075 77.034L459.212 76.6345L232.421 566.702ZM259.178 579.084L259.609 579.284L486.4 89.2163L485.968 89.0166L259.178 579.084ZM508.863 100.921L508.455 100.684L236.738 567.342L237.146 567.579L508.863 100.921ZM484.005 86.4471L483.19 85.9725L211.473 552.631L212.288 553.105L484.005 86.4471ZM458.739 71.7359L458.332 71.4987L186.615 538.157L187.023 538.394L458.739 71.7359ZM246.831 564.015L247.293 564.15L398.577 45.7747L398.116 45.64L246.831 564.015ZM274.981 572.231L275.904 572.5L427.189 54.1248L426.266 53.8554L274.981 572.231ZM303.593 580.581L304.055 580.716L455.339 62.3402L454.877 62.2055L303.593 580.581ZM478.736 70.3485L478.292 70.1733L280.212 572.532L280.657 572.707L478.736 70.3485ZM451.627 59.6591L450.738 59.3086L252.658 561.667L253.547 562.018L451.627 59.6591ZM424.072 48.7944L423.628 48.6192L225.548 550.978L225.992 551.153L424.072 48.7944ZM287.681 567.264L288.16 567.33L361.974 32.3991L361.495 32.333L287.681 567.264ZM316.927 571.3L317.886 571.432L391.7 36.5009L390.741 36.3686L316.927 571.3ZM346.653 575.402L347.133 575.468L420.947 40.5366L420.467 40.4705L346.653 575.402ZM444.877 44.9456L444.407 44.8369L322.732 570.95L323.202 571.059L444.877 44.9456ZM416.217 38.3174L415.278 38.1001L293.603 564.213L294.542 564.431L416.217 38.3174ZM387.088 31.5806L386.618 31.4719L264.943 557.585L265.413 557.694L387.088 31.5806ZM328.049 564.519L328.534 564.515L323.997 24.534L323.512 24.5381L328.049 564.519ZM357.634 564.27L358.604 564.262L354.067 24.2814L353.097 24.2895L357.634 564.27ZM387.705 564.018L388.19 564.014L383.653 24.0328L383.168 24.0369L387.705 564.018ZM407.796 24.9109L407.313 24.8716L363.563 563.096L364.046 563.136L407.796 24.9109ZM378.329 22.5156L377.363 22.4371L333.613 560.662L334.579 560.74L378.329 22.5156ZM348.379 20.0811L347.896 20.0418L304.146 558.267L304.629 558.306L348.379 20.0811ZM367.438 555.959L367.916 555.884L285.081 22.2757L284.603 22.3499L367.438 555.959ZM396.596 551.432L397.552 551.284L314.717 17.6751L313.761 17.8235L396.596 551.432ZM426.233 546.832L426.711 546.757L343.875 13.1487L343.397 13.2229L426.233 546.832ZM367.948 10.5107L367.465 10.5418L402.153 549.427L402.637 549.395L367.948 10.5107ZM338.437 12.4104L337.469 12.4727L372.158 551.357L373.126 551.295L338.437 12.4104ZM308.441 14.3413L307.958 14.3724L342.646 553.257L343.13 553.226L308.441 14.3413ZM405.371 541.669L405.83 541.527L245.692 25.8178L245.233 25.9602L405.371 541.669ZM433.347 532.982L434.264 532.697L274.126 16.9884L273.208 17.2733L433.347 532.982ZM461.781 524.153L462.239 524.01L302.101 8.30146L301.643 8.44387L461.781 524.153ZM325.809 2.10398L325.337 2.20473L438.059 530.309L438.531 530.208L325.809 2.10398ZM297.018 8.24944L296.074 8.45093L408.796 536.555L409.739 536.353L297.018 8.24944ZM267.754 14.4956L267.282 14.5964L380.004 542.7L380.476 542.6L267.754 14.4956ZM441.311 521.659L441.738 521.452L206.403 35.4306L205.975 35.6375L441.311 521.659ZM467.379 509.037L468.234 508.623L232.898 22.6011L232.044 23.0149L467.379 509.037ZM493.875 496.207L494.302 496L258.967 9.9785L258.54 10.1854L493.875 496.207ZM281.955 0.134378L281.507 0.302117L470.867 506.012L471.315 505.844L281.955 0.134378ZM254.629 10.3664L253.733 10.7019L443.093 516.412L443.989 516.076L254.629 10.3664ZM226.855 20.7662L226.407 20.934L415.767 526.644L416.215 526.476L226.855 20.7662ZM474.591 495.907L474.976 495.641L167.967 51.405L167.582 51.6711L474.591 495.907ZM498.078 479.676L498.848 479.143L191.839 34.9077L191.069 35.4398L498.078 479.676ZM521.949 463.178L522.334 462.912L215.325 18.6764L214.94 18.9425L521.949 463.178ZM237.133 5.09084L236.721 5.32123L500.113 476.728L500.526 476.498L237.133 5.09084ZM211.981 19.1445L211.156 19.6053L474.548 491.012L475.373 490.551L211.981 19.1445ZM186.416 33.4285L186.004 33.6589L449.396 505.066L449.808 504.836L186.416 33.4285ZM504.361 464.446L504.694 464.128L131.371 73.9605L131.038 74.2788L504.361 464.446ZM524.657 445.026L525.322 444.39L152 54.2226L151.334 54.8593L524.657 445.026ZM545.285 425.289L545.618 424.97L172.295 34.803L171.963 35.1214L545.285 425.289ZM192.333 17.433L191.967 17.7201L525.214 442.627L525.58 442.34L192.333 17.433ZM170.005 34.9443L169.273 35.5184L502.521 460.426L503.253 459.851L170.005 34.9443ZM147.311 52.7426L146.945 53.0297L480.193 477.937L480.559 477.65L147.311 52.7426ZM529.565 427.489L529.836 427.127L97.8455 103.115L97.5737 103.477L529.565 427.489ZM546.144 405.384L546.688 404.66L114.697 80.6476L114.153 81.3723L546.144 405.384ZM562.996 382.917L563.267 382.555L131.277 58.5427L131.005 58.9051L562.996 382.917ZM148.814 37.4791L148.504 37.8154L545.42 403.955L545.73 403.618L148.814 37.4791ZM129.89 57.9944L129.269 58.667L526.185 424.806L526.805 424.134L129.89 57.9944ZM110.655 78.846L110.345 79.1824L507.26 445.322L507.57 444.985L110.655 78.846ZM548.994 385.573L549.198 385.176L68.8148 138.534L68.611 138.931L548.994 385.573ZM561.428 361.356L561.835 360.561L81.4527 113.919L81.0451 114.713L561.428 361.356ZM574.066 336.741L574.27 336.344L93.8868 89.7014L93.683 90.0984L574.066 336.741ZM108.099 65.2605L107.853 65.6374L559.81 361.162L560.057 360.785L108.099 65.2605ZM93.0681 88.2486L92.5753 89.0023L544.533 384.526L545.025 383.773L93.0681 88.2486ZM77.7904 111.613L77.5439 111.99L529.501 407.515L529.748 407.138L77.7904 111.613ZM561.42 339.685L561.55 339.264L45.7564 179.399L45.6258 179.82L561.42 339.685ZM569.386 313.982L569.647 313.139L53.8535 153.274L53.5923 154.117L569.386 313.982ZM577.483 287.857L577.614 287.436L61.8199 127.571L61.6893 127.992L577.483 287.857ZM71.8815 100.369L71.7053 100.777L567.376 315.045L567.552 314.637L71.8815 100.369ZM61.1327 125.235L60.7803 126.05L556.451 340.318L556.803 339.502L61.1327 125.235ZM50.2077 150.508L50.0315 150.915L545.702 365.183L545.878 364.775L50.2077 150.508ZM565.81 291.311L565.864 290.877L29.9775 224.352L29.9235 224.787L565.81 291.311ZM569.103 264.788L569.211 263.919L33.324 197.394L33.216 198.264L569.103 264.788ZM572.449 237.83L572.503 237.395L36.6166 170.871L36.5626 171.306L572.449 237.83ZM41.843 141.845L41.7416 142.273L567.175 266.849L567.277 266.421L41.843 141.845ZM35.6552 167.944L35.4523 168.799L560.886 293.376L561.089 292.52L35.6552 167.944ZM29.3659 194.47L29.2644 194.898L554.698 319.475L554.8 319.047L29.3659 194.47ZM561.574 242.353L561.55 241.916L22.3651 271.582L22.3891 272.019L561.574 242.353ZM560.107 215.697L560.059 214.823L20.8744 244.489L20.9225 245.363L560.107 215.697ZM558.616 188.604L558.592 188.167L19.4078 217.833L19.4318 218.27L558.616 188.604Z" fill="url(#paint0_linear_193_10)" mask="url(#path-1-outside-1_193_10)"/>
</g>
<defs>
<linearGradient id="paint0_linear_193_10" x1="424.904" y1="286.913" x2="315.161" y2="421.8" gradientUnits="userSpaceOnUse">
<stop stop-color="#FF5B79"/>
<stop offset="1" stop-color="#00F0FF"/>
</linearGradient>
</defs>
</svg>
