<svg width="70" height="70" viewBox="0 0 70 70" fill="none" xmlns="http://www.w3.org/2000/svg">
<path d="M60.1562 49.2253V44.8437C60.1545 43.3939 59.5778 42.0039 58.5526 40.9787C57.5274 39.9535 56.1374 39.3767 54.6875 39.375H45.4803C46.4927 37.5075 47.3093 35.5403 47.9172 33.5048L52.0734 30.1787C52.7195 29.663 53.1918 28.9615 53.4266 28.1688C53.6614 27.3762 53.6474 26.5307 53.3865 25.7462C53.1256 24.9618 52.6304 24.2763 51.9677 23.7822C51.3049 23.288 50.5066 23.0091 49.6803 22.983L52.1172 16.2827C52.739 14.5727 52.9394 12.7381 52.7016 10.9342C52.4637 9.13031 51.7946 7.41034 50.7508 5.92C49.707 4.42967 48.3194 3.2129 46.7054 2.37277C45.0915 1.53263 43.2989 1.09391 41.4794 1.09375H32.1934C25.2452 1.09202 18.4365 3.04471 12.5453 6.72875C12.3683 6.8384 12.2263 6.99629 12.1359 7.18387C12.0455 7.37145 12.0106 7.58093 12.0352 7.78769C12.0598 7.99445 12.1428 8.18989 12.2747 8.35106C12.4065 8.51222 12.5816 8.63241 12.7794 8.6975L15.4164 9.5725C15.7794 9.69358 16.1137 9.88753 16.399 10.1425C16.6844 10.3974 16.9146 10.7079 17.0756 11.055C17.2366 11.4021 17.325 11.7784 17.3353 12.1609C17.3457 12.5434 17.2778 12.9239 17.1358 13.2792C16.8737 13.9342 16.7533 14.6373 16.7826 15.3421C16.8118 16.047 16.9899 16.7377 17.3053 17.3687L20.125 23.0027C19.3184 23.0669 18.5497 23.3721 17.9187 23.8788C17.2878 24.3855 16.8238 25.0702 16.587 25.844C16.3502 26.6177 16.3515 27.4448 16.5908 28.2179C16.83 28.9909 17.2962 29.6741 17.9288 30.1787L22.085 33.5048C22.6922 35.5402 23.5081 37.5074 24.5197 39.375H15.3125C13.8626 39.3767 12.4726 39.9535 11.4474 40.9787C10.4222 42.0039 9.84549 43.3939 9.84375 44.8437V49.2253C7.25511 50.3067 5.04362 52.1287 3.4869 54.4626C1.93019 56.7965 1.09763 59.5383 1.09375 62.3437V67.8125C1.09375 68.1026 1.20898 68.3808 1.4141 68.5859C1.61922 68.791 1.89742 68.9062 2.1875 68.9062H67.8125C68.1026 68.9062 68.3808 68.791 68.5859 68.5859C68.791 68.3808 68.9062 68.1026 68.9062 67.8125V62.3437C68.9024 59.5383 68.0698 56.7965 66.5131 54.4626C64.9564 52.1287 62.7449 50.3067 60.1562 49.2253V49.2253ZM43.75 22.9687H37.1875C36.8974 22.9687 36.6192 23.084 36.4141 23.2891C36.209 23.4942 36.0938 23.7724 36.0938 24.0625V25.1562H33.9062V24.0625C33.9062 23.7724 33.791 23.4942 33.5859 23.2891C33.3808 23.084 33.1026 22.9687 32.8125 22.9687H22.9688V21.3664L29.7959 16.8153C31.2651 15.8338 32.9926 15.3108 34.7594 15.3125C37.2871 15.3095 39.739 14.4493 41.7145 12.8723L43.5017 11.4428L45.3775 14.2581C46.4575 15.8741 47.0331 17.7745 47.0312 19.7181V22.9687H43.75ZM42.6562 25.1562V28.4375C42.6562 28.7276 42.541 29.0058 42.3359 29.2109C42.1308 29.416 41.8526 29.5312 41.5625 29.5312H39.375C39.0849 29.5312 38.8067 29.416 38.6016 29.2109C38.3965 29.0058 38.2812 28.7276 38.2812 28.4375V25.1562H42.6562ZM31.7188 25.1562V28.4375C31.7188 28.7276 31.6035 29.0058 31.3984 29.2109C31.1933 29.416 30.9151 29.5312 30.625 29.5312H28.4375C28.1474 29.5312 27.8692 29.416 27.6641 29.2109C27.459 29.0058 27.3438 28.7276 27.3438 28.4375V25.1562H31.7188ZM51.4062 27.0156C51.4068 27.2947 51.3443 27.5702 51.2235 27.8217C51.1027 28.0732 50.9266 28.2942 50.7084 28.4681L48.7255 30.0541C49.0145 28.4368 49.1736 26.7989 49.2013 25.1562H49.5469C49.7911 25.1562 50.0328 25.2043 50.2584 25.2978C50.484 25.3912 50.689 25.5282 50.8617 25.7008C51.0343 25.8735 51.1713 26.0785 51.2647 26.3041C51.3582 26.5297 51.4062 26.7714 51.4062 27.0156V27.0156ZM19.1658 14.0919C19.4185 13.4599 19.5394 12.783 19.5211 12.1027C19.5029 11.4223 19.3458 10.7529 19.0595 10.1354C18.7733 9.51795 18.3639 8.96548 17.8565 8.51189C17.3491 8.0583 16.7543 7.71317 16.1087 7.49766L15.7741 7.38828C20.8265 4.69085 26.466 3.28024 32.1934 3.28125H41.4794C42.9469 3.28153 44.3927 3.63542 45.6943 4.31296C46.996 4.99051 48.1153 5.97175 48.9574 7.1736C49.7994 8.37545 50.3394 9.76252 50.5317 11.2173C50.724 12.6722 50.5629 14.1519 50.062 15.5312L49.1116 18.1453C48.874 16.3191 48.219 14.572 47.1975 13.0397L44.66 9.23234C44.5758 9.10624 44.4663 8.99901 44.3385 8.91748C44.2106 8.83595 44.0672 8.7819 43.9173 8.75875C43.7676 8.73613 43.6147 8.74456 43.4683 8.7835C43.322 8.82245 43.1851 8.89109 43.0664 8.98516L40.3484 11.165C38.7605 12.4312 36.7904 13.1221 34.7594 13.125C32.5604 13.123 30.4104 13.7739 28.5819 14.9953L21.268 19.8712C21.2002 19.9173 21.1378 19.9709 21.082 20.0309L19.262 16.3898C19.0847 16.0353 18.9844 15.6472 18.9678 15.2512C18.9512 14.8551 19.0187 14.46 19.1658 14.0919V14.0919ZM19.2927 28.4703C18.9908 28.23 18.7711 27.9017 18.6642 27.5309C18.5573 27.1602 18.5683 26.7653 18.6958 26.4011C18.8234 26.0369 19.061 25.7214 19.3759 25.4984C19.6908 25.2753 20.0673 25.1558 20.4531 25.1562H20.7966C20.8241 26.7997 20.9832 28.4382 21.2723 30.0562L19.2927 28.4703ZM22.9863 25.1562H25.1562V28.4375C25.1563 29.3077 25.502 30.1423 26.1173 30.7577C26.7327 31.373 27.5673 31.7187 28.4375 31.7187H30.625C31.4952 31.7187 32.3298 31.373 32.9452 30.7577C33.5605 30.1423 33.9062 29.3077 33.9062 28.4375V27.3437H36.0938V28.4375C36.0938 29.3077 36.4395 30.1423 37.0548 30.7577C37.6702 31.373 38.5048 31.7187 39.375 31.7187H41.5625C42.4327 31.7187 43.2673 31.373 43.8827 30.7577C44.498 30.1423 44.8438 29.3077 44.8438 28.4375V25.1562H47.0138C46.9288 30.1694 45.5292 35.0725 42.9548 39.375H27.0452C24.4708 35.0725 23.0712 30.1694 22.9863 25.1562V25.1562ZM15.3125 41.5625H54.6875C55.5577 41.5625 56.3923 41.9082 57.0077 42.5236C57.623 43.1389 57.9688 43.9735 57.9688 44.8437V66.7187H12.0312V44.8437C12.0312 43.9735 12.377 43.1389 12.9923 42.5236C13.6077 41.9082 14.4423 41.5625 15.3125 41.5625V41.5625ZM3.28125 62.3437C3.28422 60.1275 3.89839 57.9551 5.0562 56.0653C6.21401 54.1756 7.8706 52.6418 9.84375 51.6327V66.7187H3.28125V62.3437ZM66.7188 66.7187H60.1562V51.6327C62.1293 52.6419 63.7858 54.1757 64.9436 56.0654C66.1014 57.9551 66.7157 60.1275 66.7188 62.3437V66.7187Z" fill="white"/>
<path d="M35 63.4375C35.8653 63.4375 36.7112 63.1809 37.4306 62.7002C38.1501 62.2194 38.7109 61.5362 39.042 60.7367C39.3731 59.9373 39.4598 59.0576 39.2909 58.209C39.1221 57.3603 38.7055 56.5808 38.0936 55.9689C37.4817 55.3571 36.7022 54.9404 35.8535 54.7716C35.0049 54.6028 34.1252 54.6894 33.3258 55.0205C32.5263 55.3517 31.8431 55.9124 31.3623 56.6319C30.8816 57.3513 30.625 58.1972 30.625 59.0625C30.625 60.2228 31.0859 61.3356 31.9064 62.1561C32.7269 62.9766 33.8397 63.4375 35 63.4375ZM35 56.875C35.4327 56.875 35.8556 57.0033 36.2153 57.2437C36.5751 57.484 36.8554 57.8257 37.021 58.2254C37.1866 58.6251 37.2299 59.0649 37.1455 59.4893C37.0611 59.9136 36.8527 60.3034 36.5468 60.6093C36.2409 60.9152 35.8511 61.1236 35.4268 61.208C35.0024 61.2924 34.5626 61.2491 34.1629 61.0835C33.7632 60.9179 33.4215 60.6375 33.1812 60.2778C32.9408 59.9181 32.8125 59.4951 32.8125 59.0625C32.8125 58.4823 33.043 57.9259 33.4532 57.5157C33.8634 57.1055 34.4198 56.875 35 56.875V56.875Z" fill="white"/>
<path d="M27.664 53.2732L29.2105 51.7267L25.6088 48.125L29.2105 44.5232L27.664 42.9767L23.289 47.3517C23.0839 47.5568 22.9688 47.8349 22.9688 48.125C22.9688 48.415 23.0839 48.6931 23.289 48.8982L27.664 53.2732Z" fill="white"/>
<path d="M42.3356 53.2732L46.7106 48.8982C46.9157 48.6931 47.0309 48.415 47.0309 48.125C47.0309 47.8349 46.9157 47.5568 46.7106 47.3517L42.3356 42.9767L40.7891 44.5232L44.3908 48.125L40.7891 51.7267L42.3356 53.2732Z" fill="white"/>
<path d="M37.407 43.0937L30.8428 51.8424L32.5925 53.1552L39.1567 44.4065L37.407 43.0937Z" fill="white"/>
</svg>
