<svg width="104" height="91" viewBox="0 0 104 91" fill="none" xmlns="http://www.w3.org/2000/svg">
<path d="M7.42855 18.4768C5.085 8.02674 14.1324 -1.44196 24.6783 0.423848L58.3405 6.37948C60.0994 6.69066 61.8997 6.6852 63.6566 6.36335L86.1039 2.25132C98.5955 -0.0369719 108.101 13.2641 101.891 24.3413L92.9138 40.3529C91.0424 43.6908 90.5174 47.6177 91.4464 51.3299L96.5778 71.8349C99.2921 82.6811 89.613 92.5776 78.7092 90.1049L42.5387 81.9025C40.2131 81.3751 37.7953 81.4098 35.4858 82.0037L18.8031 86.2935C5.75889 89.6477 -4.75361 75.444 2.26537 63.949L10.3378 50.7287C12.3661 47.407 13.0239 43.4269 12.1722 39.6292L7.42855 18.4768Z" fill="#00F0FF" fill-opacity="0.8"/>
</svg>
