<svg width="30" height="30" viewBox="0 0 30 30" fill="none" xmlns="http://www.w3.org/2000/svg">
<g clip-path="url(#clip0_44_72)">
<path d="M26.2499 30H18.7501V18.75H22.3874L23.3437 14.9999H18.7501V10.4999C18.7501 9.25733 19.7573 8.24988 21.0001 8.24988H23.2501V4.49999H21.0001C17.6885 4.5052 15.0051 7.18833 14.9999 10.4999V14.9999H11.25V18.75H14.9999V30H3.74996C1.67904 30 6.10352e-05 28.321 6.10352e-05 26.2498V3.7499C6.10352e-05 1.67898 1.67904 0 3.74996 0H26.2499C28.3211 0 30.0001 1.67898 30.0001 3.7499V26.2498C30.0001 28.321 28.3211 30 26.2499 30ZM20.25 28.4998H26.2499C27.4927 28.4998 28.4999 27.4927 28.4999 26.2498V3.7499C28.4999 2.50735 27.4927 1.4999 26.2499 1.4999H3.74996C2.50741 1.4999 1.49996 2.50735 1.49996 3.7499V26.2498C1.49996 27.4927 2.50741 28.4998 3.74996 28.4998H13.5V20.2499H9.75012V13.5H13.5V10.4999C13.5052 6.35997 16.8599 3.00503 21.0001 3.00008H24.75V9.75006H21.0001C20.5859 9.75006 20.25 10.0857 20.25 10.4999V13.5H25.2749L23.55 20.2499H20.25V28.4998Z" fill="white"/>
</g>
<defs>
<clipPath id="clip0_44_72">
<rect width="30" height="30" fill="white"/>
</clipPath>
</defs>
</svg>
