<svg width="28" height="30" viewBox="0 0 28 30" fill="none" xmlns="http://www.w3.org/2000/svg">
<g clip-path="url(#clip0_44_62)">
<path d="M25.6154 5H1.3847C0.623116 5 6.10352e-05 5.69228 6.10352e-05 6.53844V23.4615C6.10352e-05 24.3076 0.623116 25 1.3847 25H25.6154C26.3769 25 27.0001 24.3077 27.0001 23.4615V6.53844C27 5.69228 26.377 5 25.6154 5ZM25.0958 6.15377L14.2965 15.1539C14.1024 15.3181 13.8043 15.4208 13.5 15.4193C13.1957 15.4208 12.8977 15.3181 12.7035 15.1539L1.90424 6.15377H25.0958ZM19.3272 15.7477L25.2118 23.8247C25.2177 23.8328 25.2249 23.8389 25.2312 23.8463H1.76887C1.7751 23.8386 1.78237 23.8328 1.78828 23.8247L7.6729 15.7477C7.8532 15.5001 7.81902 15.1369 7.59569 14.9361C7.37279 14.7358 7.04599 14.7738 6.86564 15.0215L1.0385 23.0196V6.87494L12.0807 16.0768C12.4958 16.4203 13.0008 16.5715 13.4999 16.573C13.9984 16.5719 14.5038 16.4207 14.9191 16.0768L25.9614 6.87494V23.0195L20.1344 15.0215C19.954 14.7738 19.6269 14.7358 19.4043 14.9361C19.181 15.1365 19.1468 15.5001 19.3272 15.7477Z" fill="#FFFBFB"/>
</g>
<defs>
<clipPath id="clip0_44_62">
<rect width="28" height="30" fill="white"/>
</clipPath>
</defs>
</svg>
