<svg width="30" height="28" viewBox="0 0 30 28" fill="none" xmlns="http://www.w3.org/2000/svg">
<path d="M29.5001 14C29.5001 21.4239 23.0412 27.5 15.0001 27.5C6.95888 27.5 0.500061 21.4239 0.500061 14C0.500061 6.57609 6.95888 0.5 15.0001 0.5C23.0412 0.5 29.5001 6.57609 29.5001 14Z" stroke="white"/>
<path d="M20.9815 6.47758C19.3838 4.87988 17.2596 4 15.0001 4C12.7407 4 10.6164 4.87988 9.0187 6.47758C7.42101 8.07531 6.54112 10.1995 6.54112 12.4589C6.54112 17.0297 10.8629 20.8315 13.1848 22.8739C13.5074 23.1577 13.786 23.4028 14.008 23.6102C14.2862 23.87 14.6432 23.9999 15.0001 23.9999C15.3571 23.9999 15.714 23.87 15.9921 23.6102C16.2141 23.4028 16.4928 23.1577 16.8154 22.8739C19.1373 20.8314 23.4591 17.0297 23.4591 12.4589C23.459 10.1995 22.5792 8.07531 20.9815 6.47758ZM16.0416 21.9943C15.7119 22.2843 15.4271 22.5348 15.1924 22.7541C15.0845 22.8548 14.9156 22.8548 14.8077 22.7541C14.573 22.5348 14.2882 22.2843 13.9585 21.9943C11.7757 20.0741 7.71261 16.5 7.71261 12.459C7.71261 8.4407 10.9817 5.1716 15 5.1716C19.0183 5.1716 22.2874 8.4407 22.2874 12.459C22.2875 16.5 18.2244 20.0741 16.0416 21.9943Z" fill="white"/>
<path d="M15.0001 8.41162C12.9446 8.41162 11.2723 10.0838 11.2723 12.1394C11.2723 14.1949 12.9446 15.8671 15.0001 15.8671C17.0556 15.8671 18.7279 14.1949 18.7279 12.1394C18.7279 10.0838 17.0556 8.41162 15.0001 8.41162ZM15.0001 14.6955C13.5906 14.6955 12.4439 13.5488 12.4439 12.1393C12.4439 10.7299 13.5906 9.58314 15.0001 9.58314C16.4096 9.58314 17.5563 10.7299 17.5563 12.1393C17.5563 13.5488 16.4096 14.6955 15.0001 14.6955Z" fill="white"/>
</svg>
