<svg width="30" height="30" viewBox="0 0 30 30" fill="none" xmlns="http://www.w3.org/2000/svg">
<g clip-path="url(#clip0_44_18)">
<path d="M8.8637 0C3.97675 0 6.10352e-05 3.97669 6.10352e-05 8.86364V21.1364C6.10352e-05 26.0233 3.97675 30 8.8637 30H21.1364C26.0234 30 30.0001 26.0233 30.0001 21.1364V8.86364C30.0001 3.97669 26.0234 0 21.1364 0H8.8637ZM8.8637 1.36364H21.1364C25.2863 1.36364 28.6364 4.71376 28.6364 8.86364V21.1364C28.6364 25.2862 25.2863 28.6364 21.1364 28.6364H8.8637C4.71382 28.6364 1.3637 25.2862 1.3637 21.1364V8.86364C1.3637 4.71376 4.71382 1.36364 8.8637 1.36364ZM23.1819 5.45455C22.8202 5.45455 22.4734 5.59821 22.2176 5.85395C21.9619 6.10968 21.8182 6.45652 21.8182 6.81818C21.8182 7.17984 21.9619 7.52669 22.2176 7.78242C22.4734 8.03815 22.8202 8.18182 23.1819 8.18182C23.5435 8.18182 23.8904 8.03815 24.1461 7.78242C24.4018 7.52669 24.5455 7.17984 24.5455 6.81818C24.5455 6.45652 24.4018 6.10968 24.1461 5.85395C23.8904 5.59821 23.5435 5.45455 23.1819 5.45455ZM15.0001 7.5C10.866 7.5 7.50006 10.8659 7.50006 15C7.50006 19.1341 10.866 22.5 15.0001 22.5C19.1341 22.5 22.5001 19.1341 22.5001 15C22.5001 10.8659 19.1341 7.5 15.0001 7.5ZM15.0001 8.86364C18.3972 8.86364 21.1364 11.6029 21.1364 15C21.1364 18.3971 18.3972 21.1364 15.0001 21.1364C11.603 21.1364 8.8637 18.3971 8.8637 15C8.8637 11.6029 11.603 8.86364 15.0001 8.86364Z" fill="white"/>
</g>
<defs>
<clipPath id="clip0_44_18">
<rect width="30" height="30" fill="white"/>
</clipPath>
</defs>
</svg>
