<svg width="6" height="6" viewBox="0 0 6 6" fill="none" xmlns="http://www.w3.org/2000/svg">
<path d="M3 6C1.34583 6 0 4.65417 0 3C0 1.34583 1.34583 0 3 0C4.65417 0 6 1.34583 6 3C6 4.65417 4.65417 6 3 6ZM3 0.375002C1.55255 0.375002 0.375002 1.55255 0.375002 3C0.375002 4.44745 1.55255 5.625 3 5.625C4.44745 5.625 5.625 4.44745 5.625 3C5.625 1.55255 4.44745 0.375002 3 0.375002Z" fill="white" fill-opacity="0.8"/>
<path d="M3.00001 4.50001C2.17292 4.50001 1.5 3.82711 1.5 3.00001C1.5 2.17291 2.17291 1.5 3.00001 1.5C3.40668 1.5 3.78718 1.66004 4.07173 1.95062L3.80366 2.21282C3.59035 1.99492 3.30507 1.87499 3.00001 1.87499C2.37964 1.87499 1.875 2.37963 1.875 2.99999C1.875 3.62036 2.37964 4.125 3.00001 4.125C3.30488 4.125 3.59016 4.00506 3.80366 3.78716L4.07136 4.04974C3.78699 4.34015 3.4065 4.5 3.00001 4.50001Z" fill="white" fill-opacity="0.8"/>
</svg>
