<svg width="92" height="87" viewBox="0 0 92 87" fill="none" xmlns="http://www.w3.org/2000/svg">
<path d="M84.8181 69.7703C85.8513 80.4858 75.5947 88.7688 65.3369 85.5031L53.8189 81.8361C51.4756 81.0901 48.9848 80.9316 46.5659 81.3747L18.1586 86.5781C5.60191 88.8781 -3.90571 75.4407 2.44173 64.3651L8.06788 54.548C9.87734 51.3907 10.4773 47.6833 9.75601 44.1164L4.63128 18.7744C2.34664 7.47668 13.1283 -2.06913 24.066 1.5673L38.782 6.45988C41.4172 7.33601 44.2439 7.46338 46.9472 6.82782L72.8669 0.734052C85.2503 -2.17731 95.4084 10.679 89.7118 22.0532L83.6832 34.09C82.42 36.6121 81.8936 39.4392 82.1643 42.2469L84.8181 69.7703Z" fill="#00F0FF" fill-opacity="0.8"/>
</svg>
