<svg width="98" height="93" viewBox="0 0 98 93" fill="none" xmlns="http://www.w3.org/2000/svg">
<path d="M90.7321 73.7432C92.7957 84.0211 83.9489 93.1918 73.6035 91.4991L45.9914 86.9812C44.0494 86.6635 42.064 86.7309 40.1481 87.1798L19.2844 92.0672C6.19966 95.1324 -4.00341 80.7678 3.2 69.4224L12.2751 55.1292C14.3449 51.8693 15.0777 47.9367 14.3211 44.15L9.194 18.4905C7.10059 8.01368 16.3199 -1.23073 26.8024 0.834214L56.4764 6.6797C58.552 7.08858 60.6906 7.05379 62.7518 6.57761L78.9674 2.83154C90.6604 0.130288 100.633 11.5719 96.3611 22.7866L87.5167 46.0031C86.5095 48.647 86.2705 51.5219 86.8275 54.2958L90.7321 73.7432Z" fill="#00F0FF" fill-opacity="0.8"/>
</svg>
