<svg width="140" height="116" viewBox="0 0 140 116" fill="none" xmlns="http://www.w3.org/2000/svg">
<path d="M118.252 90.3885C119.132 100.255 110.375 108.25 100.628 106.478L68.1123 100.566C66.06 100.193 63.9524 100.252 61.9242 100.739L38.8614 106.281C25.4504 109.504 15.1649 94.4426 23.0475 83.1242L35.226 65.6371C37.9173 61.7725 38.6375 56.8684 37.1709 52.3932L27.881 24.047C24.3323 13.2192 33.6763 2.54443 44.8786 4.62858L81.5202 11.4456C83.4869 11.8115 85.5069 11.7803 87.4613 11.3539L111.777 6.04865C123.55 3.48 133.393 15.1399 128.886 26.315L116.85 56.1527C115.963 58.3528 115.61 60.7321 115.82 63.0952L118.252 90.3885Z" fill="#00F0FF" fill-opacity="0.8"/>
<path d="M53.2453 39.72C53.6186 34.8133 55.512 30.9733 58.9253 28.2C62.3386 25.4267 66.7653 24.04 72.2053 24.04C75.832 24.04 78.952 24.7067 81.5653 26.04C84.232 27.32 86.232 29.08 87.5653 31.32C88.952 33.56 89.6453 36.0933 89.6453 38.92C89.6453 42.2267 88.6853 45.08 86.7653 47.48C84.8986 49.88 82.4453 51.4267 79.4053 52.12V52.52C82.872 53.3733 85.6186 55.0533 87.6453 57.56C89.672 60.0667 90.6853 63.3467 90.6853 67.4C90.6853 70.44 89.992 73.1867 88.6053 75.64C87.2186 78.04 85.1386 79.9333 82.3653 81.32C79.592 82.7067 76.2586 83.4 72.3653 83.4C66.712 83.4 62.072 81.9333 58.4453 79C54.8186 76.0133 52.792 71.8 52.3653 66.36H59.4053C59.7786 69.56 61.0853 72.1733 63.3253 74.2C65.5653 76.2267 68.552 77.24 72.2853 77.24C76.0186 77.24 78.8453 76.28 80.7653 74.36C82.7386 72.3867 83.7253 69.8533 83.7253 66.76C83.7253 62.76 82.392 59.88 79.7253 58.12C77.0586 56.36 73.032 55.48 67.6453 55.48H65.8053V49.4H67.7253C72.632 49.3467 76.3386 48.5467 78.8453 47C81.352 45.4 82.6053 42.9467 82.6053 39.64C82.6053 36.8133 81.672 34.5467 79.8053 32.84C77.992 31.1333 75.3786 30.28 71.9653 30.28C68.6586 30.28 65.992 31.1333 63.9653 32.84C61.9386 34.5467 60.7386 36.84 60.3653 39.72H53.2453Z" fill="white"/>
</svg>
