<svg width="135" height="110" viewBox="0 0 135 110" fill="none" xmlns="http://www.w3.org/2000/svg">
<path d="M112.769 87.5069C113.828 98.1854 103.658 106.489 93.4072 103.317L76.4793 98.0769C74.193 97.3693 71.7705 97.219 69.4142 97.6386L32.1188 104.28C19.5003 106.527 10.0583 92.9369 16.5669 81.8954L25.0556 67.495C26.9502 64.2809 27.579 60.476 26.8192 56.8232L20.255 25.2642C17.9115 13.9976 28.6042 4.3973 39.5541 7.93668L60.5703 14.7298C63.1422 15.5611 65.8911 15.682 68.5261 15.0798L103.048 7.18908C115.484 4.34641 125.567 17.3403 119.725 28.6813L111.03 45.5604C109.705 48.1318 109.152 51.0315 109.437 53.91L112.769 87.5069Z" fill="#00F0FF" fill-opacity="0.8"/>
<path d="M47.97 77.16C54.7434 71.72 60.05 67.2667 63.89 63.8C67.73 60.28 70.9567 56.6267 73.57 52.84C76.2367 49 77.57 45.24 77.57 41.56C77.57 38.0933 76.7167 35.3733 75.01 33.4C73.3567 31.3733 70.6634 30.36 66.93 30.36C63.3034 30.36 60.4767 31.5067 58.45 33.8C56.4767 36.04 55.41 39.0533 55.25 42.84H48.21C48.4234 36.8667 50.2367 32.2533 53.65 29C57.0634 25.7467 61.4634 24.12 66.85 24.12C72.3434 24.12 76.69 25.64 79.89 28.68C83.1434 31.72 84.77 35.9067 84.77 41.24C84.77 45.6667 83.4367 49.9867 80.77 54.2C78.1567 58.36 75.17 62.04 71.81 65.24C68.45 68.3867 64.1567 72.0667 58.93 76.28H86.45V82.36H47.97V77.16Z" fill="white"/>
</svg>
