<svg width="135" height="110" viewBox="0 0 135 110" fill="none" xmlns="http://www.w3.org/2000/svg">
<path d="M24.4442 22.0188C22.3284 11.5364 31.548 2.27011 42.041 4.33285L75.5555 10.9212C77.4992 11.3033 79.4994 11.2966 81.4406 10.9015L104.676 6.1722C116.955 3.67282 126.704 16.4403 121.059 27.6281L109.924 49.6961C108.357 52.8018 107.918 56.3556 108.682 59.7493L114.639 86.1974C117.096 97.1058 107.183 106.771 96.3406 104.039L60.4094 94.985C57.8486 94.3398 55.1628 94.3821 52.6236 95.1076L35.0945 100.116C22.2771 103.778 11.4079 90.1512 17.828 78.4688L28.3562 59.3109C30.0634 56.2044 30.6152 52.5936 29.9139 49.119L24.4442 22.0188Z" fill="#00F0FF" fill-opacity="0.8"/>
<path d="M59.9951 31.8V25.16H75.0351V83H67.6751V31.8H59.9951Z" fill="white"/>
</svg>
